%
M48
M72
T01C0.02400
T02C0.03200
T03C0.04000
T04C0.04700
T05C0.04724
T06C0.05118
T07C0.11800
T08C0.11811
%
T01
X154500Y212800
X214000Y231800
X235500Y197800
X236000Y187800
X290000Y175800
X307500Y173800
X290000Y211300
X233500Y135800
X226000Y101800
X293000Y127800
X315500Y127800
X299500Y86300
T02
X247500Y182800
X247500Y172800
X247500Y162800
X247500Y152800
X247500Y142800
X277500Y142800
X277500Y152800
X277500Y162800
X277500Y172800
X277500Y182800
X277500Y192800
X277500Y202800
X277500Y212800
X247500Y212800
X247500Y202800
X247500Y192800
X347500Y172300
X347500Y162300
X347500Y148800
X347500Y138800
T03
X47500Y85300
X47500Y95300
X69500Y120300
X79500Y119300
X89500Y120300
X99500Y119300
X109500Y120300
X119500Y119300
X129500Y120300
X139500Y119300
X174500Y148300
X174500Y158300
X174500Y168300
X174500Y178300
X139500Y209300
X129500Y210300
X119500Y209300
X109500Y210300
X99500Y209300
X89500Y210300
X79500Y209300
X69500Y210300
X75500Y228300
X75500Y238300
X75500Y248300
X46000Y248300
X46000Y238300
X46000Y228300
X106000Y228300
X106000Y238300
X106000Y248300
X136000Y248300
X136000Y238300
X136000Y228300
X166500Y228300
X166500Y238300
X166500Y248300
X196500Y248300
X196500Y238300
X196500Y228300
X225500Y228300
X225500Y238300
X225500Y248300
X255500Y248300
X255500Y238300
X255500Y228300
X285500Y228300
X285500Y238300
X285500Y248300
X308500Y248300
X318500Y248300
X328500Y248300
T04
X181157Y67300
X200843Y67300
X220657Y67300
X240343Y67300
X335579Y78115
X335579Y97800
X335579Y117485
T05
X316657Y182694
X336343Y182694
X336343Y231906
X316657Y231906
T06
X259091Y109206
X307122Y109206
X307122Y61174
X283500Y53300
X259878Y61174
T07
X75000Y73615
X93504Y85426
X75000Y97237
T08
X46000Y56300
X46500Y178300
X345500Y56300
X346000Y248300
M30
