G75*
%MOIN*%
%OFA0B0*%
%FSLAX25Y25*%
%IPPOS*%
%LPD*%
%AMOC8*
5,1,8,0,0,1.08239X$1,22.5*
%
%ADD10C,0.01600*%
%ADD11R,0.07400X0.07400*%
%ADD12C,0.07400*%
%ADD13C,0.07300*%
%ADD14C,0.00000*%
%ADD15OC8,0.06600*%
%ADD16C,0.05800*%
%ADD17C,0.08500*%
%ADD18C,0.09843*%
%ADD19C,0.17000*%
%ADD20C,0.01000*%
%ADD21C,0.04400*%
%ADD22C,0.05000*%
%ADD23C,0.03200*%
%ADD24C,0.02400*%
D10*
X0034000Y0043800D02*
X0034000Y0260800D01*
X0357500Y0260300D01*
X0357500Y0043800D01*
X0034000Y0043800D01*
X0054979Y0047400D02*
X0056117Y0048537D01*
X0057781Y0051420D01*
X0058643Y0054636D01*
X0058643Y0057964D01*
X0057781Y0061180D01*
X0056117Y0064063D01*
X0053763Y0066417D01*
X0050880Y0068081D01*
X0047664Y0068943D01*
X0044336Y0068943D01*
X0041120Y0068081D01*
X0038237Y0066417D01*
X0037600Y0065779D01*
X0037600Y0169321D01*
X0038737Y0168183D01*
X0041620Y0166519D01*
X0044836Y0165657D01*
X0048164Y0165657D01*
X0051380Y0166519D01*
X0054263Y0168183D01*
X0056617Y0170537D01*
X0058281Y0173420D01*
X0059143Y0176636D01*
X0059143Y0179964D01*
X0058281Y0183180D01*
X0056617Y0186063D01*
X0054263Y0188417D01*
X0051380Y0190081D01*
X0048164Y0190943D01*
X0044836Y0190943D01*
X0041620Y0190081D01*
X0038737Y0188417D01*
X0037600Y0187279D01*
X0037600Y0257194D01*
X0086153Y0257119D01*
X0081702Y0252669D01*
X0081200Y0251456D01*
X0081200Y0241524D01*
X0081010Y0241982D01*
X0079182Y0243810D01*
X0078861Y0243943D01*
X0079083Y0244105D01*
X0079695Y0244717D01*
X0080204Y0245417D01*
X0080597Y0246189D01*
X0080865Y0247012D01*
X0081000Y0247867D01*
X0081000Y0248100D01*
X0075700Y0248100D01*
X0075700Y0248500D01*
X0075300Y0248500D01*
X0075300Y0253800D01*
X0075067Y0253800D01*
X0074212Y0253665D01*
X0073389Y0253397D01*
X0072617Y0253004D01*
X0071917Y0252495D01*
X0071305Y0251883D01*
X0070796Y0251183D01*
X0070403Y0250411D01*
X0070135Y0249588D01*
X0070000Y0248733D01*
X0070000Y0248500D01*
X0075300Y0248500D01*
X0075300Y0248100D01*
X0070000Y0248100D01*
X0070000Y0247867D01*
X0070135Y0247012D01*
X0070403Y0246189D01*
X0070796Y0245417D01*
X0071305Y0244717D01*
X0071917Y0244105D01*
X0072139Y0243943D01*
X0071818Y0243810D01*
X0069990Y0241982D01*
X0069000Y0239593D01*
X0069000Y0237007D01*
X0069990Y0234618D01*
X0071308Y0233300D01*
X0069990Y0231982D01*
X0069000Y0229593D01*
X0069000Y0227007D01*
X0069990Y0224618D01*
X0071818Y0222790D01*
X0074207Y0221800D01*
X0076793Y0221800D01*
X0079182Y0222790D01*
X0081010Y0224618D01*
X0081200Y0225076D01*
X0081200Y0215667D01*
X0081175Y0215642D01*
X0080793Y0215800D01*
X0078207Y0215800D01*
X0075884Y0214838D01*
X0075574Y0215586D01*
X0074786Y0216374D01*
X0073757Y0216800D01*
X0065243Y0216800D01*
X0064214Y0216374D01*
X0063426Y0215586D01*
X0063000Y0214557D01*
X0063000Y0206043D01*
X0063426Y0205014D01*
X0064214Y0204226D01*
X0065243Y0203800D01*
X0073757Y0203800D01*
X0074786Y0204226D01*
X0075084Y0204524D01*
X0075818Y0203790D01*
X0078207Y0202800D01*
X0080793Y0202800D01*
X0083182Y0203790D01*
X0085000Y0205608D01*
X0085818Y0204790D01*
X0088207Y0203800D01*
X0090793Y0203800D01*
X0093182Y0204790D01*
X0094000Y0205608D01*
X0095818Y0203790D01*
X0098207Y0202800D01*
X0100793Y0202800D01*
X0103182Y0203790D01*
X0105000Y0205608D01*
X0105818Y0204790D01*
X0108207Y0203800D01*
X0109333Y0203800D01*
X0045202Y0139669D01*
X0044700Y0138456D01*
X0044700Y0101176D01*
X0043818Y0100810D01*
X0041990Y0098982D01*
X0041000Y0096593D01*
X0041000Y0094007D01*
X0041990Y0091618D01*
X0043308Y0090300D01*
X0041990Y0088982D01*
X0041000Y0086593D01*
X0041000Y0084007D01*
X0041990Y0081618D01*
X0043818Y0079790D01*
X0046207Y0078800D01*
X0048793Y0078800D01*
X0051182Y0079790D01*
X0053010Y0081618D01*
X0054000Y0084007D01*
X0054000Y0084633D01*
X0058869Y0089502D01*
X0058869Y0089502D01*
X0059798Y0090431D01*
X0060300Y0091644D01*
X0060300Y0125433D01*
X0137825Y0202958D01*
X0138207Y0202800D01*
X0140793Y0202800D01*
X0143182Y0203790D01*
X0145010Y0205618D01*
X0146000Y0208007D01*
X0146000Y0210593D01*
X0145010Y0212982D01*
X0143992Y0214000D01*
X0148633Y0214000D01*
X0149500Y0213133D01*
X0149500Y0211805D01*
X0150261Y0209968D01*
X0151668Y0208561D01*
X0153505Y0207800D01*
X0155495Y0207800D01*
X0157332Y0208561D01*
X0158739Y0209968D01*
X0159500Y0211805D01*
X0159500Y0213795D01*
X0158739Y0215632D01*
X0157332Y0217039D01*
X0155495Y0217800D01*
X0154167Y0217800D01*
X0151869Y0220098D01*
X0150656Y0220600D01*
X0105344Y0220600D01*
X0104131Y0220098D01*
X0103202Y0219169D01*
X0099833Y0215800D01*
X0098207Y0215800D01*
X0095818Y0214810D01*
X0095000Y0213992D01*
X0093182Y0215810D01*
X0090793Y0216800D01*
X0088207Y0216800D01*
X0087800Y0216631D01*
X0087800Y0249433D01*
X0091867Y0253500D01*
X0104206Y0253500D01*
X0103889Y0253397D01*
X0103117Y0253004D01*
X0102417Y0252495D01*
X0101805Y0251883D01*
X0101296Y0251183D01*
X0100903Y0250411D01*
X0100635Y0249588D01*
X0100500Y0248733D01*
X0100500Y0248500D01*
X0105800Y0248500D01*
X0105800Y0253500D01*
X0106200Y0253500D01*
X0106200Y0248500D01*
X0111500Y0248500D01*
X0111500Y0248733D01*
X0111365Y0249588D01*
X0111097Y0250411D01*
X0110704Y0251183D01*
X0110195Y0251883D01*
X0109583Y0252495D01*
X0108883Y0253004D01*
X0108111Y0253397D01*
X0107794Y0253500D01*
X0134206Y0253500D01*
X0133889Y0253397D01*
X0133117Y0253004D01*
X0132417Y0252495D01*
X0131805Y0251883D01*
X0131296Y0251183D01*
X0130903Y0250411D01*
X0130635Y0249588D01*
X0130500Y0248733D01*
X0130500Y0248500D01*
X0135800Y0248500D01*
X0135800Y0253500D01*
X0136200Y0253500D01*
X0136200Y0248500D01*
X0135800Y0248500D01*
X0135800Y0248100D01*
X0130500Y0248100D01*
X0130500Y0247867D01*
X0130635Y0247012D01*
X0130903Y0246189D01*
X0131296Y0245417D01*
X0131805Y0244717D01*
X0132417Y0244105D01*
X0132639Y0243943D01*
X0132318Y0243810D01*
X0130608Y0242100D01*
X0111392Y0242100D01*
X0109682Y0243810D01*
X0109361Y0243943D01*
X0109583Y0244105D01*
X0110195Y0244717D01*
X0110704Y0245417D01*
X0111097Y0246189D01*
X0111365Y0247012D01*
X0111500Y0247867D01*
X0111500Y0248100D01*
X0106200Y0248100D01*
X0106200Y0248500D01*
X0105800Y0248500D01*
X0105800Y0248100D01*
X0100500Y0248100D01*
X0100500Y0247867D01*
X0100635Y0247012D01*
X0100903Y0246189D01*
X0101296Y0245417D01*
X0101805Y0244717D01*
X0102417Y0244105D01*
X0102639Y0243943D01*
X0102318Y0243810D01*
X0100490Y0241982D01*
X0099500Y0239593D01*
X0099500Y0237007D01*
X0100490Y0234618D01*
X0101808Y0233300D01*
X0100490Y0231982D01*
X0099500Y0229593D01*
X0099500Y0227007D01*
X0100490Y0224618D01*
X0102318Y0222790D01*
X0104707Y0221800D01*
X0107293Y0221800D01*
X0109682Y0222790D01*
X0111510Y0224618D01*
X0112500Y0227007D01*
X0112500Y0229593D01*
X0111510Y0231982D01*
X0110192Y0233300D01*
X0111510Y0234618D01*
X0111876Y0235500D01*
X0130124Y0235500D01*
X0130490Y0234618D01*
X0131808Y0233300D01*
X0130490Y0231982D01*
X0129500Y0229593D01*
X0129500Y0227007D01*
X0130490Y0224618D01*
X0132318Y0222790D01*
X0134707Y0221800D01*
X0137293Y0221800D01*
X0139682Y0222790D01*
X0141510Y0224618D01*
X0142500Y0227007D01*
X0142500Y0229593D01*
X0141510Y0231982D01*
X0140192Y0233300D01*
X0141510Y0234618D01*
X0142500Y0237007D01*
X0142500Y0239593D01*
X0141510Y0241982D01*
X0139682Y0243810D01*
X0139361Y0243943D01*
X0139583Y0244105D01*
X0140195Y0244717D01*
X0140704Y0245417D01*
X0141097Y0246189D01*
X0141365Y0247012D01*
X0141500Y0247867D01*
X0141500Y0248100D01*
X0136200Y0248100D01*
X0136200Y0248500D01*
X0141500Y0248500D01*
X0141500Y0248733D01*
X0141365Y0249588D01*
X0141097Y0250411D01*
X0140704Y0251183D01*
X0140195Y0251883D01*
X0139583Y0252495D01*
X0138883Y0253004D01*
X0138111Y0253397D01*
X0137794Y0253500D01*
X0156033Y0253500D01*
X0155702Y0253169D01*
X0155200Y0251956D01*
X0155200Y0224144D01*
X0155702Y0222931D01*
X0197099Y0181534D01*
X0196216Y0181900D01*
X0181000Y0181900D01*
X0181000Y0182557D01*
X0180574Y0183586D01*
X0179786Y0184374D01*
X0178757Y0184800D01*
X0170243Y0184800D01*
X0169214Y0184374D01*
X0168426Y0183586D01*
X0168000Y0182557D01*
X0168000Y0174043D01*
X0168426Y0173014D01*
X0169214Y0172226D01*
X0170243Y0171800D01*
X0170245Y0171800D01*
X0169796Y0171183D01*
X0169403Y0170411D01*
X0169135Y0169588D01*
X0169000Y0168733D01*
X0169000Y0168500D01*
X0174300Y0168500D01*
X0174300Y0168100D01*
X0169000Y0168100D01*
X0169000Y0167867D01*
X0169135Y0167012D01*
X0169403Y0166189D01*
X0169796Y0165417D01*
X0170305Y0164717D01*
X0170917Y0164105D01*
X0171139Y0163943D01*
X0170818Y0163810D01*
X0168990Y0161982D01*
X0168831Y0161600D01*
X0122344Y0161600D01*
X0121131Y0161098D01*
X0120202Y0160169D01*
X0086702Y0126669D01*
X0086456Y0126075D01*
X0085818Y0125810D01*
X0083990Y0123982D01*
X0083581Y0122997D01*
X0083083Y0123495D01*
X0082383Y0124004D01*
X0081611Y0124397D01*
X0080788Y0124665D01*
X0079933Y0124800D01*
X0079700Y0124800D01*
X0079700Y0119500D01*
X0079300Y0119500D01*
X0079300Y0124800D01*
X0079067Y0124800D01*
X0078212Y0124665D01*
X0077389Y0124397D01*
X0076617Y0124004D01*
X0076000Y0123555D01*
X0076000Y0124557D01*
X0075574Y0125586D01*
X0074786Y0126374D01*
X0073757Y0126800D01*
X0065243Y0126800D01*
X0064214Y0126374D01*
X0063426Y0125586D01*
X0063000Y0124557D01*
X0063000Y0116043D01*
X0063426Y0115014D01*
X0064214Y0114226D01*
X0065243Y0113800D01*
X0073757Y0113800D01*
X0074786Y0114226D01*
X0075574Y0115014D01*
X0075701Y0115321D01*
X0075917Y0115105D01*
X0076617Y0114596D01*
X0077389Y0114203D01*
X0078212Y0113935D01*
X0079067Y0113800D01*
X0079300Y0113800D01*
X0079300Y0119100D01*
X0079700Y0119100D01*
X0079700Y0113800D01*
X0079933Y0113800D01*
X0080788Y0113935D01*
X0081611Y0114203D01*
X0082383Y0114596D01*
X0083083Y0115105D01*
X0083695Y0115717D01*
X0084198Y0116409D01*
X0085818Y0114790D01*
X0088207Y0113800D01*
X0090793Y0113800D01*
X0093182Y0114790D01*
X0094000Y0115608D01*
X0095818Y0113790D01*
X0098207Y0112800D01*
X0100793Y0112800D01*
X0103182Y0113790D01*
X0105000Y0115608D01*
X0105818Y0114790D01*
X0108207Y0113800D01*
X0110793Y0113800D01*
X0113182Y0114790D01*
X0114000Y0115608D01*
X0115818Y0113790D01*
X0118207Y0112800D01*
X0120793Y0112800D01*
X0123182Y0113790D01*
X0125000Y0115608D01*
X0125818Y0114790D01*
X0128207Y0113800D01*
X0130793Y0113800D01*
X0133182Y0114790D01*
X0134000Y0115608D01*
X0135818Y0113790D01*
X0138207Y0112800D01*
X0140793Y0112800D01*
X0143182Y0113790D01*
X0145010Y0115618D01*
X0146000Y0118007D01*
X0146000Y0120593D01*
X0145010Y0122982D01*
X0143182Y0124810D01*
X0140793Y0125800D01*
X0138207Y0125800D01*
X0135818Y0124810D01*
X0135000Y0123992D01*
X0133182Y0125810D01*
X0130793Y0126800D01*
X0128207Y0126800D01*
X0125818Y0125810D01*
X0124000Y0123992D01*
X0123182Y0124810D01*
X0120793Y0125800D01*
X0119667Y0125800D01*
X0126367Y0132500D01*
X0229729Y0132500D01*
X0230668Y0131561D01*
X0232505Y0130800D01*
X0234495Y0130800D01*
X0236332Y0131561D01*
X0237739Y0132968D01*
X0238500Y0134805D01*
X0238500Y0136795D01*
X0237739Y0138632D01*
X0237171Y0139200D01*
X0240139Y0139200D01*
X0241371Y0137968D01*
X0243466Y0137100D01*
X0251534Y0137100D01*
X0253629Y0137968D01*
X0255232Y0139571D01*
X0255370Y0139903D01*
X0256344Y0139500D01*
X0269839Y0139500D01*
X0271371Y0137968D01*
X0273466Y0137100D01*
X0281534Y0137100D01*
X0283629Y0137968D01*
X0285232Y0139571D01*
X0286100Y0141666D01*
X0286100Y0143934D01*
X0285232Y0146029D01*
X0283629Y0147632D01*
X0283224Y0147800D01*
X0283629Y0147968D01*
X0285232Y0149571D01*
X0286100Y0151666D01*
X0286100Y0153934D01*
X0285427Y0155560D01*
X0288369Y0158502D01*
X0289298Y0159431D01*
X0289800Y0160644D01*
X0289800Y0169933D01*
X0290667Y0170800D01*
X0290995Y0170800D01*
X0292832Y0171561D01*
X0294239Y0172968D01*
X0295000Y0174805D01*
X0295000Y0176795D01*
X0294239Y0178632D01*
X0292832Y0180039D01*
X0290995Y0180800D01*
X0289005Y0180800D01*
X0287168Y0180039D01*
X0285761Y0178632D01*
X0285000Y0176795D01*
X0285000Y0176261D01*
X0283629Y0177632D01*
X0283224Y0177800D01*
X0283629Y0177968D01*
X0285232Y0179571D01*
X0286100Y0181666D01*
X0286100Y0183934D01*
X0285232Y0186029D01*
X0283629Y0187632D01*
X0281904Y0188347D01*
X0282204Y0188444D01*
X0282863Y0188780D01*
X0283462Y0189215D01*
X0283985Y0189738D01*
X0284420Y0190337D01*
X0284756Y0190996D01*
X0284984Y0191699D01*
X0285100Y0192430D01*
X0285100Y0192800D01*
X0285100Y0193170D01*
X0284984Y0193901D01*
X0284756Y0194604D01*
X0284420Y0195263D01*
X0283985Y0195862D01*
X0283462Y0196385D01*
X0282863Y0196820D01*
X0282204Y0197156D01*
X0281501Y0197384D01*
X0280770Y0197500D01*
X0277500Y0197500D01*
X0277500Y0192800D01*
X0277500Y0192800D01*
X0285100Y0192800D01*
X0277500Y0192800D01*
X0277500Y0192800D01*
X0277500Y0192800D01*
X0269900Y0192800D01*
X0269900Y0193170D01*
X0270016Y0193901D01*
X0270244Y0194604D01*
X0270580Y0195263D01*
X0271015Y0195862D01*
X0271538Y0196385D01*
X0272137Y0196820D01*
X0272796Y0197156D01*
X0273499Y0197384D01*
X0274230Y0197500D01*
X0277500Y0197500D01*
X0277500Y0192800D01*
X0269900Y0192800D01*
X0269900Y0192430D01*
X0269968Y0191999D01*
X0260300Y0201667D01*
X0260300Y0215456D01*
X0259798Y0216669D01*
X0254667Y0221800D01*
X0256793Y0221800D01*
X0259182Y0222790D01*
X0261010Y0224618D01*
X0261169Y0225000D01*
X0271633Y0225000D01*
X0279133Y0217500D01*
X0277500Y0217500D01*
X0277500Y0212800D01*
X0277500Y0212800D01*
X0277500Y0208100D01*
X0280770Y0208100D01*
X0281501Y0208216D01*
X0282204Y0208444D01*
X0282863Y0208780D01*
X0283462Y0209215D01*
X0283985Y0209738D01*
X0284420Y0210337D01*
X0284756Y0210996D01*
X0284972Y0211661D01*
X0285000Y0211633D01*
X0285000Y0210305D01*
X0285761Y0208468D01*
X0287168Y0207061D01*
X0289005Y0206300D01*
X0290995Y0206300D01*
X0292832Y0207061D01*
X0294239Y0208468D01*
X0295000Y0210305D01*
X0295000Y0212295D01*
X0294239Y0214132D01*
X0292832Y0215539D01*
X0290995Y0216300D01*
X0289667Y0216300D01*
X0284138Y0221828D01*
X0284207Y0221800D01*
X0286793Y0221800D01*
X0289182Y0222790D01*
X0291010Y0224618D01*
X0292000Y0227007D01*
X0292000Y0229593D01*
X0291010Y0231982D01*
X0289692Y0233300D01*
X0291010Y0234618D01*
X0292000Y0237007D01*
X0292000Y0239593D01*
X0291010Y0241982D01*
X0289182Y0243810D01*
X0288861Y0243943D01*
X0289083Y0244105D01*
X0289695Y0244717D01*
X0290204Y0245417D01*
X0290597Y0246189D01*
X0290865Y0247012D01*
X0291000Y0247867D01*
X0291000Y0248100D01*
X0285700Y0248100D01*
X0285700Y0248500D01*
X0291000Y0248500D01*
X0291000Y0248733D01*
X0290865Y0249588D01*
X0290597Y0250411D01*
X0290204Y0251183D01*
X0289695Y0251883D01*
X0289083Y0252495D01*
X0288383Y0253004D01*
X0287611Y0253397D01*
X0287294Y0253500D01*
X0306706Y0253500D01*
X0306389Y0253397D01*
X0305617Y0253004D01*
X0304917Y0252495D01*
X0304305Y0251883D01*
X0303796Y0251183D01*
X0303403Y0250411D01*
X0303135Y0249588D01*
X0303000Y0248733D01*
X0303000Y0248500D01*
X0308300Y0248500D01*
X0308300Y0248100D01*
X0308700Y0248100D01*
X0308700Y0242800D01*
X0308933Y0242800D01*
X0309788Y0242935D01*
X0310611Y0243203D01*
X0311383Y0243596D01*
X0312083Y0244105D01*
X0312695Y0244717D01*
X0312857Y0244939D01*
X0312990Y0244618D01*
X0314818Y0242790D01*
X0315200Y0242631D01*
X0315200Y0238933D01*
X0312664Y0237883D01*
X0310681Y0235900D01*
X0309607Y0233309D01*
X0309607Y0230504D01*
X0310681Y0227913D01*
X0312664Y0225930D01*
X0315255Y0224856D01*
X0318060Y0224856D01*
X0320651Y0225930D01*
X0322634Y0227913D01*
X0323707Y0230504D01*
X0323707Y0233309D01*
X0322634Y0235900D01*
X0321800Y0236734D01*
X0321800Y0242631D01*
X0322182Y0242790D01*
X0323500Y0244108D01*
X0324818Y0242790D01*
X0325200Y0242631D01*
X0325200Y0239092D01*
X0325702Y0237880D01*
X0329580Y0234002D01*
X0329293Y0233309D01*
X0329293Y0230504D01*
X0330366Y0227913D01*
X0332349Y0225930D01*
X0334940Y0224856D01*
X0337745Y0224856D01*
X0340336Y0225930D01*
X0342319Y0227913D01*
X0343393Y0230504D01*
X0343393Y0233309D01*
X0342319Y0235900D01*
X0341912Y0236307D01*
X0344336Y0235657D01*
X0347664Y0235657D01*
X0350880Y0236519D01*
X0353763Y0238183D01*
X0353900Y0238321D01*
X0353900Y0065779D01*
X0353263Y0066417D01*
X0350380Y0068081D01*
X0347164Y0068943D01*
X0343836Y0068943D01*
X0340620Y0068081D01*
X0337737Y0066417D01*
X0335383Y0064063D01*
X0333719Y0061180D01*
X0332857Y0057964D01*
X0332857Y0054636D01*
X0333719Y0051420D01*
X0335383Y0048537D01*
X0336521Y0047400D01*
X0288519Y0047400D01*
X0290046Y0048926D01*
X0291221Y0051764D01*
X0291221Y0054836D01*
X0290087Y0057574D01*
X0300256Y0057574D01*
X0300576Y0056800D01*
X0302748Y0054628D01*
X0305586Y0053453D01*
X0308658Y0053453D01*
X0311496Y0054628D01*
X0313668Y0056800D01*
X0314843Y0059638D01*
X0314843Y0062710D01*
X0313668Y0065548D01*
X0311496Y0067720D01*
X0308658Y0068895D01*
X0305586Y0068895D01*
X0304812Y0068575D01*
X0303100Y0070287D01*
X0303100Y0082829D01*
X0303739Y0083468D01*
X0304500Y0085305D01*
X0304500Y0087295D01*
X0303739Y0089132D01*
X0302332Y0090539D01*
X0300495Y0091300D01*
X0298505Y0091300D01*
X0296668Y0090539D01*
X0295261Y0089132D01*
X0294500Y0087295D01*
X0294500Y0085305D01*
X0295261Y0083468D01*
X0295900Y0082829D01*
X0295900Y0068080D01*
X0296448Y0066757D01*
X0298431Y0064774D01*
X0277158Y0064774D01*
X0275835Y0064226D01*
X0274822Y0063213D01*
X0266509Y0054900D01*
X0264523Y0054900D01*
X0266424Y0056800D01*
X0267599Y0059638D01*
X0267599Y0062710D01*
X0266424Y0065548D01*
X0264252Y0067720D01*
X0261414Y0068895D01*
X0258342Y0068895D01*
X0255504Y0067720D01*
X0253332Y0065548D01*
X0252157Y0062710D01*
X0252157Y0059638D01*
X0253332Y0056800D01*
X0255232Y0054900D01*
X0237991Y0054900D01*
X0227107Y0065784D01*
X0227107Y0069241D01*
X0228798Y0070931D01*
X0229300Y0072144D01*
X0229300Y0098029D01*
X0230239Y0098968D01*
X0231000Y0100805D01*
X0231000Y0102795D01*
X0230239Y0104632D01*
X0228832Y0106039D01*
X0226995Y0106800D01*
X0225005Y0106800D01*
X0223168Y0106039D01*
X0221761Y0104632D01*
X0221000Y0102795D01*
X0221000Y0100805D01*
X0221761Y0098968D01*
X0222700Y0098029D01*
X0222700Y0077085D01*
X0221940Y0077400D01*
X0219374Y0077400D01*
X0217004Y0076418D01*
X0215189Y0074604D01*
X0214207Y0072233D01*
X0214207Y0062367D01*
X0215189Y0059996D01*
X0217004Y0058182D01*
X0219374Y0057200D01*
X0221940Y0057200D01*
X0224311Y0058182D01*
X0224419Y0058290D01*
X0233448Y0049261D01*
X0234461Y0048248D01*
X0235784Y0047700D01*
X0268716Y0047700D01*
X0270039Y0048248D01*
X0275779Y0053988D01*
X0275779Y0051764D01*
X0276954Y0048926D01*
X0278481Y0047400D01*
X0054979Y0047400D01*
X0056382Y0048997D02*
X0233712Y0048997D01*
X0232113Y0050596D02*
X0057305Y0050596D01*
X0057988Y0052194D02*
X0230515Y0052194D01*
X0228916Y0053793D02*
X0058417Y0053793D01*
X0058643Y0055391D02*
X0227318Y0055391D01*
X0225719Y0056990D02*
X0058643Y0056990D01*
X0058475Y0058588D02*
X0177098Y0058588D01*
X0177504Y0058182D02*
X0179874Y0057200D01*
X0182440Y0057200D01*
X0184811Y0058182D01*
X0186626Y0059996D01*
X0187607Y0062367D01*
X0187607Y0072233D01*
X0186626Y0074604D01*
X0184811Y0076418D01*
X0183493Y0076964D01*
X0157391Y0103066D01*
X0156266Y0104191D01*
X0154796Y0104800D01*
X0083418Y0104800D01*
X0081938Y0106279D01*
X0079362Y0107767D01*
X0076488Y0108537D01*
X0073512Y0108537D01*
X0070638Y0107767D01*
X0068062Y0106279D01*
X0065958Y0104175D01*
X0064470Y0101599D01*
X0063700Y0098725D01*
X0063700Y0095749D01*
X0064470Y0092875D01*
X0065958Y0090299D01*
X0068062Y0088195D01*
X0070638Y0086707D01*
X0073512Y0085937D01*
X0076488Y0085937D01*
X0079362Y0086707D01*
X0081938Y0088195D01*
X0084042Y0090299D01*
X0085530Y0092875D01*
X0086300Y0095749D01*
X0086300Y0096800D01*
X0152343Y0096800D01*
X0175353Y0073791D01*
X0174707Y0072233D01*
X0174707Y0062367D01*
X0175689Y0059996D01*
X0177504Y0058182D01*
X0175611Y0060187D02*
X0058047Y0060187D01*
X0057431Y0061785D02*
X0174948Y0061785D01*
X0174707Y0063384D02*
X0076188Y0063384D01*
X0075800Y0063384D02*
X0074200Y0063384D01*
X0074200Y0063340D02*
X0074200Y0072815D01*
X0064725Y0072815D01*
X0064830Y0071887D01*
X0065087Y0070759D01*
X0065469Y0069667D01*
X0065971Y0068625D01*
X0066586Y0067645D01*
X0067308Y0066741D01*
X0068126Y0065923D01*
X0069030Y0065201D01*
X0070010Y0064586D01*
X0071052Y0064084D01*
X0072144Y0063702D01*
X0073272Y0063444D01*
X0074200Y0063340D01*
X0073812Y0063384D02*
X0056509Y0063384D01*
X0055197Y0064982D02*
X0069379Y0064982D01*
X0067468Y0066581D02*
X0053478Y0066581D01*
X0050513Y0068179D02*
X0066251Y0068179D01*
X0065430Y0069778D02*
X0037600Y0069778D01*
X0037600Y0071376D02*
X0064946Y0071376D01*
X0064725Y0074415D02*
X0074200Y0074415D01*
X0074200Y0083890D01*
X0073272Y0083785D01*
X0072144Y0083528D01*
X0071052Y0083146D01*
X0070010Y0082644D01*
X0069030Y0082028D01*
X0068126Y0081307D01*
X0067308Y0080489D01*
X0066586Y0079585D01*
X0065971Y0078605D01*
X0065469Y0077563D01*
X0065087Y0076471D01*
X0064830Y0075343D01*
X0064725Y0074415D01*
X0064743Y0074573D02*
X0037600Y0074573D01*
X0037600Y0072975D02*
X0074200Y0072975D01*
X0074200Y0072815D02*
X0074200Y0074415D01*
X0075800Y0074415D01*
X0075800Y0083890D01*
X0076728Y0083785D01*
X0077856Y0083528D01*
X0078948Y0083146D01*
X0079990Y0082644D01*
X0080970Y0082028D01*
X0081874Y0081307D01*
X0082692Y0080489D01*
X0083414Y0079585D01*
X0084029Y0078605D01*
X0084531Y0077563D01*
X0084913Y0076471D01*
X0085170Y0075343D01*
X0085275Y0074415D01*
X0075800Y0074415D01*
X0075800Y0072815D01*
X0085275Y0072815D01*
X0085170Y0071887D01*
X0084913Y0070759D01*
X0084531Y0069667D01*
X0084029Y0068625D01*
X0083414Y0067645D01*
X0082692Y0066741D01*
X0081874Y0065923D01*
X0080970Y0065201D01*
X0079990Y0064586D01*
X0078948Y0064084D01*
X0077856Y0063702D01*
X0076728Y0063444D01*
X0075800Y0063340D01*
X0075800Y0072815D01*
X0074200Y0072815D01*
X0074200Y0071376D02*
X0075800Y0071376D01*
X0075800Y0069778D02*
X0074200Y0069778D01*
X0074200Y0068179D02*
X0075800Y0068179D01*
X0075800Y0066581D02*
X0074200Y0066581D01*
X0074200Y0064982D02*
X0075800Y0064982D01*
X0080621Y0064982D02*
X0174707Y0064982D01*
X0174707Y0066581D02*
X0082532Y0066581D01*
X0083749Y0068179D02*
X0174707Y0068179D01*
X0174707Y0069778D02*
X0084570Y0069778D01*
X0085054Y0071376D02*
X0174707Y0071376D01*
X0175015Y0072975D02*
X0075800Y0072975D01*
X0075800Y0074573D02*
X0074200Y0074573D01*
X0074200Y0076172D02*
X0075800Y0076172D01*
X0075800Y0077770D02*
X0074200Y0077770D01*
X0074200Y0079369D02*
X0075800Y0079369D01*
X0075800Y0080967D02*
X0074200Y0080967D01*
X0074200Y0082566D02*
X0075800Y0082566D01*
X0080115Y0082566D02*
X0083592Y0082566D01*
X0083591Y0082570D02*
X0083973Y0081478D01*
X0084475Y0080436D01*
X0085090Y0079456D01*
X0085812Y0078552D01*
X0086630Y0077734D01*
X0087534Y0077012D01*
X0088514Y0076397D01*
X0089556Y0075895D01*
X0090648Y0075513D01*
X0091776Y0075256D01*
X0092704Y0075151D01*
X0092704Y0084626D01*
X0094304Y0084626D01*
X0094304Y0086226D01*
X0103779Y0086226D01*
X0103674Y0087154D01*
X0103417Y0088282D01*
X0103035Y0089374D01*
X0102533Y0090416D01*
X0101917Y0091396D01*
X0101196Y0092300D01*
X0100378Y0093118D01*
X0099474Y0093839D01*
X0098494Y0094455D01*
X0097452Y0094957D01*
X0096360Y0095339D01*
X0095232Y0095596D01*
X0094304Y0095701D01*
X0094304Y0086226D01*
X0092704Y0086226D01*
X0092704Y0095701D01*
X0091776Y0095596D01*
X0090648Y0095339D01*
X0089556Y0094957D01*
X0088514Y0094455D01*
X0087534Y0093839D01*
X0086630Y0093118D01*
X0085812Y0092300D01*
X0085090Y0091396D01*
X0084475Y0090416D01*
X0083973Y0089374D01*
X0083591Y0088282D01*
X0083333Y0087154D01*
X0083229Y0086226D01*
X0092704Y0086226D01*
X0092704Y0084626D01*
X0083229Y0084626D01*
X0083333Y0083698D01*
X0083591Y0082570D01*
X0083281Y0084164D02*
X0054000Y0084164D01*
X0053403Y0082566D02*
X0069885Y0082566D01*
X0067786Y0080967D02*
X0052360Y0080967D01*
X0050166Y0079369D02*
X0066451Y0079369D01*
X0065569Y0077770D02*
X0037600Y0077770D01*
X0037600Y0076172D02*
X0065019Y0076172D01*
X0055130Y0085763D02*
X0092704Y0085763D01*
X0092704Y0087361D02*
X0094304Y0087361D01*
X0094304Y0085763D02*
X0163380Y0085763D01*
X0161782Y0087361D02*
X0103627Y0087361D01*
X0103180Y0088960D02*
X0160183Y0088960D01*
X0158585Y0090558D02*
X0102444Y0090558D01*
X0101310Y0092157D02*
X0156986Y0092157D01*
X0155388Y0093755D02*
X0099579Y0093755D01*
X0096295Y0095354D02*
X0153789Y0095354D01*
X0158709Y0101748D02*
X0221000Y0101748D01*
X0221229Y0103346D02*
X0157110Y0103346D01*
X0160307Y0100149D02*
X0221272Y0100149D01*
X0222178Y0098551D02*
X0161906Y0098551D01*
X0163504Y0096952D02*
X0222700Y0096952D01*
X0222700Y0095354D02*
X0165103Y0095354D01*
X0166702Y0093755D02*
X0222700Y0093755D01*
X0222700Y0092157D02*
X0168300Y0092157D01*
X0169899Y0090558D02*
X0222700Y0090558D01*
X0222700Y0088960D02*
X0171497Y0088960D01*
X0173096Y0087361D02*
X0222700Y0087361D01*
X0222700Y0085763D02*
X0174694Y0085763D01*
X0176293Y0084164D02*
X0222700Y0084164D01*
X0222700Y0082566D02*
X0177891Y0082566D01*
X0179490Y0080967D02*
X0222700Y0080967D01*
X0222700Y0079369D02*
X0181088Y0079369D01*
X0182687Y0077770D02*
X0222700Y0077770D01*
X0216758Y0076172D02*
X0202408Y0076172D01*
X0202119Y0076266D02*
X0201271Y0076400D01*
X0201218Y0076400D01*
X0201218Y0067675D01*
X0206293Y0067675D01*
X0206293Y0071379D01*
X0206158Y0072226D01*
X0205893Y0073042D01*
X0205504Y0073806D01*
X0205000Y0074500D01*
X0204393Y0075107D01*
X0203699Y0075611D01*
X0202935Y0076001D01*
X0202119Y0076266D01*
X0201218Y0076172D02*
X0200467Y0076172D01*
X0200467Y0076400D02*
X0200414Y0076400D01*
X0199566Y0076266D01*
X0198750Y0076001D01*
X0197986Y0075611D01*
X0197292Y0075107D01*
X0196685Y0074500D01*
X0196181Y0073806D01*
X0195792Y0073042D01*
X0195527Y0072226D01*
X0195393Y0071379D01*
X0195393Y0067675D01*
X0200467Y0067675D01*
X0200467Y0066925D01*
X0195393Y0066925D01*
X0195393Y0063221D01*
X0195527Y0062374D01*
X0195792Y0061558D01*
X0196181Y0060794D01*
X0196685Y0060100D01*
X0197292Y0059493D01*
X0197986Y0058989D01*
X0198750Y0058599D01*
X0199566Y0058334D01*
X0200414Y0058200D01*
X0200467Y0058200D01*
X0200467Y0066925D01*
X0201218Y0066925D01*
X0201218Y0067675D01*
X0200467Y0067675D01*
X0200467Y0076400D01*
X0199277Y0076172D02*
X0185057Y0076172D01*
X0186638Y0074573D02*
X0196758Y0074573D01*
X0195770Y0072975D02*
X0187300Y0072975D01*
X0187607Y0071376D02*
X0195393Y0071376D01*
X0195393Y0069778D02*
X0187607Y0069778D01*
X0187607Y0068179D02*
X0195393Y0068179D01*
X0195393Y0066581D02*
X0187607Y0066581D01*
X0187607Y0064982D02*
X0195393Y0064982D01*
X0195393Y0063384D02*
X0187607Y0063384D01*
X0187366Y0061785D02*
X0195718Y0061785D01*
X0196622Y0060187D02*
X0186704Y0060187D01*
X0185217Y0058588D02*
X0198785Y0058588D01*
X0200467Y0058588D02*
X0201218Y0058588D01*
X0201218Y0058200D02*
X0201271Y0058200D01*
X0202119Y0058334D01*
X0202935Y0058599D01*
X0203699Y0058989D01*
X0204393Y0059493D01*
X0205000Y0060100D01*
X0205504Y0060794D01*
X0205893Y0061558D01*
X0206158Y0062374D01*
X0206293Y0063221D01*
X0206293Y0066925D01*
X0201218Y0066925D01*
X0201218Y0058200D01*
X0202900Y0058588D02*
X0216598Y0058588D01*
X0215111Y0060187D02*
X0205063Y0060187D01*
X0205967Y0061785D02*
X0214448Y0061785D01*
X0214207Y0063384D02*
X0206293Y0063384D01*
X0206293Y0064982D02*
X0214207Y0064982D01*
X0214207Y0066581D02*
X0206293Y0066581D01*
X0206293Y0068179D02*
X0214207Y0068179D01*
X0214207Y0069778D02*
X0206293Y0069778D01*
X0206293Y0071376D02*
X0214207Y0071376D01*
X0214515Y0072975D02*
X0205915Y0072975D01*
X0204927Y0074573D02*
X0215177Y0074573D01*
X0221000Y0066800D02*
X0236500Y0051300D01*
X0268000Y0051300D01*
X0277874Y0061174D01*
X0307122Y0061174D01*
X0299500Y0068796D01*
X0299500Y0086300D01*
X0304027Y0084164D02*
X0314140Y0084164D01*
X0312542Y0085763D02*
X0304500Y0085763D01*
X0304472Y0087361D02*
X0310943Y0087361D01*
X0309345Y0088960D02*
X0303810Y0088960D01*
X0302285Y0090558D02*
X0307746Y0090558D01*
X0306148Y0092157D02*
X0229300Y0092157D01*
X0229300Y0093755D02*
X0304549Y0093755D01*
X0304007Y0094298D02*
X0303200Y0096246D01*
X0303200Y0102473D01*
X0302748Y0102660D01*
X0300576Y0104832D01*
X0299401Y0107670D01*
X0299401Y0110741D01*
X0300576Y0113579D01*
X0301997Y0115000D01*
X0272380Y0115000D01*
X0266812Y0109431D01*
X0266812Y0107670D01*
X0265636Y0104832D01*
X0263464Y0102660D01*
X0260626Y0101484D01*
X0257555Y0101484D01*
X0254717Y0102660D01*
X0252545Y0104832D01*
X0251369Y0107670D01*
X0251369Y0110741D01*
X0252545Y0113579D01*
X0254717Y0115751D01*
X0257555Y0116927D01*
X0259316Y0116927D01*
X0267183Y0124793D01*
X0269131Y0125600D01*
X0288499Y0125600D01*
X0288000Y0126805D01*
X0288000Y0128795D01*
X0288761Y0130632D01*
X0290168Y0132039D01*
X0292005Y0132800D01*
X0293995Y0132800D01*
X0295832Y0132039D01*
X0296771Y0131100D01*
X0311729Y0131100D01*
X0312668Y0132039D01*
X0314505Y0132800D01*
X0316495Y0132800D01*
X0318332Y0132039D01*
X0319739Y0130632D01*
X0320500Y0128795D01*
X0320500Y0126805D01*
X0320001Y0125600D01*
X0333054Y0125600D01*
X0335002Y0124793D01*
X0335860Y0123935D01*
X0340512Y0123935D01*
X0342882Y0122953D01*
X0344697Y0121139D01*
X0345679Y0118768D01*
X0345679Y0116202D01*
X0344697Y0113831D01*
X0342882Y0112017D01*
X0340512Y0111035D01*
X0330646Y0111035D01*
X0328275Y0112017D01*
X0326461Y0113831D01*
X0325977Y0115000D01*
X0312247Y0115000D01*
X0313668Y0113579D01*
X0314843Y0110741D01*
X0314843Y0107670D01*
X0313800Y0105151D01*
X0313800Y0099495D01*
X0329291Y0084004D01*
X0330646Y0084565D01*
X0340512Y0084565D01*
X0342882Y0083583D01*
X0344697Y0081769D01*
X0345679Y0079398D01*
X0345679Y0076832D01*
X0344697Y0074461D01*
X0342882Y0072647D01*
X0340512Y0071665D01*
X0330646Y0071665D01*
X0328630Y0072500D01*
X0326946Y0072500D01*
X0324998Y0073307D01*
X0304007Y0094298D01*
X0303569Y0095354D02*
X0229300Y0095354D01*
X0229300Y0096952D02*
X0303200Y0096952D01*
X0303200Y0098551D02*
X0229822Y0098551D01*
X0230728Y0100149D02*
X0303200Y0100149D01*
X0303200Y0101748D02*
X0261263Y0101748D01*
X0264151Y0103346D02*
X0302062Y0103346D01*
X0300529Y0104945D02*
X0265683Y0104945D01*
X0266345Y0106543D02*
X0299867Y0106543D01*
X0299401Y0108142D02*
X0266812Y0108142D01*
X0267121Y0109740D02*
X0299401Y0109740D01*
X0299648Y0111339D02*
X0268719Y0111339D01*
X0270318Y0112937D02*
X0300310Y0112937D01*
X0301533Y0114536D02*
X0271916Y0114536D01*
X0263320Y0120930D02*
X0145860Y0120930D01*
X0146000Y0119332D02*
X0261721Y0119332D01*
X0260123Y0117733D02*
X0145886Y0117733D01*
X0145224Y0116134D02*
X0255642Y0116134D01*
X0253502Y0114536D02*
X0143928Y0114536D01*
X0141125Y0112937D02*
X0252279Y0112937D01*
X0251617Y0111339D02*
X0060300Y0111339D01*
X0060300Y0112937D02*
X0097875Y0112937D01*
X0095072Y0114536D02*
X0092570Y0114536D01*
X0086430Y0114536D02*
X0082265Y0114536D01*
X0083998Y0116134D02*
X0084473Y0116134D01*
X0079700Y0116134D02*
X0079300Y0116134D01*
X0079300Y0114536D02*
X0079700Y0114536D01*
X0076735Y0114536D02*
X0075096Y0114536D01*
X0079300Y0117733D02*
X0079700Y0117733D01*
X0079700Y0120930D02*
X0079300Y0120930D01*
X0079300Y0122529D02*
X0079700Y0122529D01*
X0079700Y0124127D02*
X0079300Y0124127D01*
X0076859Y0124127D02*
X0076000Y0124127D01*
X0075434Y0125726D02*
X0085733Y0125726D01*
X0084135Y0124127D02*
X0082141Y0124127D01*
X0087357Y0127324D02*
X0062191Y0127324D01*
X0063566Y0125726D02*
X0060592Y0125726D01*
X0060300Y0124127D02*
X0063000Y0124127D01*
X0063000Y0122529D02*
X0060300Y0122529D01*
X0060300Y0120930D02*
X0063000Y0120930D01*
X0063000Y0119332D02*
X0060300Y0119332D01*
X0060300Y0117733D02*
X0063000Y0117733D01*
X0063000Y0116134D02*
X0060300Y0116134D01*
X0060300Y0114536D02*
X0063904Y0114536D01*
X0060300Y0109740D02*
X0251369Y0109740D01*
X0251369Y0108142D02*
X0077962Y0108142D01*
X0081481Y0106543D02*
X0224386Y0106543D01*
X0222074Y0104945D02*
X0083273Y0104945D01*
X0086194Y0095354D02*
X0090713Y0095354D01*
X0092704Y0095354D02*
X0094304Y0095354D01*
X0094304Y0093755D02*
X0092704Y0093755D01*
X0092704Y0092157D02*
X0094304Y0092157D01*
X0094304Y0090558D02*
X0092704Y0090558D01*
X0092704Y0088960D02*
X0094304Y0088960D01*
X0094304Y0084626D02*
X0103779Y0084626D01*
X0103674Y0083698D01*
X0103417Y0082570D01*
X0103035Y0081478D01*
X0102533Y0080436D01*
X0101917Y0079456D01*
X0101196Y0078552D01*
X0100378Y0077734D01*
X0099474Y0077012D01*
X0098494Y0076397D01*
X0097452Y0075895D01*
X0096360Y0075513D01*
X0095232Y0075256D01*
X0094304Y0075151D01*
X0094304Y0084626D01*
X0094304Y0084164D02*
X0092704Y0084164D01*
X0092704Y0082566D02*
X0094304Y0082566D01*
X0094304Y0080967D02*
X0092704Y0080967D01*
X0092704Y0079369D02*
X0094304Y0079369D01*
X0094304Y0077770D02*
X0092704Y0077770D01*
X0092704Y0076172D02*
X0094304Y0076172D01*
X0098026Y0076172D02*
X0172971Y0076172D01*
X0171373Y0077770D02*
X0100415Y0077770D01*
X0101848Y0079369D02*
X0169774Y0079369D01*
X0168176Y0080967D02*
X0102789Y0080967D01*
X0103415Y0082566D02*
X0166577Y0082566D01*
X0164979Y0084164D02*
X0103727Y0084164D01*
X0088982Y0076172D02*
X0084981Y0076172D01*
X0085257Y0074573D02*
X0174570Y0074573D01*
X0200467Y0074573D02*
X0201218Y0074573D01*
X0201218Y0072975D02*
X0200467Y0072975D01*
X0200467Y0071376D02*
X0201218Y0071376D01*
X0201218Y0069778D02*
X0200467Y0069778D01*
X0200467Y0068179D02*
X0201218Y0068179D01*
X0201218Y0066581D02*
X0200467Y0066581D01*
X0200467Y0064982D02*
X0201218Y0064982D01*
X0201218Y0063384D02*
X0200467Y0063384D01*
X0200467Y0061785D02*
X0201218Y0061785D01*
X0201218Y0060187D02*
X0200467Y0060187D01*
X0227107Y0066581D02*
X0234893Y0066581D01*
X0234893Y0066925D02*
X0234893Y0063221D01*
X0235027Y0062374D01*
X0235292Y0061558D01*
X0235681Y0060794D01*
X0236185Y0060100D01*
X0236792Y0059493D01*
X0237486Y0058989D01*
X0238250Y0058599D01*
X0239066Y0058334D01*
X0239914Y0058200D01*
X0239967Y0058200D01*
X0239967Y0066925D01*
X0234893Y0066925D01*
X0234893Y0067675D02*
X0239967Y0067675D01*
X0239967Y0066925D01*
X0240718Y0066925D01*
X0240718Y0067675D01*
X0245793Y0067675D01*
X0245793Y0071379D01*
X0245658Y0072226D01*
X0245393Y0073042D01*
X0245004Y0073806D01*
X0244500Y0074500D01*
X0243893Y0075107D01*
X0243199Y0075611D01*
X0242435Y0076001D01*
X0241619Y0076266D01*
X0240771Y0076400D01*
X0240718Y0076400D01*
X0240718Y0067675D01*
X0239967Y0067675D01*
X0239967Y0076400D01*
X0239914Y0076400D01*
X0239066Y0076266D01*
X0238250Y0076001D01*
X0237486Y0075611D01*
X0236792Y0075107D01*
X0236185Y0074500D01*
X0235681Y0073806D01*
X0235292Y0073042D01*
X0235027Y0072226D01*
X0234893Y0071379D01*
X0234893Y0067675D01*
X0234893Y0068179D02*
X0227107Y0068179D01*
X0227645Y0069778D02*
X0234893Y0069778D01*
X0234893Y0071376D02*
X0228982Y0071376D01*
X0229300Y0072975D02*
X0235270Y0072975D01*
X0236258Y0074573D02*
X0229300Y0074573D01*
X0229300Y0076172D02*
X0238777Y0076172D01*
X0239967Y0076172D02*
X0240718Y0076172D01*
X0241908Y0076172D02*
X0295900Y0076172D01*
X0295900Y0077770D02*
X0229300Y0077770D01*
X0229300Y0079369D02*
X0295900Y0079369D01*
X0295900Y0080967D02*
X0229300Y0080967D01*
X0229300Y0082566D02*
X0295900Y0082566D01*
X0294973Y0084164D02*
X0229300Y0084164D01*
X0229300Y0085763D02*
X0294500Y0085763D01*
X0294528Y0087361D02*
X0229300Y0087361D01*
X0229300Y0088960D02*
X0295190Y0088960D01*
X0296715Y0090558D02*
X0229300Y0090558D01*
X0231000Y0101748D02*
X0256918Y0101748D01*
X0254030Y0103346D02*
X0230771Y0103346D01*
X0229926Y0104945D02*
X0252498Y0104945D01*
X0251836Y0106543D02*
X0227614Y0106543D01*
X0230109Y0132120D02*
X0125986Y0132120D01*
X0124388Y0130521D02*
X0288715Y0130521D01*
X0288053Y0128923D02*
X0122789Y0128923D01*
X0121191Y0127324D02*
X0288000Y0127324D01*
X0288447Y0125726D02*
X0140973Y0125726D01*
X0138027Y0125726D02*
X0133267Y0125726D01*
X0134865Y0124127D02*
X0135135Y0124127D01*
X0125733Y0125726D02*
X0120973Y0125726D01*
X0123865Y0124127D02*
X0124135Y0124127D01*
X0123928Y0114536D02*
X0126430Y0114536D01*
X0121125Y0112937D02*
X0137875Y0112937D01*
X0135072Y0114536D02*
X0132570Y0114536D01*
X0143865Y0124127D02*
X0266517Y0124127D01*
X0264918Y0122529D02*
X0145198Y0122529D01*
X0124344Y0139100D02*
X0123700Y0138834D01*
X0129867Y0145000D01*
X0168831Y0145000D01*
X0168990Y0144618D01*
X0170818Y0142790D01*
X0173207Y0141800D01*
X0175793Y0141800D01*
X0178182Y0142790D01*
X0180010Y0144618D01*
X0181000Y0147007D01*
X0181000Y0149593D01*
X0180010Y0151982D01*
X0178692Y0153300D01*
X0180010Y0154618D01*
X0181000Y0157007D01*
X0181000Y0159593D01*
X0180010Y0161982D01*
X0178182Y0163810D01*
X0177861Y0163943D01*
X0178083Y0164105D01*
X0178695Y0164717D01*
X0179204Y0165417D01*
X0179597Y0166189D01*
X0179865Y0167012D01*
X0180000Y0167867D01*
X0180000Y0168100D01*
X0174700Y0168100D01*
X0174700Y0168500D01*
X0180000Y0168500D01*
X0180000Y0168733D01*
X0179865Y0169588D01*
X0179597Y0170411D01*
X0179204Y0171183D01*
X0178755Y0171800D01*
X0178757Y0171800D01*
X0179786Y0172226D01*
X0180574Y0173014D01*
X0181000Y0174043D01*
X0181000Y0174700D01*
X0194009Y0174700D01*
X0228961Y0139748D01*
X0229962Y0139333D01*
X0229729Y0139100D01*
X0124344Y0139100D01*
X0124979Y0140112D02*
X0228597Y0140112D01*
X0226998Y0141711D02*
X0126578Y0141711D01*
X0128176Y0143309D02*
X0170298Y0143309D01*
X0168870Y0144908D02*
X0129775Y0144908D01*
X0117729Y0157696D02*
X0092563Y0157696D01*
X0094161Y0159294D02*
X0119327Y0159294D01*
X0120926Y0160893D02*
X0095760Y0160893D01*
X0097358Y0162491D02*
X0169499Y0162491D01*
X0170938Y0164090D02*
X0098957Y0164090D01*
X0100555Y0165688D02*
X0169658Y0165688D01*
X0169092Y0167287D02*
X0102154Y0167287D01*
X0103752Y0168885D02*
X0169024Y0168885D01*
X0169440Y0170484D02*
X0105351Y0170484D01*
X0106949Y0172082D02*
X0169561Y0172082D01*
X0168150Y0173681D02*
X0108548Y0173681D01*
X0110146Y0175279D02*
X0168000Y0175279D01*
X0168000Y0176878D02*
X0111745Y0176878D01*
X0113343Y0178476D02*
X0168000Y0178476D01*
X0168000Y0180075D02*
X0114942Y0180075D01*
X0116540Y0181673D02*
X0168000Y0181673D01*
X0168296Y0183272D02*
X0118139Y0183272D01*
X0119737Y0184870D02*
X0193763Y0184870D01*
X0195361Y0183272D02*
X0180704Y0183272D01*
X0174500Y0178300D02*
X0195500Y0178300D01*
X0231000Y0142800D01*
X0247500Y0142800D01*
X0240825Y0138514D02*
X0237788Y0138514D01*
X0238450Y0136915D02*
X0341400Y0136915D01*
X0341400Y0136273D02*
X0344973Y0132700D01*
X0350027Y0132700D01*
X0353600Y0136273D01*
X0353600Y0141327D01*
X0351127Y0143800D01*
X0353600Y0146273D01*
X0353600Y0151327D01*
X0350027Y0154900D01*
X0344973Y0154900D01*
X0341400Y0151327D01*
X0341400Y0146273D01*
X0343873Y0143800D01*
X0341400Y0141327D01*
X0341400Y0136273D01*
X0342357Y0135317D02*
X0238500Y0135317D01*
X0238050Y0133718D02*
X0343955Y0133718D01*
X0341400Y0138514D02*
X0284175Y0138514D01*
X0285456Y0140112D02*
X0341400Y0140112D01*
X0341784Y0141711D02*
X0286100Y0141711D01*
X0286100Y0143309D02*
X0343383Y0143309D01*
X0342766Y0144908D02*
X0285697Y0144908D01*
X0284755Y0146506D02*
X0341400Y0146506D01*
X0341400Y0148105D02*
X0283766Y0148105D01*
X0285287Y0149703D02*
X0341400Y0149703D01*
X0341400Y0151302D02*
X0285949Y0151302D01*
X0286100Y0152900D02*
X0342974Y0152900D01*
X0344572Y0154499D02*
X0285866Y0154499D01*
X0285964Y0156097D02*
X0353900Y0156097D01*
X0353900Y0154499D02*
X0350428Y0154499D01*
X0350027Y0156200D02*
X0353600Y0159773D01*
X0353600Y0164827D01*
X0350420Y0168007D01*
X0352600Y0170188D01*
X0352600Y0172300D01*
X0352600Y0174412D01*
X0349612Y0177400D01*
X0347500Y0177400D01*
X0347500Y0172300D01*
X0352600Y0172300D01*
X0347500Y0172300D01*
X0347500Y0172300D01*
X0347500Y0172300D01*
X0347500Y0172300D01*
X0342400Y0172300D01*
X0342400Y0174412D01*
X0345388Y0177400D01*
X0347500Y0177400D01*
X0347500Y0172300D01*
X0342400Y0172300D01*
X0342400Y0170188D01*
X0344580Y0168007D01*
X0341400Y0164827D01*
X0341400Y0159773D01*
X0344973Y0156200D01*
X0350027Y0156200D01*
X0351522Y0157696D02*
X0353900Y0157696D01*
X0353900Y0159294D02*
X0353121Y0159294D01*
X0353600Y0160893D02*
X0353900Y0160893D01*
X0353900Y0162491D02*
X0353600Y0162491D01*
X0353600Y0164090D02*
X0353900Y0164090D01*
X0353900Y0165688D02*
X0352738Y0165688D01*
X0353900Y0167287D02*
X0351140Y0167287D01*
X0351298Y0168885D02*
X0353900Y0168885D01*
X0353900Y0170484D02*
X0352600Y0170484D01*
X0352600Y0172082D02*
X0353900Y0172082D01*
X0353900Y0173681D02*
X0352600Y0173681D01*
X0351733Y0175279D02*
X0353900Y0175279D01*
X0353900Y0176878D02*
X0350135Y0176878D01*
X0347500Y0176878D02*
X0347500Y0176878D01*
X0347500Y0175279D02*
X0347500Y0175279D01*
X0347500Y0173681D02*
X0347500Y0173681D01*
X0344865Y0176878D02*
X0340497Y0176878D01*
X0340336Y0176717D02*
X0342319Y0178700D01*
X0343393Y0181291D01*
X0343393Y0184096D01*
X0342319Y0186687D01*
X0340336Y0188670D01*
X0337745Y0189744D01*
X0334940Y0189744D01*
X0332349Y0188670D01*
X0330366Y0186687D01*
X0329293Y0184096D01*
X0329293Y0181291D01*
X0330366Y0178700D01*
X0332349Y0176717D01*
X0334940Y0175644D01*
X0337745Y0175644D01*
X0340336Y0176717D01*
X0342095Y0178476D02*
X0353900Y0178476D01*
X0353900Y0180075D02*
X0342889Y0180075D01*
X0343393Y0181673D02*
X0353900Y0181673D01*
X0353900Y0183272D02*
X0343393Y0183272D01*
X0343072Y0184870D02*
X0353900Y0184870D01*
X0353900Y0186469D02*
X0342410Y0186469D01*
X0340939Y0188068D02*
X0353900Y0188068D01*
X0353900Y0189666D02*
X0337932Y0189666D01*
X0334753Y0189666D02*
X0318247Y0189666D01*
X0318060Y0189744D02*
X0315255Y0189744D01*
X0312664Y0188670D01*
X0310681Y0186687D01*
X0309607Y0184096D01*
X0309607Y0181291D01*
X0310681Y0178700D01*
X0312664Y0176717D01*
X0315255Y0175644D01*
X0318060Y0175644D01*
X0320651Y0176717D01*
X0322634Y0178700D01*
X0323707Y0181291D01*
X0323707Y0184096D01*
X0322634Y0186687D01*
X0320651Y0188670D01*
X0318060Y0189744D01*
X0315068Y0189666D02*
X0283913Y0189666D01*
X0284843Y0191265D02*
X0353900Y0191265D01*
X0353900Y0192863D02*
X0285100Y0192863D01*
X0284802Y0194462D02*
X0353900Y0194462D01*
X0353900Y0196060D02*
X0283787Y0196060D01*
X0282204Y0198444D02*
X0281501Y0198216D01*
X0280770Y0198100D01*
X0277500Y0198100D01*
X0277500Y0202800D01*
X0277500Y0202800D01*
X0277500Y0207500D01*
X0280770Y0207500D01*
X0281501Y0207384D01*
X0282204Y0207156D01*
X0282863Y0206820D01*
X0283462Y0206385D01*
X0283985Y0205862D01*
X0284420Y0205263D01*
X0284756Y0204604D01*
X0284984Y0203901D01*
X0285100Y0203170D01*
X0285100Y0202800D01*
X0277500Y0202800D01*
X0277500Y0202800D01*
X0277500Y0207500D01*
X0274230Y0207500D01*
X0273499Y0207384D01*
X0272796Y0207156D01*
X0272137Y0206820D01*
X0271538Y0206385D01*
X0271015Y0205862D01*
X0270580Y0205263D01*
X0270244Y0204604D01*
X0270016Y0203901D01*
X0269900Y0203170D01*
X0269900Y0202800D01*
X0277500Y0202800D01*
X0285100Y0202800D01*
X0285100Y0202430D01*
X0284984Y0201699D01*
X0284756Y0200996D01*
X0284420Y0200337D01*
X0283985Y0199738D01*
X0283462Y0199215D01*
X0282863Y0198780D01*
X0282204Y0198444D01*
X0283504Y0199257D02*
X0353900Y0199257D01*
X0353900Y0197659D02*
X0264308Y0197659D01*
X0262710Y0199257D02*
X0271496Y0199257D01*
X0271538Y0199215D02*
X0272137Y0198780D01*
X0272796Y0198444D01*
X0273499Y0198216D01*
X0274230Y0198100D01*
X0277500Y0198100D01*
X0277500Y0202800D01*
X0277500Y0202800D01*
X0277500Y0202800D01*
X0269900Y0202800D01*
X0269900Y0202430D01*
X0270016Y0201699D01*
X0270244Y0200996D01*
X0270580Y0200337D01*
X0271015Y0199738D01*
X0271538Y0199215D01*
X0270316Y0200856D02*
X0261111Y0200856D01*
X0260300Y0202454D02*
X0269900Y0202454D01*
X0270065Y0204053D02*
X0260300Y0204053D01*
X0260300Y0205651D02*
X0270862Y0205651D01*
X0273085Y0207250D02*
X0260300Y0207250D01*
X0260300Y0208848D02*
X0272043Y0208848D01*
X0272137Y0208780D02*
X0272796Y0208444D01*
X0273499Y0208216D01*
X0274230Y0208100D01*
X0277500Y0208100D01*
X0277500Y0212800D01*
X0277500Y0212800D01*
X0277500Y0212800D01*
X0269900Y0212800D01*
X0269900Y0213170D01*
X0270016Y0213901D01*
X0270244Y0214604D01*
X0270580Y0215263D01*
X0271015Y0215862D01*
X0271538Y0216385D01*
X0272137Y0216820D01*
X0272796Y0217156D01*
X0273499Y0217384D01*
X0274230Y0217500D01*
X0277500Y0217500D01*
X0277500Y0212800D01*
X0269900Y0212800D01*
X0269900Y0212430D01*
X0270016Y0211699D01*
X0270244Y0210996D01*
X0270580Y0210337D01*
X0271015Y0209738D01*
X0271538Y0209215D01*
X0272137Y0208780D01*
X0270524Y0210447D02*
X0260300Y0210447D01*
X0260300Y0212045D02*
X0269961Y0212045D01*
X0269975Y0213644D02*
X0260300Y0213644D01*
X0260300Y0215242D02*
X0270569Y0215242D01*
X0272178Y0216841D02*
X0259626Y0216841D01*
X0258028Y0218439D02*
X0278194Y0218439D01*
X0277500Y0216841D02*
X0277500Y0216841D01*
X0277500Y0215242D02*
X0277500Y0215242D01*
X0277500Y0213644D02*
X0277500Y0213644D01*
X0277500Y0212045D02*
X0277500Y0212045D01*
X0277500Y0210447D02*
X0277500Y0210447D01*
X0277500Y0208848D02*
X0277500Y0208848D01*
X0277500Y0207250D02*
X0277500Y0207250D01*
X0277500Y0205651D02*
X0277500Y0205651D01*
X0277500Y0204053D02*
X0277500Y0204053D01*
X0277500Y0202454D02*
X0277500Y0202454D01*
X0277500Y0200856D02*
X0277500Y0200856D01*
X0277500Y0199257D02*
X0277500Y0199257D01*
X0277500Y0196060D02*
X0277500Y0196060D01*
X0277500Y0194462D02*
X0277500Y0194462D01*
X0277500Y0192863D02*
X0277500Y0192863D01*
X0271213Y0196060D02*
X0265907Y0196060D01*
X0267505Y0194462D02*
X0270198Y0194462D01*
X0269900Y0192863D02*
X0269104Y0192863D01*
X0282578Y0188068D02*
X0312061Y0188068D01*
X0310590Y0186469D02*
X0284792Y0186469D01*
X0285712Y0184870D02*
X0309928Y0184870D01*
X0309607Y0183272D02*
X0286100Y0183272D01*
X0286100Y0181673D02*
X0309607Y0181673D01*
X0310111Y0180075D02*
X0292745Y0180075D01*
X0294303Y0178476D02*
X0310905Y0178476D01*
X0312503Y0176878D02*
X0294965Y0176878D01*
X0295000Y0175279D02*
X0343267Y0175279D01*
X0342400Y0173681D02*
X0294534Y0173681D01*
X0293353Y0172082D02*
X0342400Y0172082D01*
X0342400Y0170484D02*
X0290351Y0170484D01*
X0289800Y0168885D02*
X0343702Y0168885D01*
X0343860Y0167287D02*
X0289800Y0167287D01*
X0289800Y0165688D02*
X0342262Y0165688D01*
X0341400Y0164090D02*
X0289800Y0164090D01*
X0289800Y0162491D02*
X0341400Y0162491D01*
X0341400Y0160893D02*
X0289800Y0160893D01*
X0289161Y0159294D02*
X0341879Y0159294D01*
X0343478Y0157696D02*
X0287563Y0157696D01*
X0270825Y0138514D02*
X0254175Y0138514D01*
X0236891Y0132120D02*
X0290363Y0132120D01*
X0295637Y0132120D02*
X0312863Y0132120D01*
X0318137Y0132120D02*
X0353900Y0132120D01*
X0353900Y0133718D02*
X0351045Y0133718D01*
X0352643Y0135317D02*
X0353900Y0135317D01*
X0353900Y0136915D02*
X0353600Y0136915D01*
X0353600Y0138514D02*
X0353900Y0138514D01*
X0353900Y0140112D02*
X0353600Y0140112D01*
X0353900Y0141711D02*
X0353216Y0141711D01*
X0353900Y0143309D02*
X0351617Y0143309D01*
X0352234Y0144908D02*
X0353900Y0144908D01*
X0353900Y0146506D02*
X0353600Y0146506D01*
X0353600Y0148105D02*
X0353900Y0148105D01*
X0353900Y0149703D02*
X0353600Y0149703D01*
X0353600Y0151302D02*
X0353900Y0151302D01*
X0353900Y0152900D02*
X0352026Y0152900D01*
X0353900Y0130521D02*
X0319785Y0130521D01*
X0320447Y0128923D02*
X0353900Y0128923D01*
X0353900Y0127324D02*
X0320500Y0127324D01*
X0320053Y0125726D02*
X0353900Y0125726D01*
X0353900Y0124127D02*
X0335668Y0124127D01*
X0343307Y0122529D02*
X0353900Y0122529D01*
X0353900Y0120930D02*
X0344783Y0120930D01*
X0345445Y0119332D02*
X0353900Y0119332D01*
X0353900Y0117733D02*
X0345679Y0117733D01*
X0345651Y0116134D02*
X0353900Y0116134D01*
X0353900Y0114536D02*
X0344989Y0114536D01*
X0343803Y0112937D02*
X0353900Y0112937D01*
X0353900Y0111339D02*
X0341245Y0111339D01*
X0340512Y0104250D02*
X0330646Y0104250D01*
X0328275Y0103268D01*
X0326461Y0101454D01*
X0325479Y0099083D01*
X0325479Y0096517D01*
X0326461Y0094146D01*
X0328275Y0092332D01*
X0330646Y0091350D01*
X0340512Y0091350D01*
X0342882Y0092332D01*
X0344697Y0094146D01*
X0345679Y0096517D01*
X0345679Y0099083D01*
X0344697Y0101454D01*
X0342882Y0103268D01*
X0340512Y0104250D01*
X0342693Y0103346D02*
X0353900Y0103346D01*
X0353900Y0101748D02*
X0344403Y0101748D01*
X0345237Y0100149D02*
X0353900Y0100149D01*
X0353900Y0098551D02*
X0345679Y0098551D01*
X0345679Y0096952D02*
X0353900Y0096952D01*
X0353900Y0095354D02*
X0345197Y0095354D01*
X0344306Y0093755D02*
X0353900Y0093755D01*
X0353900Y0092157D02*
X0342460Y0092157D01*
X0341479Y0084164D02*
X0353900Y0084164D01*
X0353900Y0082566D02*
X0343900Y0082566D01*
X0345029Y0080967D02*
X0353900Y0080967D01*
X0353900Y0079369D02*
X0345679Y0079369D01*
X0345679Y0077770D02*
X0353900Y0077770D01*
X0353900Y0076172D02*
X0345405Y0076172D01*
X0344743Y0074573D02*
X0353900Y0074573D01*
X0353900Y0072975D02*
X0343210Y0072975D01*
X0340987Y0068179D02*
X0310387Y0068179D01*
X0312635Y0066581D02*
X0338022Y0066581D01*
X0336303Y0064982D02*
X0313902Y0064982D01*
X0314564Y0063384D02*
X0334991Y0063384D01*
X0334069Y0061785D02*
X0314843Y0061785D01*
X0314843Y0060187D02*
X0333453Y0060187D01*
X0333025Y0058588D02*
X0314408Y0058588D01*
X0313746Y0056990D02*
X0332857Y0056990D01*
X0332857Y0055391D02*
X0312259Y0055391D01*
X0309478Y0053793D02*
X0333083Y0053793D01*
X0333512Y0052194D02*
X0291221Y0052194D01*
X0291221Y0053793D02*
X0304766Y0053793D01*
X0301985Y0055391D02*
X0290991Y0055391D01*
X0290329Y0056990D02*
X0300498Y0056990D01*
X0298223Y0064982D02*
X0266658Y0064982D01*
X0267320Y0063384D02*
X0274992Y0063384D01*
X0273394Y0061785D02*
X0267599Y0061785D01*
X0267599Y0060187D02*
X0271795Y0060187D01*
X0270197Y0058588D02*
X0267164Y0058588D01*
X0266502Y0056990D02*
X0268598Y0056990D01*
X0267000Y0055391D02*
X0265014Y0055391D01*
X0270788Y0048997D02*
X0276925Y0048997D01*
X0276263Y0050596D02*
X0272387Y0050596D01*
X0273985Y0052194D02*
X0275779Y0052194D01*
X0275779Y0053793D02*
X0275584Y0053793D01*
X0290075Y0048997D02*
X0335118Y0048997D01*
X0334195Y0050596D02*
X0290737Y0050596D01*
X0296624Y0066581D02*
X0265391Y0066581D01*
X0263143Y0068179D02*
X0295900Y0068179D01*
X0295900Y0069778D02*
X0245793Y0069778D01*
X0245793Y0071376D02*
X0295900Y0071376D01*
X0295900Y0072975D02*
X0245415Y0072975D01*
X0244427Y0074573D02*
X0295900Y0074573D01*
X0303100Y0074573D02*
X0323731Y0074573D01*
X0322133Y0076172D02*
X0303100Y0076172D01*
X0303100Y0077770D02*
X0320534Y0077770D01*
X0318936Y0079369D02*
X0303100Y0079369D01*
X0303100Y0080967D02*
X0317337Y0080967D01*
X0315739Y0082566D02*
X0303100Y0082566D01*
X0303100Y0072975D02*
X0325800Y0072975D01*
X0329131Y0084164D02*
X0329678Y0084164D01*
X0327533Y0085763D02*
X0353900Y0085763D01*
X0353900Y0087361D02*
X0325934Y0087361D01*
X0324336Y0088960D02*
X0353900Y0088960D01*
X0353900Y0090558D02*
X0322737Y0090558D01*
X0321138Y0092157D02*
X0328698Y0092157D01*
X0326852Y0093755D02*
X0319540Y0093755D01*
X0317941Y0095354D02*
X0325961Y0095354D01*
X0325479Y0096952D02*
X0316343Y0096952D01*
X0314744Y0098551D02*
X0325479Y0098551D01*
X0325920Y0100149D02*
X0313800Y0100149D01*
X0313800Y0101748D02*
X0326755Y0101748D01*
X0328464Y0103346D02*
X0313800Y0103346D01*
X0313800Y0104945D02*
X0353900Y0104945D01*
X0353900Y0106543D02*
X0314377Y0106543D01*
X0314843Y0108142D02*
X0353900Y0108142D01*
X0353900Y0109740D02*
X0314843Y0109740D01*
X0314596Y0111339D02*
X0329912Y0111339D01*
X0327355Y0112937D02*
X0313934Y0112937D01*
X0312711Y0114536D02*
X0326169Y0114536D01*
X0303100Y0071376D02*
X0353900Y0071376D01*
X0353900Y0069778D02*
X0303610Y0069778D01*
X0256613Y0068179D02*
X0245793Y0068179D01*
X0245793Y0066925D02*
X0240718Y0066925D01*
X0240718Y0058200D01*
X0240771Y0058200D01*
X0241619Y0058334D01*
X0242435Y0058599D01*
X0243199Y0058989D01*
X0243893Y0059493D01*
X0244500Y0060100D01*
X0245004Y0060794D01*
X0245393Y0061558D01*
X0245658Y0062374D01*
X0245793Y0063221D01*
X0245793Y0066925D01*
X0245793Y0066581D02*
X0254365Y0066581D01*
X0253098Y0064982D02*
X0245793Y0064982D01*
X0245793Y0063384D02*
X0252436Y0063384D01*
X0252157Y0061785D02*
X0245467Y0061785D01*
X0244563Y0060187D02*
X0252157Y0060187D01*
X0252592Y0058588D02*
X0242400Y0058588D01*
X0240718Y0058588D02*
X0239967Y0058588D01*
X0239967Y0060187D02*
X0240718Y0060187D01*
X0240718Y0061785D02*
X0239967Y0061785D01*
X0239967Y0063384D02*
X0240718Y0063384D01*
X0240718Y0064982D02*
X0239967Y0064982D01*
X0239967Y0066581D02*
X0240718Y0066581D01*
X0240718Y0068179D02*
X0239967Y0068179D01*
X0239967Y0069778D02*
X0240718Y0069778D01*
X0240718Y0071376D02*
X0239967Y0071376D01*
X0239967Y0072975D02*
X0240718Y0072975D01*
X0240718Y0074573D02*
X0239967Y0074573D01*
X0234893Y0064982D02*
X0227909Y0064982D01*
X0229508Y0063384D02*
X0234893Y0063384D01*
X0235218Y0061785D02*
X0231106Y0061785D01*
X0232705Y0060187D02*
X0236122Y0060187D01*
X0234303Y0058588D02*
X0238285Y0058588D01*
X0235902Y0056990D02*
X0253254Y0056990D01*
X0254741Y0055391D02*
X0237500Y0055391D01*
X0225400Y0143309D02*
X0178702Y0143309D01*
X0180130Y0144908D02*
X0223801Y0144908D01*
X0222203Y0146506D02*
X0180793Y0146506D01*
X0181000Y0148105D02*
X0220604Y0148105D01*
X0219006Y0149703D02*
X0180954Y0149703D01*
X0180292Y0151302D02*
X0217407Y0151302D01*
X0215809Y0152900D02*
X0179092Y0152900D01*
X0179891Y0154499D02*
X0214210Y0154499D01*
X0212612Y0156097D02*
X0180623Y0156097D01*
X0181000Y0157696D02*
X0211013Y0157696D01*
X0209415Y0159294D02*
X0181000Y0159294D01*
X0180462Y0160893D02*
X0207816Y0160893D01*
X0206217Y0162491D02*
X0179501Y0162491D01*
X0178062Y0164090D02*
X0204619Y0164090D01*
X0203020Y0165688D02*
X0179342Y0165688D01*
X0179908Y0167287D02*
X0201422Y0167287D01*
X0199823Y0168885D02*
X0179976Y0168885D01*
X0179560Y0170484D02*
X0198225Y0170484D01*
X0196626Y0172082D02*
X0179439Y0172082D01*
X0180850Y0173681D02*
X0195028Y0173681D01*
X0196763Y0181673D02*
X0196960Y0181673D01*
X0192164Y0186469D02*
X0121336Y0186469D01*
X0122934Y0188068D02*
X0190566Y0188068D01*
X0188967Y0189666D02*
X0124533Y0189666D01*
X0126131Y0191265D02*
X0187369Y0191265D01*
X0185770Y0192863D02*
X0127730Y0192863D01*
X0129328Y0194462D02*
X0184172Y0194462D01*
X0182573Y0196060D02*
X0130927Y0196060D01*
X0132525Y0197659D02*
X0180975Y0197659D01*
X0179376Y0199257D02*
X0134124Y0199257D01*
X0135722Y0200856D02*
X0177777Y0200856D01*
X0176179Y0202454D02*
X0137321Y0202454D01*
X0143445Y0204053D02*
X0174580Y0204053D01*
X0172982Y0205651D02*
X0145024Y0205651D01*
X0145686Y0207250D02*
X0171383Y0207250D01*
X0169785Y0208848D02*
X0157619Y0208848D01*
X0158937Y0210447D02*
X0168186Y0210447D01*
X0166588Y0212045D02*
X0159500Y0212045D01*
X0159500Y0213644D02*
X0164989Y0213644D01*
X0163391Y0215242D02*
X0158900Y0215242D01*
X0157530Y0216841D02*
X0161792Y0216841D01*
X0160194Y0218439D02*
X0153528Y0218439D01*
X0151929Y0220038D02*
X0158595Y0220038D01*
X0156997Y0221636D02*
X0087800Y0221636D01*
X0087800Y0220038D02*
X0104071Y0220038D01*
X0102472Y0218439D02*
X0087800Y0218439D01*
X0087800Y0216841D02*
X0100874Y0216841D01*
X0096860Y0215242D02*
X0093750Y0215242D01*
X0087800Y0223235D02*
X0101873Y0223235D01*
X0100400Y0224833D02*
X0087800Y0224833D01*
X0087800Y0226432D02*
X0099738Y0226432D01*
X0099500Y0228030D02*
X0087800Y0228030D01*
X0087800Y0229629D02*
X0099515Y0229629D01*
X0100177Y0231227D02*
X0087800Y0231227D01*
X0087800Y0232826D02*
X0101333Y0232826D01*
X0100683Y0234424D02*
X0087800Y0234424D01*
X0087800Y0236023D02*
X0099908Y0236023D01*
X0099500Y0237621D02*
X0087800Y0237621D01*
X0087800Y0239220D02*
X0099500Y0239220D01*
X0100008Y0240818D02*
X0087800Y0240818D01*
X0087800Y0242417D02*
X0100925Y0242417D01*
X0102540Y0244015D02*
X0087800Y0244015D01*
X0087800Y0245614D02*
X0101196Y0245614D01*
X0100604Y0247212D02*
X0087800Y0247212D01*
X0087800Y0248811D02*
X0100512Y0248811D01*
X0100902Y0250409D02*
X0088776Y0250409D01*
X0090375Y0252008D02*
X0101930Y0252008D01*
X0105800Y0252008D02*
X0106200Y0252008D01*
X0106200Y0250409D02*
X0105800Y0250409D01*
X0105800Y0248811D02*
X0106200Y0248811D01*
X0110070Y0252008D02*
X0131930Y0252008D01*
X0130902Y0250409D02*
X0111098Y0250409D01*
X0111488Y0248811D02*
X0130512Y0248811D01*
X0130604Y0247212D02*
X0111396Y0247212D01*
X0110804Y0245614D02*
X0131196Y0245614D01*
X0132540Y0244015D02*
X0109460Y0244015D01*
X0111075Y0242417D02*
X0130925Y0242417D01*
X0135800Y0248811D02*
X0136200Y0248811D01*
X0136200Y0250409D02*
X0135800Y0250409D01*
X0135800Y0252008D02*
X0136200Y0252008D01*
X0140070Y0252008D02*
X0155221Y0252008D01*
X0155200Y0250409D02*
X0141098Y0250409D01*
X0141488Y0248811D02*
X0155200Y0248811D01*
X0155200Y0247212D02*
X0141396Y0247212D01*
X0140804Y0245614D02*
X0155200Y0245614D01*
X0155200Y0244015D02*
X0139460Y0244015D01*
X0141075Y0242417D02*
X0155200Y0242417D01*
X0155200Y0240818D02*
X0141992Y0240818D01*
X0142500Y0239220D02*
X0155200Y0239220D01*
X0155200Y0237621D02*
X0142500Y0237621D01*
X0142092Y0236023D02*
X0155200Y0236023D01*
X0155200Y0234424D02*
X0141317Y0234424D01*
X0140667Y0232826D02*
X0155200Y0232826D01*
X0155200Y0231227D02*
X0141823Y0231227D01*
X0142485Y0229629D02*
X0155200Y0229629D01*
X0155200Y0228030D02*
X0142500Y0228030D01*
X0142262Y0226432D02*
X0155200Y0226432D01*
X0155200Y0224833D02*
X0141600Y0224833D01*
X0140127Y0223235D02*
X0155576Y0223235D01*
X0148989Y0213644D02*
X0144349Y0213644D01*
X0145398Y0212045D02*
X0149500Y0212045D01*
X0150063Y0210447D02*
X0146000Y0210447D01*
X0146000Y0208848D02*
X0151381Y0208848D01*
X0131873Y0223235D02*
X0110127Y0223235D01*
X0111600Y0224833D02*
X0130400Y0224833D01*
X0129738Y0226432D02*
X0112262Y0226432D01*
X0112500Y0228030D02*
X0129500Y0228030D01*
X0129515Y0229629D02*
X0112485Y0229629D01*
X0111823Y0231227D02*
X0130177Y0231227D01*
X0131333Y0232826D02*
X0110667Y0232826D01*
X0111317Y0234424D02*
X0130683Y0234424D01*
X0107597Y0204053D02*
X0103445Y0204053D01*
X0106389Y0200856D02*
X0037600Y0200856D01*
X0037600Y0202454D02*
X0107987Y0202454D01*
X0104790Y0199257D02*
X0037600Y0199257D01*
X0037600Y0197659D02*
X0103192Y0197659D01*
X0101593Y0196060D02*
X0037600Y0196060D01*
X0037600Y0194462D02*
X0099995Y0194462D01*
X0098396Y0192863D02*
X0037600Y0192863D01*
X0037600Y0191265D02*
X0096798Y0191265D01*
X0095199Y0189666D02*
X0052098Y0189666D01*
X0054612Y0188068D02*
X0093601Y0188068D01*
X0092002Y0186469D02*
X0056210Y0186469D01*
X0057305Y0184870D02*
X0090404Y0184870D01*
X0088805Y0183272D02*
X0058228Y0183272D01*
X0058685Y0181673D02*
X0087207Y0181673D01*
X0085608Y0180075D02*
X0059113Y0180075D01*
X0059143Y0178476D02*
X0084010Y0178476D01*
X0082411Y0176878D02*
X0059143Y0176878D01*
X0058779Y0175279D02*
X0080813Y0175279D01*
X0079214Y0173681D02*
X0058351Y0173681D01*
X0057509Y0172082D02*
X0077616Y0172082D01*
X0076017Y0170484D02*
X0056563Y0170484D01*
X0054965Y0168885D02*
X0074418Y0168885D01*
X0072820Y0167287D02*
X0052710Y0167287D01*
X0048280Y0165688D02*
X0071221Y0165688D01*
X0069623Y0164090D02*
X0037600Y0164090D01*
X0037600Y0165688D02*
X0044720Y0165688D01*
X0040290Y0167287D02*
X0037600Y0167287D01*
X0037600Y0168885D02*
X0038035Y0168885D01*
X0037600Y0162491D02*
X0068024Y0162491D01*
X0066426Y0160893D02*
X0037600Y0160893D01*
X0037600Y0159294D02*
X0064827Y0159294D01*
X0063229Y0157696D02*
X0037600Y0157696D01*
X0037600Y0156097D02*
X0061630Y0156097D01*
X0060032Y0154499D02*
X0037600Y0154499D01*
X0037600Y0152900D02*
X0058433Y0152900D01*
X0056835Y0151302D02*
X0037600Y0151302D01*
X0037600Y0149703D02*
X0055236Y0149703D01*
X0053638Y0148105D02*
X0037600Y0148105D01*
X0037600Y0146506D02*
X0052039Y0146506D01*
X0050441Y0144908D02*
X0037600Y0144908D01*
X0037600Y0143309D02*
X0048842Y0143309D01*
X0047244Y0141711D02*
X0037600Y0141711D01*
X0037600Y0140112D02*
X0045645Y0140112D01*
X0044724Y0138514D02*
X0037600Y0138514D01*
X0037600Y0136915D02*
X0044700Y0136915D01*
X0044700Y0135317D02*
X0037600Y0135317D01*
X0037600Y0133718D02*
X0044700Y0133718D01*
X0044700Y0132120D02*
X0037600Y0132120D01*
X0037600Y0130521D02*
X0044700Y0130521D01*
X0044700Y0128923D02*
X0037600Y0128923D01*
X0037600Y0127324D02*
X0044700Y0127324D01*
X0044700Y0125726D02*
X0037600Y0125726D01*
X0037600Y0124127D02*
X0044700Y0124127D01*
X0044700Y0122529D02*
X0037600Y0122529D01*
X0037600Y0120930D02*
X0044700Y0120930D01*
X0044700Y0119332D02*
X0037600Y0119332D01*
X0037600Y0117733D02*
X0044700Y0117733D01*
X0044700Y0116134D02*
X0037600Y0116134D01*
X0037600Y0114536D02*
X0044700Y0114536D01*
X0044700Y0112937D02*
X0037600Y0112937D01*
X0037600Y0111339D02*
X0044700Y0111339D01*
X0044700Y0109740D02*
X0037600Y0109740D01*
X0037600Y0108142D02*
X0044700Y0108142D01*
X0044700Y0106543D02*
X0037600Y0106543D01*
X0037600Y0104945D02*
X0044700Y0104945D01*
X0044700Y0103346D02*
X0037600Y0103346D01*
X0037600Y0101748D02*
X0044700Y0101748D01*
X0043157Y0100149D02*
X0037600Y0100149D01*
X0037600Y0098551D02*
X0041811Y0098551D01*
X0041149Y0096952D02*
X0037600Y0096952D01*
X0037600Y0095354D02*
X0041000Y0095354D01*
X0041104Y0093755D02*
X0037600Y0093755D01*
X0037600Y0092157D02*
X0041766Y0092157D01*
X0043049Y0090558D02*
X0037600Y0090558D01*
X0037600Y0088960D02*
X0041980Y0088960D01*
X0041318Y0087361D02*
X0037600Y0087361D01*
X0037600Y0085763D02*
X0041000Y0085763D01*
X0041000Y0084164D02*
X0037600Y0084164D01*
X0037600Y0082566D02*
X0041597Y0082566D01*
X0042640Y0080967D02*
X0037600Y0080967D01*
X0037600Y0079369D02*
X0044834Y0079369D01*
X0041487Y0068179D02*
X0037600Y0068179D01*
X0037600Y0066581D02*
X0038522Y0066581D01*
X0056728Y0087361D02*
X0069505Y0087361D01*
X0067297Y0088960D02*
X0058327Y0088960D01*
X0059850Y0090558D02*
X0065808Y0090558D01*
X0064885Y0092157D02*
X0060300Y0092157D01*
X0060300Y0093755D02*
X0064234Y0093755D01*
X0063806Y0095354D02*
X0060300Y0095354D01*
X0060300Y0096952D02*
X0063700Y0096952D01*
X0063700Y0098551D02*
X0060300Y0098551D01*
X0060300Y0100149D02*
X0064082Y0100149D01*
X0064556Y0101748D02*
X0060300Y0101748D01*
X0060300Y0103346D02*
X0065479Y0103346D01*
X0066727Y0104945D02*
X0060300Y0104945D01*
X0060300Y0106543D02*
X0068519Y0106543D01*
X0072038Y0108142D02*
X0060300Y0108142D01*
X0085766Y0093755D02*
X0087429Y0093755D01*
X0085697Y0092157D02*
X0085115Y0092157D01*
X0084564Y0090558D02*
X0084192Y0090558D01*
X0083828Y0088960D02*
X0082703Y0088960D01*
X0083381Y0087361D02*
X0080495Y0087361D01*
X0082214Y0080967D02*
X0084219Y0080967D01*
X0083549Y0079369D02*
X0085160Y0079369D01*
X0084431Y0077770D02*
X0086593Y0077770D01*
X0101125Y0112937D02*
X0117875Y0112937D01*
X0115072Y0114536D02*
X0112570Y0114536D01*
X0106430Y0114536D02*
X0103928Y0114536D01*
X0088956Y0128923D02*
X0063789Y0128923D01*
X0065388Y0130521D02*
X0090554Y0130521D01*
X0092153Y0132120D02*
X0066986Y0132120D01*
X0068585Y0133718D02*
X0093751Y0133718D01*
X0095350Y0135317D02*
X0070184Y0135317D01*
X0071782Y0136915D02*
X0096948Y0136915D01*
X0098547Y0138514D02*
X0073381Y0138514D01*
X0074979Y0140112D02*
X0100145Y0140112D01*
X0101744Y0141711D02*
X0076578Y0141711D01*
X0078176Y0143309D02*
X0103342Y0143309D01*
X0104941Y0144908D02*
X0079775Y0144908D01*
X0081373Y0146506D02*
X0106539Y0146506D01*
X0108138Y0148105D02*
X0082972Y0148105D01*
X0084570Y0149703D02*
X0109736Y0149703D01*
X0111335Y0151302D02*
X0086169Y0151302D01*
X0087767Y0152900D02*
X0112933Y0152900D01*
X0114532Y0154499D02*
X0089366Y0154499D01*
X0090964Y0156097D02*
X0116130Y0156097D01*
X0095555Y0204053D02*
X0091403Y0204053D01*
X0087597Y0204053D02*
X0083445Y0204053D01*
X0075555Y0204053D02*
X0074367Y0204053D01*
X0064633Y0204053D02*
X0037600Y0204053D01*
X0037600Y0205651D02*
X0063162Y0205651D01*
X0063000Y0207250D02*
X0037600Y0207250D01*
X0037600Y0208848D02*
X0063000Y0208848D01*
X0063000Y0210447D02*
X0037600Y0210447D01*
X0037600Y0212045D02*
X0063000Y0212045D01*
X0063000Y0213644D02*
X0037600Y0213644D01*
X0037600Y0215242D02*
X0063284Y0215242D01*
X0071373Y0223235D02*
X0050127Y0223235D01*
X0049682Y0222790D02*
X0051510Y0224618D01*
X0052500Y0227007D01*
X0052500Y0229593D01*
X0051510Y0231982D01*
X0050192Y0233300D01*
X0051510Y0234618D01*
X0052500Y0237007D01*
X0052500Y0239593D01*
X0051510Y0241982D01*
X0049682Y0243810D01*
X0049361Y0243943D01*
X0049583Y0244105D01*
X0050195Y0244717D01*
X0050704Y0245417D01*
X0051097Y0246189D01*
X0051365Y0247012D01*
X0051500Y0247867D01*
X0051500Y0248100D01*
X0046200Y0248100D01*
X0046200Y0248500D01*
X0051500Y0248500D01*
X0051500Y0248733D01*
X0051365Y0249588D01*
X0051097Y0250411D01*
X0050704Y0251183D01*
X0050195Y0251883D01*
X0049583Y0252495D01*
X0048883Y0253004D01*
X0048111Y0253397D01*
X0047288Y0253665D01*
X0046433Y0253800D01*
X0046200Y0253800D01*
X0046200Y0248500D01*
X0045800Y0248500D01*
X0045800Y0253800D01*
X0045567Y0253800D01*
X0044712Y0253665D01*
X0043889Y0253397D01*
X0043117Y0253004D01*
X0042417Y0252495D01*
X0041805Y0251883D01*
X0041296Y0251183D01*
X0040903Y0250411D01*
X0040635Y0249588D01*
X0040500Y0248733D01*
X0040500Y0248500D01*
X0045800Y0248500D01*
X0045800Y0248100D01*
X0040500Y0248100D01*
X0040500Y0247867D01*
X0040635Y0247012D01*
X0040903Y0246189D01*
X0041296Y0245417D01*
X0041805Y0244717D01*
X0042417Y0244105D01*
X0042639Y0243943D01*
X0042318Y0243810D01*
X0040490Y0241982D01*
X0039500Y0239593D01*
X0039500Y0237007D01*
X0040490Y0234618D01*
X0041808Y0233300D01*
X0040490Y0231982D01*
X0039500Y0229593D01*
X0039500Y0227007D01*
X0040490Y0224618D01*
X0042318Y0222790D01*
X0044707Y0221800D01*
X0047293Y0221800D01*
X0049682Y0222790D01*
X0051600Y0224833D02*
X0069900Y0224833D01*
X0069238Y0226432D02*
X0052262Y0226432D01*
X0052500Y0228030D02*
X0069000Y0228030D01*
X0069015Y0229629D02*
X0052485Y0229629D01*
X0051823Y0231227D02*
X0069677Y0231227D01*
X0070833Y0232826D02*
X0050667Y0232826D01*
X0051317Y0234424D02*
X0070183Y0234424D01*
X0069408Y0236023D02*
X0052092Y0236023D01*
X0052500Y0237621D02*
X0069000Y0237621D01*
X0069000Y0239220D02*
X0052500Y0239220D01*
X0051992Y0240818D02*
X0069508Y0240818D01*
X0070425Y0242417D02*
X0051075Y0242417D01*
X0049460Y0244015D02*
X0072040Y0244015D01*
X0070696Y0245614D02*
X0050804Y0245614D01*
X0051396Y0247212D02*
X0070104Y0247212D01*
X0070012Y0248811D02*
X0051488Y0248811D01*
X0051098Y0250409D02*
X0070402Y0250409D01*
X0071430Y0252008D02*
X0050070Y0252008D01*
X0047467Y0253606D02*
X0074033Y0253606D01*
X0075300Y0253606D02*
X0075700Y0253606D01*
X0075700Y0253800D02*
X0075700Y0248500D01*
X0081000Y0248500D01*
X0081000Y0248733D01*
X0080865Y0249588D01*
X0080597Y0250411D01*
X0080204Y0251183D01*
X0079695Y0251883D01*
X0079083Y0252495D01*
X0078383Y0253004D01*
X0077611Y0253397D01*
X0076788Y0253665D01*
X0075933Y0253800D01*
X0075700Y0253800D01*
X0076967Y0253606D02*
X0082640Y0253606D01*
X0081428Y0252008D02*
X0079570Y0252008D01*
X0080598Y0250409D02*
X0081200Y0250409D01*
X0081200Y0248811D02*
X0080988Y0248811D01*
X0080896Y0247212D02*
X0081200Y0247212D01*
X0081200Y0245614D02*
X0080304Y0245614D01*
X0081200Y0244015D02*
X0078960Y0244015D01*
X0080575Y0242417D02*
X0081200Y0242417D01*
X0075700Y0248811D02*
X0075300Y0248811D01*
X0075300Y0250409D02*
X0075700Y0250409D01*
X0075700Y0252008D02*
X0075300Y0252008D01*
X0084238Y0255205D02*
X0037600Y0255205D01*
X0037600Y0256803D02*
X0085837Y0256803D01*
X0046200Y0253606D02*
X0045800Y0253606D01*
X0044533Y0253606D02*
X0037600Y0253606D01*
X0037600Y0252008D02*
X0041930Y0252008D01*
X0040902Y0250409D02*
X0037600Y0250409D01*
X0037600Y0248811D02*
X0040512Y0248811D01*
X0040604Y0247212D02*
X0037600Y0247212D01*
X0037600Y0245614D02*
X0041196Y0245614D01*
X0042540Y0244015D02*
X0037600Y0244015D01*
X0037600Y0242417D02*
X0040925Y0242417D01*
X0040008Y0240818D02*
X0037600Y0240818D01*
X0037600Y0239220D02*
X0039500Y0239220D01*
X0039500Y0237621D02*
X0037600Y0237621D01*
X0037600Y0236023D02*
X0039908Y0236023D01*
X0040683Y0234424D02*
X0037600Y0234424D01*
X0037600Y0232826D02*
X0041333Y0232826D01*
X0040177Y0231227D02*
X0037600Y0231227D01*
X0037600Y0229629D02*
X0039515Y0229629D01*
X0039500Y0228030D02*
X0037600Y0228030D01*
X0037600Y0226432D02*
X0039738Y0226432D01*
X0040400Y0224833D02*
X0037600Y0224833D01*
X0037600Y0223235D02*
X0041873Y0223235D01*
X0037600Y0221636D02*
X0081200Y0221636D01*
X0081200Y0220038D02*
X0037600Y0220038D01*
X0037600Y0218439D02*
X0081200Y0218439D01*
X0081200Y0216841D02*
X0037600Y0216841D01*
X0037600Y0189666D02*
X0040902Y0189666D01*
X0038388Y0188068D02*
X0037600Y0188068D01*
X0075716Y0215242D02*
X0076860Y0215242D01*
X0079627Y0223235D02*
X0081200Y0223235D01*
X0081200Y0224833D02*
X0081100Y0224833D01*
X0046200Y0248811D02*
X0045800Y0248811D01*
X0045800Y0250409D02*
X0046200Y0250409D01*
X0046200Y0252008D02*
X0045800Y0252008D01*
X0166700Y0248500D02*
X0171633Y0248500D01*
X0190158Y0229975D01*
X0190000Y0229593D01*
X0190000Y0227007D01*
X0190990Y0224618D01*
X0192818Y0222790D01*
X0195207Y0221800D01*
X0197793Y0221800D01*
X0200182Y0222790D01*
X0202010Y0224618D01*
X0203000Y0227007D01*
X0203000Y0229593D01*
X0202010Y0231982D01*
X0200692Y0233300D01*
X0202010Y0234618D01*
X0202376Y0235500D01*
X0210629Y0235500D01*
X0209761Y0234632D01*
X0209000Y0232795D01*
X0209000Y0230805D01*
X0209761Y0228968D01*
X0210700Y0228029D01*
X0210700Y0209144D01*
X0211202Y0207931D01*
X0212131Y0207002D01*
X0231000Y0188133D01*
X0231000Y0186805D01*
X0231292Y0186100D01*
X0213367Y0186100D01*
X0172842Y0226625D01*
X0173000Y0227007D01*
X0173000Y0229593D01*
X0172010Y0231982D01*
X0170692Y0233300D01*
X0172010Y0234618D01*
X0173000Y0237007D01*
X0173000Y0239593D01*
X0172010Y0241982D01*
X0170182Y0243810D01*
X0169861Y0243943D01*
X0170083Y0244105D01*
X0170695Y0244717D01*
X0171204Y0245417D01*
X0171597Y0246189D01*
X0171865Y0247012D01*
X0172000Y0247867D01*
X0172000Y0248100D01*
X0166700Y0248100D01*
X0166700Y0248500D01*
X0171896Y0247212D02*
X0172921Y0247212D01*
X0174519Y0245614D02*
X0171304Y0245614D01*
X0169960Y0244015D02*
X0176118Y0244015D01*
X0177716Y0242417D02*
X0171575Y0242417D01*
X0172492Y0240818D02*
X0179315Y0240818D01*
X0180913Y0239220D02*
X0173000Y0239220D01*
X0173000Y0237621D02*
X0182512Y0237621D01*
X0184110Y0236023D02*
X0172592Y0236023D01*
X0171817Y0234424D02*
X0185709Y0234424D01*
X0187307Y0232826D02*
X0171167Y0232826D01*
X0172323Y0231227D02*
X0188906Y0231227D01*
X0190015Y0229629D02*
X0172985Y0229629D01*
X0173000Y0228030D02*
X0190000Y0228030D01*
X0190238Y0226432D02*
X0173035Y0226432D01*
X0174634Y0224833D02*
X0190900Y0224833D01*
X0192373Y0223235D02*
X0176232Y0223235D01*
X0177831Y0221636D02*
X0210700Y0221636D01*
X0210700Y0220038D02*
X0179429Y0220038D01*
X0181028Y0218439D02*
X0210700Y0218439D01*
X0210700Y0216841D02*
X0182626Y0216841D01*
X0184225Y0215242D02*
X0210700Y0215242D01*
X0210700Y0213644D02*
X0185823Y0213644D01*
X0187422Y0212045D02*
X0210700Y0212045D01*
X0210700Y0210447D02*
X0189020Y0210447D01*
X0190619Y0208848D02*
X0210822Y0208848D01*
X0211883Y0207250D02*
X0192217Y0207250D01*
X0193816Y0205651D02*
X0213482Y0205651D01*
X0215080Y0204053D02*
X0195414Y0204053D01*
X0197013Y0202454D02*
X0216679Y0202454D01*
X0218277Y0200856D02*
X0198611Y0200856D01*
X0200210Y0199257D02*
X0219876Y0199257D01*
X0221475Y0197659D02*
X0201808Y0197659D01*
X0203407Y0196060D02*
X0223073Y0196060D01*
X0224672Y0194462D02*
X0205005Y0194462D01*
X0206604Y0192863D02*
X0226270Y0192863D01*
X0227869Y0191265D02*
X0208202Y0191265D01*
X0209801Y0189666D02*
X0229467Y0189666D01*
X0231000Y0188068D02*
X0211399Y0188068D01*
X0212998Y0186469D02*
X0231139Y0186469D01*
X0256429Y0220038D02*
X0276595Y0220038D01*
X0274997Y0221636D02*
X0254831Y0221636D01*
X0259627Y0223235D02*
X0273398Y0223235D01*
X0271800Y0224833D02*
X0261100Y0224833D01*
X0249000Y0227467D02*
X0246298Y0230169D01*
X0245369Y0231098D01*
X0244156Y0231600D01*
X0231169Y0231600D01*
X0231010Y0231982D01*
X0229692Y0233300D01*
X0231010Y0234618D01*
X0232000Y0237007D01*
X0232000Y0239593D01*
X0231010Y0241982D01*
X0229182Y0243810D01*
X0228861Y0243943D01*
X0229083Y0244105D01*
X0229695Y0244717D01*
X0230204Y0245417D01*
X0230597Y0246189D01*
X0230865Y0247012D01*
X0231000Y0247867D01*
X0231000Y0248100D01*
X0225700Y0248100D01*
X0225700Y0248500D01*
X0231000Y0248500D01*
X0231000Y0248733D01*
X0230865Y0249588D01*
X0230597Y0250411D01*
X0230204Y0251183D01*
X0229695Y0251883D01*
X0229083Y0252495D01*
X0228383Y0253004D01*
X0227611Y0253397D01*
X0227294Y0253500D01*
X0253706Y0253500D01*
X0253389Y0253397D01*
X0252617Y0253004D01*
X0251917Y0252495D01*
X0251305Y0251883D01*
X0250796Y0251183D01*
X0250403Y0250411D01*
X0250135Y0249588D01*
X0250000Y0248733D01*
X0250000Y0248500D01*
X0255300Y0248500D01*
X0255300Y0248100D01*
X0250000Y0248100D01*
X0250000Y0247867D01*
X0250135Y0247012D01*
X0250403Y0246189D01*
X0250796Y0245417D01*
X0251305Y0244717D01*
X0251917Y0244105D01*
X0252139Y0243943D01*
X0251818Y0243810D01*
X0249990Y0241982D01*
X0249000Y0239593D01*
X0249000Y0237007D01*
X0249990Y0234618D01*
X0251308Y0233300D01*
X0249990Y0231982D01*
X0249000Y0229593D01*
X0249000Y0227467D01*
X0249000Y0228030D02*
X0248437Y0228030D01*
X0249015Y0229629D02*
X0246838Y0229629D01*
X0245056Y0231227D02*
X0249677Y0231227D01*
X0250833Y0232826D02*
X0230167Y0232826D01*
X0230817Y0234424D02*
X0250183Y0234424D01*
X0249408Y0236023D02*
X0231592Y0236023D01*
X0232000Y0237621D02*
X0249000Y0237621D01*
X0249000Y0239220D02*
X0232000Y0239220D01*
X0231492Y0240818D02*
X0249508Y0240818D01*
X0250425Y0242417D02*
X0230575Y0242417D01*
X0228960Y0244015D02*
X0252040Y0244015D01*
X0250696Y0245614D02*
X0230304Y0245614D01*
X0230896Y0247212D02*
X0250104Y0247212D01*
X0250012Y0248811D02*
X0230988Y0248811D01*
X0230598Y0250409D02*
X0250402Y0250409D01*
X0251430Y0252008D02*
X0229570Y0252008D01*
X0225300Y0248500D02*
X0225300Y0248100D01*
X0220000Y0248100D01*
X0220000Y0247867D01*
X0220135Y0247012D01*
X0220403Y0246189D01*
X0220796Y0245417D01*
X0221305Y0244717D01*
X0221917Y0244105D01*
X0222139Y0243943D01*
X0221818Y0243810D01*
X0220108Y0242100D01*
X0201892Y0242100D01*
X0200182Y0243810D01*
X0199861Y0243943D01*
X0200083Y0244105D01*
X0200695Y0244717D01*
X0201204Y0245417D01*
X0201597Y0246189D01*
X0201865Y0247012D01*
X0202000Y0247867D01*
X0202000Y0248100D01*
X0196700Y0248100D01*
X0196700Y0248500D01*
X0202000Y0248500D01*
X0202000Y0248733D01*
X0201865Y0249588D01*
X0201597Y0250411D01*
X0201204Y0251183D01*
X0200695Y0251883D01*
X0200083Y0252495D01*
X0199383Y0253004D01*
X0198611Y0253397D01*
X0198294Y0253500D01*
X0223706Y0253500D01*
X0223389Y0253397D01*
X0222617Y0253004D01*
X0221917Y0252495D01*
X0221305Y0251883D01*
X0220796Y0251183D01*
X0220403Y0250411D01*
X0220135Y0249588D01*
X0220000Y0248733D01*
X0220000Y0248500D01*
X0225300Y0248500D01*
X0221430Y0252008D02*
X0200570Y0252008D01*
X0201598Y0250409D02*
X0220402Y0250409D01*
X0220012Y0248811D02*
X0201988Y0248811D01*
X0201896Y0247212D02*
X0220104Y0247212D01*
X0220696Y0245614D02*
X0201304Y0245614D01*
X0199960Y0244015D02*
X0222040Y0244015D01*
X0220425Y0242417D02*
X0201575Y0242417D01*
X0196300Y0248100D02*
X0191000Y0248100D01*
X0191000Y0247867D01*
X0191135Y0247012D01*
X0191403Y0246189D01*
X0191796Y0245417D01*
X0192305Y0244717D01*
X0192917Y0244105D01*
X0193139Y0243943D01*
X0192818Y0243810D01*
X0190990Y0241982D01*
X0190000Y0239593D01*
X0190000Y0239467D01*
X0175967Y0253500D01*
X0194706Y0253500D01*
X0194389Y0253397D01*
X0193617Y0253004D01*
X0192917Y0252495D01*
X0192305Y0251883D01*
X0191796Y0251183D01*
X0191403Y0250411D01*
X0191135Y0249588D01*
X0191000Y0248733D01*
X0191000Y0248500D01*
X0196300Y0248500D01*
X0196300Y0248100D01*
X0191696Y0245614D02*
X0183853Y0245614D01*
X0182254Y0247212D02*
X0191104Y0247212D01*
X0191012Y0248811D02*
X0180656Y0248811D01*
X0179057Y0250409D02*
X0191402Y0250409D01*
X0192430Y0252008D02*
X0177459Y0252008D01*
X0185451Y0244015D02*
X0193040Y0244015D01*
X0191425Y0242417D02*
X0187050Y0242417D01*
X0188648Y0240818D02*
X0190508Y0240818D01*
X0201817Y0234424D02*
X0209675Y0234424D01*
X0209013Y0232826D02*
X0201167Y0232826D01*
X0202323Y0231227D02*
X0209000Y0231227D01*
X0209487Y0229629D02*
X0202985Y0229629D01*
X0203000Y0228030D02*
X0210699Y0228030D01*
X0210700Y0226432D02*
X0202762Y0226432D01*
X0202100Y0224833D02*
X0210700Y0224833D01*
X0210700Y0223235D02*
X0200627Y0223235D01*
X0255700Y0248100D02*
X0255700Y0248500D01*
X0261000Y0248500D01*
X0261000Y0248733D01*
X0260865Y0249588D01*
X0260597Y0250411D01*
X0260204Y0251183D01*
X0259695Y0251883D01*
X0259083Y0252495D01*
X0258383Y0253004D01*
X0257611Y0253397D01*
X0257294Y0253500D01*
X0283706Y0253500D01*
X0283389Y0253397D01*
X0282617Y0253004D01*
X0281917Y0252495D01*
X0281305Y0251883D01*
X0280796Y0251183D01*
X0280403Y0250411D01*
X0280135Y0249588D01*
X0280000Y0248733D01*
X0280000Y0248500D01*
X0285300Y0248500D01*
X0285300Y0248100D01*
X0280000Y0248100D01*
X0280000Y0247867D01*
X0280135Y0247012D01*
X0280403Y0246189D01*
X0280796Y0245417D01*
X0281305Y0244717D01*
X0281917Y0244105D01*
X0282139Y0243943D01*
X0281818Y0243810D01*
X0280108Y0242100D01*
X0260892Y0242100D01*
X0259182Y0243810D01*
X0258861Y0243943D01*
X0259083Y0244105D01*
X0259695Y0244717D01*
X0260204Y0245417D01*
X0260597Y0246189D01*
X0260865Y0247012D01*
X0261000Y0247867D01*
X0261000Y0248100D01*
X0255700Y0248100D01*
X0260304Y0245614D02*
X0280696Y0245614D01*
X0280104Y0247212D02*
X0260896Y0247212D01*
X0260988Y0248811D02*
X0280012Y0248811D01*
X0280402Y0250409D02*
X0260598Y0250409D01*
X0259570Y0252008D02*
X0281430Y0252008D01*
X0282040Y0244015D02*
X0258960Y0244015D01*
X0260575Y0242417D02*
X0280425Y0242417D01*
X0288960Y0244015D02*
X0305040Y0244015D01*
X0304917Y0244105D02*
X0305617Y0243596D01*
X0306389Y0243203D01*
X0307212Y0242935D01*
X0308067Y0242800D01*
X0308300Y0242800D01*
X0308300Y0248100D01*
X0303000Y0248100D01*
X0303000Y0247867D01*
X0303135Y0247012D01*
X0303403Y0246189D01*
X0303796Y0245417D01*
X0304305Y0244717D01*
X0304917Y0244105D01*
X0303696Y0245614D02*
X0290304Y0245614D01*
X0290896Y0247212D02*
X0303104Y0247212D01*
X0303012Y0248811D02*
X0290988Y0248811D01*
X0290598Y0250409D02*
X0303402Y0250409D01*
X0304430Y0252008D02*
X0289570Y0252008D01*
X0290575Y0242417D02*
X0315200Y0242417D01*
X0315200Y0240818D02*
X0291492Y0240818D01*
X0292000Y0239220D02*
X0315200Y0239220D01*
X0312402Y0237621D02*
X0292000Y0237621D01*
X0291592Y0236023D02*
X0310804Y0236023D01*
X0310070Y0234424D02*
X0290817Y0234424D01*
X0290167Y0232826D02*
X0309607Y0232826D01*
X0309607Y0231227D02*
X0291323Y0231227D01*
X0291985Y0229629D02*
X0309970Y0229629D01*
X0310632Y0228030D02*
X0292000Y0228030D01*
X0291762Y0226432D02*
X0312162Y0226432D01*
X0321153Y0226432D02*
X0331847Y0226432D01*
X0330317Y0228030D02*
X0322683Y0228030D01*
X0323345Y0229629D02*
X0329655Y0229629D01*
X0329293Y0231227D02*
X0323707Y0231227D01*
X0323707Y0232826D02*
X0329293Y0232826D01*
X0329158Y0234424D02*
X0323245Y0234424D01*
X0322511Y0236023D02*
X0327559Y0236023D01*
X0325961Y0237621D02*
X0321800Y0237621D01*
X0321800Y0239220D02*
X0325200Y0239220D01*
X0325200Y0240818D02*
X0321800Y0240818D01*
X0321800Y0242417D02*
X0325200Y0242417D01*
X0323592Y0244015D02*
X0323408Y0244015D01*
X0313592Y0244015D02*
X0311960Y0244015D01*
X0308700Y0244015D02*
X0308300Y0244015D01*
X0308300Y0245614D02*
X0308700Y0245614D01*
X0308700Y0247212D02*
X0308300Y0247212D01*
X0291100Y0224833D02*
X0353900Y0224833D01*
X0353900Y0223235D02*
X0289627Y0223235D01*
X0285929Y0220038D02*
X0353900Y0220038D01*
X0353900Y0221636D02*
X0284331Y0221636D01*
X0287528Y0218439D02*
X0353900Y0218439D01*
X0353900Y0216841D02*
X0289126Y0216841D01*
X0293129Y0215242D02*
X0353900Y0215242D01*
X0353900Y0213644D02*
X0294441Y0213644D01*
X0295000Y0212045D02*
X0353900Y0212045D01*
X0353900Y0210447D02*
X0295000Y0210447D01*
X0294396Y0208848D02*
X0353900Y0208848D01*
X0353900Y0207250D02*
X0293021Y0207250D01*
X0286979Y0207250D02*
X0281915Y0207250D01*
X0282957Y0208848D02*
X0285604Y0208848D01*
X0285000Y0210447D02*
X0284476Y0210447D01*
X0284138Y0205651D02*
X0353900Y0205651D01*
X0353900Y0204053D02*
X0284935Y0204053D01*
X0285100Y0202454D02*
X0353900Y0202454D01*
X0353900Y0200856D02*
X0284684Y0200856D01*
X0285441Y0180075D02*
X0287255Y0180075D01*
X0285697Y0178476D02*
X0284137Y0178476D01*
X0284383Y0176878D02*
X0285035Y0176878D01*
X0320812Y0176878D02*
X0332188Y0176878D01*
X0330590Y0178476D02*
X0322410Y0178476D01*
X0323204Y0180075D02*
X0329796Y0180075D01*
X0329293Y0181673D02*
X0323707Y0181673D01*
X0323707Y0183272D02*
X0329293Y0183272D01*
X0329613Y0184870D02*
X0323387Y0184870D01*
X0322725Y0186469D02*
X0330275Y0186469D01*
X0331746Y0188068D02*
X0321254Y0188068D01*
X0340838Y0226432D02*
X0353900Y0226432D01*
X0353900Y0228030D02*
X0342368Y0228030D01*
X0343030Y0229629D02*
X0353900Y0229629D01*
X0353900Y0231227D02*
X0343393Y0231227D01*
X0343393Y0232826D02*
X0353900Y0232826D01*
X0353900Y0234424D02*
X0342930Y0234424D01*
X0342972Y0236023D02*
X0342196Y0236023D01*
X0349028Y0236023D02*
X0353900Y0236023D01*
X0353900Y0237621D02*
X0352789Y0237621D01*
X0353900Y0068179D02*
X0350013Y0068179D01*
X0352978Y0066581D02*
X0353900Y0066581D01*
D11*
X0174500Y0178300D03*
X0069500Y0210300D03*
X0069500Y0120300D03*
D12*
X0079500Y0119300D03*
X0089500Y0120300D03*
X0099500Y0119300D03*
X0109500Y0120300D03*
X0119500Y0119300D03*
X0129500Y0120300D03*
X0139500Y0119300D03*
X0174500Y0148300D03*
X0174500Y0158300D03*
X0174500Y0168300D03*
X0139500Y0209300D03*
X0129500Y0210300D03*
X0119500Y0209300D03*
X0109500Y0210300D03*
X0099500Y0209300D03*
X0089500Y0210300D03*
X0079500Y0209300D03*
X0075500Y0228300D03*
X0075500Y0238300D03*
X0075500Y0248300D03*
X0046000Y0248300D03*
X0046000Y0238300D03*
X0046000Y0228300D03*
X0106000Y0228300D03*
X0106000Y0238300D03*
X0106000Y0248300D03*
X0136000Y0248300D03*
X0136000Y0238300D03*
X0136000Y0228300D03*
X0166500Y0228300D03*
X0166500Y0238300D03*
X0166500Y0248300D03*
X0196500Y0248300D03*
X0196500Y0238300D03*
X0196500Y0228300D03*
X0225500Y0228300D03*
X0225500Y0238300D03*
X0225500Y0248300D03*
X0255500Y0248300D03*
X0255500Y0238300D03*
X0255500Y0228300D03*
X0285500Y0228300D03*
X0285500Y0238300D03*
X0285500Y0248300D03*
X0308500Y0248300D03*
X0318500Y0248300D03*
X0328500Y0248300D03*
X0047500Y0095300D03*
X0047500Y0085300D03*
D13*
X0181157Y0070950D02*
X0181157Y0063650D01*
X0200843Y0063650D02*
X0200843Y0070950D01*
X0220657Y0070950D02*
X0220657Y0063650D01*
X0240343Y0063650D02*
X0240343Y0070950D01*
X0331929Y0078115D02*
X0339229Y0078115D01*
X0339229Y0097800D02*
X0331929Y0097800D01*
X0331929Y0117485D02*
X0339229Y0117485D01*
D14*
X0339594Y0056300D02*
X0339596Y0056453D01*
X0339602Y0056607D01*
X0339612Y0056760D01*
X0339626Y0056912D01*
X0339644Y0057065D01*
X0339666Y0057216D01*
X0339691Y0057367D01*
X0339721Y0057518D01*
X0339755Y0057668D01*
X0339792Y0057816D01*
X0339833Y0057964D01*
X0339878Y0058110D01*
X0339927Y0058256D01*
X0339980Y0058400D01*
X0340036Y0058542D01*
X0340096Y0058683D01*
X0340160Y0058823D01*
X0340227Y0058961D01*
X0340298Y0059097D01*
X0340373Y0059231D01*
X0340450Y0059363D01*
X0340532Y0059493D01*
X0340616Y0059621D01*
X0340704Y0059747D01*
X0340795Y0059870D01*
X0340889Y0059991D01*
X0340987Y0060109D01*
X0341087Y0060225D01*
X0341191Y0060338D01*
X0341297Y0060449D01*
X0341406Y0060557D01*
X0341518Y0060662D01*
X0341632Y0060763D01*
X0341750Y0060862D01*
X0341869Y0060958D01*
X0341991Y0061051D01*
X0342116Y0061140D01*
X0342243Y0061227D01*
X0342372Y0061309D01*
X0342503Y0061389D01*
X0342636Y0061465D01*
X0342771Y0061538D01*
X0342908Y0061607D01*
X0343047Y0061672D01*
X0343187Y0061734D01*
X0343329Y0061792D01*
X0343472Y0061847D01*
X0343617Y0061898D01*
X0343763Y0061945D01*
X0343910Y0061988D01*
X0344058Y0062027D01*
X0344207Y0062063D01*
X0344357Y0062094D01*
X0344508Y0062122D01*
X0344659Y0062146D01*
X0344812Y0062166D01*
X0344964Y0062182D01*
X0345117Y0062194D01*
X0345270Y0062202D01*
X0345423Y0062206D01*
X0345577Y0062206D01*
X0345730Y0062202D01*
X0345883Y0062194D01*
X0346036Y0062182D01*
X0346188Y0062166D01*
X0346341Y0062146D01*
X0346492Y0062122D01*
X0346643Y0062094D01*
X0346793Y0062063D01*
X0346942Y0062027D01*
X0347090Y0061988D01*
X0347237Y0061945D01*
X0347383Y0061898D01*
X0347528Y0061847D01*
X0347671Y0061792D01*
X0347813Y0061734D01*
X0347953Y0061672D01*
X0348092Y0061607D01*
X0348229Y0061538D01*
X0348364Y0061465D01*
X0348497Y0061389D01*
X0348628Y0061309D01*
X0348757Y0061227D01*
X0348884Y0061140D01*
X0349009Y0061051D01*
X0349131Y0060958D01*
X0349250Y0060862D01*
X0349368Y0060763D01*
X0349482Y0060662D01*
X0349594Y0060557D01*
X0349703Y0060449D01*
X0349809Y0060338D01*
X0349913Y0060225D01*
X0350013Y0060109D01*
X0350111Y0059991D01*
X0350205Y0059870D01*
X0350296Y0059747D01*
X0350384Y0059621D01*
X0350468Y0059493D01*
X0350550Y0059363D01*
X0350627Y0059231D01*
X0350702Y0059097D01*
X0350773Y0058961D01*
X0350840Y0058823D01*
X0350904Y0058683D01*
X0350964Y0058542D01*
X0351020Y0058400D01*
X0351073Y0058256D01*
X0351122Y0058110D01*
X0351167Y0057964D01*
X0351208Y0057816D01*
X0351245Y0057668D01*
X0351279Y0057518D01*
X0351309Y0057367D01*
X0351334Y0057216D01*
X0351356Y0057065D01*
X0351374Y0056912D01*
X0351388Y0056760D01*
X0351398Y0056607D01*
X0351404Y0056453D01*
X0351406Y0056300D01*
X0351404Y0056147D01*
X0351398Y0055993D01*
X0351388Y0055840D01*
X0351374Y0055688D01*
X0351356Y0055535D01*
X0351334Y0055384D01*
X0351309Y0055233D01*
X0351279Y0055082D01*
X0351245Y0054932D01*
X0351208Y0054784D01*
X0351167Y0054636D01*
X0351122Y0054490D01*
X0351073Y0054344D01*
X0351020Y0054200D01*
X0350964Y0054058D01*
X0350904Y0053917D01*
X0350840Y0053777D01*
X0350773Y0053639D01*
X0350702Y0053503D01*
X0350627Y0053369D01*
X0350550Y0053237D01*
X0350468Y0053107D01*
X0350384Y0052979D01*
X0350296Y0052853D01*
X0350205Y0052730D01*
X0350111Y0052609D01*
X0350013Y0052491D01*
X0349913Y0052375D01*
X0349809Y0052262D01*
X0349703Y0052151D01*
X0349594Y0052043D01*
X0349482Y0051938D01*
X0349368Y0051837D01*
X0349250Y0051738D01*
X0349131Y0051642D01*
X0349009Y0051549D01*
X0348884Y0051460D01*
X0348757Y0051373D01*
X0348628Y0051291D01*
X0348497Y0051211D01*
X0348364Y0051135D01*
X0348229Y0051062D01*
X0348092Y0050993D01*
X0347953Y0050928D01*
X0347813Y0050866D01*
X0347671Y0050808D01*
X0347528Y0050753D01*
X0347383Y0050702D01*
X0347237Y0050655D01*
X0347090Y0050612D01*
X0346942Y0050573D01*
X0346793Y0050537D01*
X0346643Y0050506D01*
X0346492Y0050478D01*
X0346341Y0050454D01*
X0346188Y0050434D01*
X0346036Y0050418D01*
X0345883Y0050406D01*
X0345730Y0050398D01*
X0345577Y0050394D01*
X0345423Y0050394D01*
X0345270Y0050398D01*
X0345117Y0050406D01*
X0344964Y0050418D01*
X0344812Y0050434D01*
X0344659Y0050454D01*
X0344508Y0050478D01*
X0344357Y0050506D01*
X0344207Y0050537D01*
X0344058Y0050573D01*
X0343910Y0050612D01*
X0343763Y0050655D01*
X0343617Y0050702D01*
X0343472Y0050753D01*
X0343329Y0050808D01*
X0343187Y0050866D01*
X0343047Y0050928D01*
X0342908Y0050993D01*
X0342771Y0051062D01*
X0342636Y0051135D01*
X0342503Y0051211D01*
X0342372Y0051291D01*
X0342243Y0051373D01*
X0342116Y0051460D01*
X0341991Y0051549D01*
X0341869Y0051642D01*
X0341750Y0051738D01*
X0341632Y0051837D01*
X0341518Y0051938D01*
X0341406Y0052043D01*
X0341297Y0052151D01*
X0341191Y0052262D01*
X0341087Y0052375D01*
X0340987Y0052491D01*
X0340889Y0052609D01*
X0340795Y0052730D01*
X0340704Y0052853D01*
X0340616Y0052979D01*
X0340532Y0053107D01*
X0340450Y0053237D01*
X0340373Y0053369D01*
X0340298Y0053503D01*
X0340227Y0053639D01*
X0340160Y0053777D01*
X0340096Y0053917D01*
X0340036Y0054058D01*
X0339980Y0054200D01*
X0339927Y0054344D01*
X0339878Y0054490D01*
X0339833Y0054636D01*
X0339792Y0054784D01*
X0339755Y0054932D01*
X0339721Y0055082D01*
X0339691Y0055233D01*
X0339666Y0055384D01*
X0339644Y0055535D01*
X0339626Y0055688D01*
X0339612Y0055840D01*
X0339602Y0055993D01*
X0339596Y0056147D01*
X0339594Y0056300D01*
X0340094Y0248300D02*
X0340096Y0248453D01*
X0340102Y0248607D01*
X0340112Y0248760D01*
X0340126Y0248912D01*
X0340144Y0249065D01*
X0340166Y0249216D01*
X0340191Y0249367D01*
X0340221Y0249518D01*
X0340255Y0249668D01*
X0340292Y0249816D01*
X0340333Y0249964D01*
X0340378Y0250110D01*
X0340427Y0250256D01*
X0340480Y0250400D01*
X0340536Y0250542D01*
X0340596Y0250683D01*
X0340660Y0250823D01*
X0340727Y0250961D01*
X0340798Y0251097D01*
X0340873Y0251231D01*
X0340950Y0251363D01*
X0341032Y0251493D01*
X0341116Y0251621D01*
X0341204Y0251747D01*
X0341295Y0251870D01*
X0341389Y0251991D01*
X0341487Y0252109D01*
X0341587Y0252225D01*
X0341691Y0252338D01*
X0341797Y0252449D01*
X0341906Y0252557D01*
X0342018Y0252662D01*
X0342132Y0252763D01*
X0342250Y0252862D01*
X0342369Y0252958D01*
X0342491Y0253051D01*
X0342616Y0253140D01*
X0342743Y0253227D01*
X0342872Y0253309D01*
X0343003Y0253389D01*
X0343136Y0253465D01*
X0343271Y0253538D01*
X0343408Y0253607D01*
X0343547Y0253672D01*
X0343687Y0253734D01*
X0343829Y0253792D01*
X0343972Y0253847D01*
X0344117Y0253898D01*
X0344263Y0253945D01*
X0344410Y0253988D01*
X0344558Y0254027D01*
X0344707Y0254063D01*
X0344857Y0254094D01*
X0345008Y0254122D01*
X0345159Y0254146D01*
X0345312Y0254166D01*
X0345464Y0254182D01*
X0345617Y0254194D01*
X0345770Y0254202D01*
X0345923Y0254206D01*
X0346077Y0254206D01*
X0346230Y0254202D01*
X0346383Y0254194D01*
X0346536Y0254182D01*
X0346688Y0254166D01*
X0346841Y0254146D01*
X0346992Y0254122D01*
X0347143Y0254094D01*
X0347293Y0254063D01*
X0347442Y0254027D01*
X0347590Y0253988D01*
X0347737Y0253945D01*
X0347883Y0253898D01*
X0348028Y0253847D01*
X0348171Y0253792D01*
X0348313Y0253734D01*
X0348453Y0253672D01*
X0348592Y0253607D01*
X0348729Y0253538D01*
X0348864Y0253465D01*
X0348997Y0253389D01*
X0349128Y0253309D01*
X0349257Y0253227D01*
X0349384Y0253140D01*
X0349509Y0253051D01*
X0349631Y0252958D01*
X0349750Y0252862D01*
X0349868Y0252763D01*
X0349982Y0252662D01*
X0350094Y0252557D01*
X0350203Y0252449D01*
X0350309Y0252338D01*
X0350413Y0252225D01*
X0350513Y0252109D01*
X0350611Y0251991D01*
X0350705Y0251870D01*
X0350796Y0251747D01*
X0350884Y0251621D01*
X0350968Y0251493D01*
X0351050Y0251363D01*
X0351127Y0251231D01*
X0351202Y0251097D01*
X0351273Y0250961D01*
X0351340Y0250823D01*
X0351404Y0250683D01*
X0351464Y0250542D01*
X0351520Y0250400D01*
X0351573Y0250256D01*
X0351622Y0250110D01*
X0351667Y0249964D01*
X0351708Y0249816D01*
X0351745Y0249668D01*
X0351779Y0249518D01*
X0351809Y0249367D01*
X0351834Y0249216D01*
X0351856Y0249065D01*
X0351874Y0248912D01*
X0351888Y0248760D01*
X0351898Y0248607D01*
X0351904Y0248453D01*
X0351906Y0248300D01*
X0351904Y0248147D01*
X0351898Y0247993D01*
X0351888Y0247840D01*
X0351874Y0247688D01*
X0351856Y0247535D01*
X0351834Y0247384D01*
X0351809Y0247233D01*
X0351779Y0247082D01*
X0351745Y0246932D01*
X0351708Y0246784D01*
X0351667Y0246636D01*
X0351622Y0246490D01*
X0351573Y0246344D01*
X0351520Y0246200D01*
X0351464Y0246058D01*
X0351404Y0245917D01*
X0351340Y0245777D01*
X0351273Y0245639D01*
X0351202Y0245503D01*
X0351127Y0245369D01*
X0351050Y0245237D01*
X0350968Y0245107D01*
X0350884Y0244979D01*
X0350796Y0244853D01*
X0350705Y0244730D01*
X0350611Y0244609D01*
X0350513Y0244491D01*
X0350413Y0244375D01*
X0350309Y0244262D01*
X0350203Y0244151D01*
X0350094Y0244043D01*
X0349982Y0243938D01*
X0349868Y0243837D01*
X0349750Y0243738D01*
X0349631Y0243642D01*
X0349509Y0243549D01*
X0349384Y0243460D01*
X0349257Y0243373D01*
X0349128Y0243291D01*
X0348997Y0243211D01*
X0348864Y0243135D01*
X0348729Y0243062D01*
X0348592Y0242993D01*
X0348453Y0242928D01*
X0348313Y0242866D01*
X0348171Y0242808D01*
X0348028Y0242753D01*
X0347883Y0242702D01*
X0347737Y0242655D01*
X0347590Y0242612D01*
X0347442Y0242573D01*
X0347293Y0242537D01*
X0347143Y0242506D01*
X0346992Y0242478D01*
X0346841Y0242454D01*
X0346688Y0242434D01*
X0346536Y0242418D01*
X0346383Y0242406D01*
X0346230Y0242398D01*
X0346077Y0242394D01*
X0345923Y0242394D01*
X0345770Y0242398D01*
X0345617Y0242406D01*
X0345464Y0242418D01*
X0345312Y0242434D01*
X0345159Y0242454D01*
X0345008Y0242478D01*
X0344857Y0242506D01*
X0344707Y0242537D01*
X0344558Y0242573D01*
X0344410Y0242612D01*
X0344263Y0242655D01*
X0344117Y0242702D01*
X0343972Y0242753D01*
X0343829Y0242808D01*
X0343687Y0242866D01*
X0343547Y0242928D01*
X0343408Y0242993D01*
X0343271Y0243062D01*
X0343136Y0243135D01*
X0343003Y0243211D01*
X0342872Y0243291D01*
X0342743Y0243373D01*
X0342616Y0243460D01*
X0342491Y0243549D01*
X0342369Y0243642D01*
X0342250Y0243738D01*
X0342132Y0243837D01*
X0342018Y0243938D01*
X0341906Y0244043D01*
X0341797Y0244151D01*
X0341691Y0244262D01*
X0341587Y0244375D01*
X0341487Y0244491D01*
X0341389Y0244609D01*
X0341295Y0244730D01*
X0341204Y0244853D01*
X0341116Y0244979D01*
X0341032Y0245107D01*
X0340950Y0245237D01*
X0340873Y0245369D01*
X0340798Y0245503D01*
X0340727Y0245639D01*
X0340660Y0245777D01*
X0340596Y0245917D01*
X0340536Y0246058D01*
X0340480Y0246200D01*
X0340427Y0246344D01*
X0340378Y0246490D01*
X0340333Y0246636D01*
X0340292Y0246784D01*
X0340255Y0246932D01*
X0340221Y0247082D01*
X0340191Y0247233D01*
X0340166Y0247384D01*
X0340144Y0247535D01*
X0340126Y0247688D01*
X0340112Y0247840D01*
X0340102Y0247993D01*
X0340096Y0248147D01*
X0340094Y0248300D01*
X0040594Y0178300D02*
X0040596Y0178453D01*
X0040602Y0178607D01*
X0040612Y0178760D01*
X0040626Y0178912D01*
X0040644Y0179065D01*
X0040666Y0179216D01*
X0040691Y0179367D01*
X0040721Y0179518D01*
X0040755Y0179668D01*
X0040792Y0179816D01*
X0040833Y0179964D01*
X0040878Y0180110D01*
X0040927Y0180256D01*
X0040980Y0180400D01*
X0041036Y0180542D01*
X0041096Y0180683D01*
X0041160Y0180823D01*
X0041227Y0180961D01*
X0041298Y0181097D01*
X0041373Y0181231D01*
X0041450Y0181363D01*
X0041532Y0181493D01*
X0041616Y0181621D01*
X0041704Y0181747D01*
X0041795Y0181870D01*
X0041889Y0181991D01*
X0041987Y0182109D01*
X0042087Y0182225D01*
X0042191Y0182338D01*
X0042297Y0182449D01*
X0042406Y0182557D01*
X0042518Y0182662D01*
X0042632Y0182763D01*
X0042750Y0182862D01*
X0042869Y0182958D01*
X0042991Y0183051D01*
X0043116Y0183140D01*
X0043243Y0183227D01*
X0043372Y0183309D01*
X0043503Y0183389D01*
X0043636Y0183465D01*
X0043771Y0183538D01*
X0043908Y0183607D01*
X0044047Y0183672D01*
X0044187Y0183734D01*
X0044329Y0183792D01*
X0044472Y0183847D01*
X0044617Y0183898D01*
X0044763Y0183945D01*
X0044910Y0183988D01*
X0045058Y0184027D01*
X0045207Y0184063D01*
X0045357Y0184094D01*
X0045508Y0184122D01*
X0045659Y0184146D01*
X0045812Y0184166D01*
X0045964Y0184182D01*
X0046117Y0184194D01*
X0046270Y0184202D01*
X0046423Y0184206D01*
X0046577Y0184206D01*
X0046730Y0184202D01*
X0046883Y0184194D01*
X0047036Y0184182D01*
X0047188Y0184166D01*
X0047341Y0184146D01*
X0047492Y0184122D01*
X0047643Y0184094D01*
X0047793Y0184063D01*
X0047942Y0184027D01*
X0048090Y0183988D01*
X0048237Y0183945D01*
X0048383Y0183898D01*
X0048528Y0183847D01*
X0048671Y0183792D01*
X0048813Y0183734D01*
X0048953Y0183672D01*
X0049092Y0183607D01*
X0049229Y0183538D01*
X0049364Y0183465D01*
X0049497Y0183389D01*
X0049628Y0183309D01*
X0049757Y0183227D01*
X0049884Y0183140D01*
X0050009Y0183051D01*
X0050131Y0182958D01*
X0050250Y0182862D01*
X0050368Y0182763D01*
X0050482Y0182662D01*
X0050594Y0182557D01*
X0050703Y0182449D01*
X0050809Y0182338D01*
X0050913Y0182225D01*
X0051013Y0182109D01*
X0051111Y0181991D01*
X0051205Y0181870D01*
X0051296Y0181747D01*
X0051384Y0181621D01*
X0051468Y0181493D01*
X0051550Y0181363D01*
X0051627Y0181231D01*
X0051702Y0181097D01*
X0051773Y0180961D01*
X0051840Y0180823D01*
X0051904Y0180683D01*
X0051964Y0180542D01*
X0052020Y0180400D01*
X0052073Y0180256D01*
X0052122Y0180110D01*
X0052167Y0179964D01*
X0052208Y0179816D01*
X0052245Y0179668D01*
X0052279Y0179518D01*
X0052309Y0179367D01*
X0052334Y0179216D01*
X0052356Y0179065D01*
X0052374Y0178912D01*
X0052388Y0178760D01*
X0052398Y0178607D01*
X0052404Y0178453D01*
X0052406Y0178300D01*
X0052404Y0178147D01*
X0052398Y0177993D01*
X0052388Y0177840D01*
X0052374Y0177688D01*
X0052356Y0177535D01*
X0052334Y0177384D01*
X0052309Y0177233D01*
X0052279Y0177082D01*
X0052245Y0176932D01*
X0052208Y0176784D01*
X0052167Y0176636D01*
X0052122Y0176490D01*
X0052073Y0176344D01*
X0052020Y0176200D01*
X0051964Y0176058D01*
X0051904Y0175917D01*
X0051840Y0175777D01*
X0051773Y0175639D01*
X0051702Y0175503D01*
X0051627Y0175369D01*
X0051550Y0175237D01*
X0051468Y0175107D01*
X0051384Y0174979D01*
X0051296Y0174853D01*
X0051205Y0174730D01*
X0051111Y0174609D01*
X0051013Y0174491D01*
X0050913Y0174375D01*
X0050809Y0174262D01*
X0050703Y0174151D01*
X0050594Y0174043D01*
X0050482Y0173938D01*
X0050368Y0173837D01*
X0050250Y0173738D01*
X0050131Y0173642D01*
X0050009Y0173549D01*
X0049884Y0173460D01*
X0049757Y0173373D01*
X0049628Y0173291D01*
X0049497Y0173211D01*
X0049364Y0173135D01*
X0049229Y0173062D01*
X0049092Y0172993D01*
X0048953Y0172928D01*
X0048813Y0172866D01*
X0048671Y0172808D01*
X0048528Y0172753D01*
X0048383Y0172702D01*
X0048237Y0172655D01*
X0048090Y0172612D01*
X0047942Y0172573D01*
X0047793Y0172537D01*
X0047643Y0172506D01*
X0047492Y0172478D01*
X0047341Y0172454D01*
X0047188Y0172434D01*
X0047036Y0172418D01*
X0046883Y0172406D01*
X0046730Y0172398D01*
X0046577Y0172394D01*
X0046423Y0172394D01*
X0046270Y0172398D01*
X0046117Y0172406D01*
X0045964Y0172418D01*
X0045812Y0172434D01*
X0045659Y0172454D01*
X0045508Y0172478D01*
X0045357Y0172506D01*
X0045207Y0172537D01*
X0045058Y0172573D01*
X0044910Y0172612D01*
X0044763Y0172655D01*
X0044617Y0172702D01*
X0044472Y0172753D01*
X0044329Y0172808D01*
X0044187Y0172866D01*
X0044047Y0172928D01*
X0043908Y0172993D01*
X0043771Y0173062D01*
X0043636Y0173135D01*
X0043503Y0173211D01*
X0043372Y0173291D01*
X0043243Y0173373D01*
X0043116Y0173460D01*
X0042991Y0173549D01*
X0042869Y0173642D01*
X0042750Y0173738D01*
X0042632Y0173837D01*
X0042518Y0173938D01*
X0042406Y0174043D01*
X0042297Y0174151D01*
X0042191Y0174262D01*
X0042087Y0174375D01*
X0041987Y0174491D01*
X0041889Y0174609D01*
X0041795Y0174730D01*
X0041704Y0174853D01*
X0041616Y0174979D01*
X0041532Y0175107D01*
X0041450Y0175237D01*
X0041373Y0175369D01*
X0041298Y0175503D01*
X0041227Y0175639D01*
X0041160Y0175777D01*
X0041096Y0175917D01*
X0041036Y0176058D01*
X0040980Y0176200D01*
X0040927Y0176344D01*
X0040878Y0176490D01*
X0040833Y0176636D01*
X0040792Y0176784D01*
X0040755Y0176932D01*
X0040721Y0177082D01*
X0040691Y0177233D01*
X0040666Y0177384D01*
X0040644Y0177535D01*
X0040626Y0177688D01*
X0040612Y0177840D01*
X0040602Y0177993D01*
X0040596Y0178147D01*
X0040594Y0178300D01*
X0040094Y0056300D02*
X0040096Y0056453D01*
X0040102Y0056607D01*
X0040112Y0056760D01*
X0040126Y0056912D01*
X0040144Y0057065D01*
X0040166Y0057216D01*
X0040191Y0057367D01*
X0040221Y0057518D01*
X0040255Y0057668D01*
X0040292Y0057816D01*
X0040333Y0057964D01*
X0040378Y0058110D01*
X0040427Y0058256D01*
X0040480Y0058400D01*
X0040536Y0058542D01*
X0040596Y0058683D01*
X0040660Y0058823D01*
X0040727Y0058961D01*
X0040798Y0059097D01*
X0040873Y0059231D01*
X0040950Y0059363D01*
X0041032Y0059493D01*
X0041116Y0059621D01*
X0041204Y0059747D01*
X0041295Y0059870D01*
X0041389Y0059991D01*
X0041487Y0060109D01*
X0041587Y0060225D01*
X0041691Y0060338D01*
X0041797Y0060449D01*
X0041906Y0060557D01*
X0042018Y0060662D01*
X0042132Y0060763D01*
X0042250Y0060862D01*
X0042369Y0060958D01*
X0042491Y0061051D01*
X0042616Y0061140D01*
X0042743Y0061227D01*
X0042872Y0061309D01*
X0043003Y0061389D01*
X0043136Y0061465D01*
X0043271Y0061538D01*
X0043408Y0061607D01*
X0043547Y0061672D01*
X0043687Y0061734D01*
X0043829Y0061792D01*
X0043972Y0061847D01*
X0044117Y0061898D01*
X0044263Y0061945D01*
X0044410Y0061988D01*
X0044558Y0062027D01*
X0044707Y0062063D01*
X0044857Y0062094D01*
X0045008Y0062122D01*
X0045159Y0062146D01*
X0045312Y0062166D01*
X0045464Y0062182D01*
X0045617Y0062194D01*
X0045770Y0062202D01*
X0045923Y0062206D01*
X0046077Y0062206D01*
X0046230Y0062202D01*
X0046383Y0062194D01*
X0046536Y0062182D01*
X0046688Y0062166D01*
X0046841Y0062146D01*
X0046992Y0062122D01*
X0047143Y0062094D01*
X0047293Y0062063D01*
X0047442Y0062027D01*
X0047590Y0061988D01*
X0047737Y0061945D01*
X0047883Y0061898D01*
X0048028Y0061847D01*
X0048171Y0061792D01*
X0048313Y0061734D01*
X0048453Y0061672D01*
X0048592Y0061607D01*
X0048729Y0061538D01*
X0048864Y0061465D01*
X0048997Y0061389D01*
X0049128Y0061309D01*
X0049257Y0061227D01*
X0049384Y0061140D01*
X0049509Y0061051D01*
X0049631Y0060958D01*
X0049750Y0060862D01*
X0049868Y0060763D01*
X0049982Y0060662D01*
X0050094Y0060557D01*
X0050203Y0060449D01*
X0050309Y0060338D01*
X0050413Y0060225D01*
X0050513Y0060109D01*
X0050611Y0059991D01*
X0050705Y0059870D01*
X0050796Y0059747D01*
X0050884Y0059621D01*
X0050968Y0059493D01*
X0051050Y0059363D01*
X0051127Y0059231D01*
X0051202Y0059097D01*
X0051273Y0058961D01*
X0051340Y0058823D01*
X0051404Y0058683D01*
X0051464Y0058542D01*
X0051520Y0058400D01*
X0051573Y0058256D01*
X0051622Y0058110D01*
X0051667Y0057964D01*
X0051708Y0057816D01*
X0051745Y0057668D01*
X0051779Y0057518D01*
X0051809Y0057367D01*
X0051834Y0057216D01*
X0051856Y0057065D01*
X0051874Y0056912D01*
X0051888Y0056760D01*
X0051898Y0056607D01*
X0051904Y0056453D01*
X0051906Y0056300D01*
X0051904Y0056147D01*
X0051898Y0055993D01*
X0051888Y0055840D01*
X0051874Y0055688D01*
X0051856Y0055535D01*
X0051834Y0055384D01*
X0051809Y0055233D01*
X0051779Y0055082D01*
X0051745Y0054932D01*
X0051708Y0054784D01*
X0051667Y0054636D01*
X0051622Y0054490D01*
X0051573Y0054344D01*
X0051520Y0054200D01*
X0051464Y0054058D01*
X0051404Y0053917D01*
X0051340Y0053777D01*
X0051273Y0053639D01*
X0051202Y0053503D01*
X0051127Y0053369D01*
X0051050Y0053237D01*
X0050968Y0053107D01*
X0050884Y0052979D01*
X0050796Y0052853D01*
X0050705Y0052730D01*
X0050611Y0052609D01*
X0050513Y0052491D01*
X0050413Y0052375D01*
X0050309Y0052262D01*
X0050203Y0052151D01*
X0050094Y0052043D01*
X0049982Y0051938D01*
X0049868Y0051837D01*
X0049750Y0051738D01*
X0049631Y0051642D01*
X0049509Y0051549D01*
X0049384Y0051460D01*
X0049257Y0051373D01*
X0049128Y0051291D01*
X0048997Y0051211D01*
X0048864Y0051135D01*
X0048729Y0051062D01*
X0048592Y0050993D01*
X0048453Y0050928D01*
X0048313Y0050866D01*
X0048171Y0050808D01*
X0048028Y0050753D01*
X0047883Y0050702D01*
X0047737Y0050655D01*
X0047590Y0050612D01*
X0047442Y0050573D01*
X0047293Y0050537D01*
X0047143Y0050506D01*
X0046992Y0050478D01*
X0046841Y0050454D01*
X0046688Y0050434D01*
X0046536Y0050418D01*
X0046383Y0050406D01*
X0046230Y0050398D01*
X0046077Y0050394D01*
X0045923Y0050394D01*
X0045770Y0050398D01*
X0045617Y0050406D01*
X0045464Y0050418D01*
X0045312Y0050434D01*
X0045159Y0050454D01*
X0045008Y0050478D01*
X0044857Y0050506D01*
X0044707Y0050537D01*
X0044558Y0050573D01*
X0044410Y0050612D01*
X0044263Y0050655D01*
X0044117Y0050702D01*
X0043972Y0050753D01*
X0043829Y0050808D01*
X0043687Y0050866D01*
X0043547Y0050928D01*
X0043408Y0050993D01*
X0043271Y0051062D01*
X0043136Y0051135D01*
X0043003Y0051211D01*
X0042872Y0051291D01*
X0042743Y0051373D01*
X0042616Y0051460D01*
X0042491Y0051549D01*
X0042369Y0051642D01*
X0042250Y0051738D01*
X0042132Y0051837D01*
X0042018Y0051938D01*
X0041906Y0052043D01*
X0041797Y0052151D01*
X0041691Y0052262D01*
X0041587Y0052375D01*
X0041487Y0052491D01*
X0041389Y0052609D01*
X0041295Y0052730D01*
X0041204Y0052853D01*
X0041116Y0052979D01*
X0041032Y0053107D01*
X0040950Y0053237D01*
X0040873Y0053369D01*
X0040798Y0053503D01*
X0040727Y0053639D01*
X0040660Y0053777D01*
X0040596Y0053917D01*
X0040536Y0054058D01*
X0040480Y0054200D01*
X0040427Y0054344D01*
X0040378Y0054490D01*
X0040333Y0054636D01*
X0040292Y0054784D01*
X0040255Y0054932D01*
X0040221Y0055082D01*
X0040191Y0055233D01*
X0040166Y0055384D01*
X0040144Y0055535D01*
X0040126Y0055688D01*
X0040112Y0055840D01*
X0040102Y0055993D01*
X0040096Y0056147D01*
X0040094Y0056300D01*
D15*
X0347500Y0138800D03*
X0347500Y0148800D03*
X0347500Y0162300D03*
X0347500Y0172300D03*
D16*
X0280400Y0172800D02*
X0274600Y0172800D01*
X0274600Y0182800D02*
X0280400Y0182800D01*
X0280400Y0192800D02*
X0274600Y0192800D01*
X0274600Y0202800D02*
X0280400Y0202800D01*
X0280400Y0212800D02*
X0274600Y0212800D01*
X0250400Y0212800D02*
X0244600Y0212800D01*
X0244600Y0202800D02*
X0250400Y0202800D01*
X0250400Y0192800D02*
X0244600Y0192800D01*
X0244600Y0182800D02*
X0250400Y0182800D01*
X0250400Y0172800D02*
X0244600Y0172800D01*
X0244600Y0162800D02*
X0250400Y0162800D01*
X0250400Y0152800D02*
X0244600Y0152800D01*
X0244600Y0142800D02*
X0250400Y0142800D01*
X0274600Y0142800D02*
X0280400Y0142800D01*
X0280400Y0152800D02*
X0274600Y0152800D01*
X0274600Y0162800D02*
X0280400Y0162800D01*
D17*
X0316657Y0182694D03*
X0336343Y0182694D03*
X0336343Y0231906D03*
X0316657Y0231906D03*
D18*
X0307122Y0109206D03*
X0259091Y0109206D03*
X0259878Y0061174D03*
X0283500Y0053300D03*
X0307122Y0061174D03*
D19*
X0093504Y0085426D03*
X0075000Y0097237D03*
X0075000Y0073615D03*
D20*
X0057000Y0092300D02*
X0057000Y0126386D01*
X0057293Y0127093D02*
X0139500Y0209300D01*
X0150000Y0217300D02*
X0154500Y0212800D01*
X0150000Y0217300D02*
X0106000Y0217300D01*
X0099500Y0210800D01*
X0099500Y0209300D01*
X0084500Y0214300D02*
X0084500Y0250800D01*
X0090500Y0256800D01*
X0311000Y0256800D01*
X0318500Y0249300D01*
X0318500Y0248300D01*
X0318500Y0233749D01*
X0316657Y0231906D01*
X0328500Y0239749D02*
X0336343Y0231906D01*
X0328500Y0239749D02*
X0328500Y0248300D01*
X0285500Y0238300D02*
X0285000Y0238800D01*
X0256000Y0238800D01*
X0255500Y0238300D01*
X0255500Y0228300D02*
X0273000Y0228300D01*
X0290000Y0211300D01*
X0283500Y0192800D02*
X0277500Y0192800D01*
X0283500Y0192800D02*
X0302500Y0173800D01*
X0307500Y0173800D01*
X0346000Y0173800D01*
X0347500Y0172300D01*
X0315500Y0127800D02*
X0293000Y0127800D01*
X0277500Y0142800D02*
X0257000Y0142800D01*
X0252000Y0147800D01*
X0235500Y0147800D01*
X0158500Y0224800D01*
X0158500Y0251300D01*
X0162000Y0254800D01*
X0170000Y0254800D01*
X0196500Y0228300D01*
X0196500Y0238300D02*
X0197000Y0238800D01*
X0225000Y0238800D01*
X0225500Y0238300D01*
X0225500Y0248300D02*
X0225000Y0248800D01*
X0197000Y0248800D01*
X0196500Y0248300D01*
X0214000Y0231800D02*
X0214000Y0209800D01*
X0236000Y0187800D01*
X0235500Y0197800D02*
X0252000Y0197800D01*
X0257000Y0192800D01*
X0257000Y0182800D01*
X0277000Y0162800D01*
X0277500Y0162800D01*
X0286500Y0161300D02*
X0278000Y0152800D01*
X0277500Y0152800D01*
X0286500Y0161300D02*
X0286500Y0171300D01*
X0290000Y0174800D01*
X0290000Y0175800D01*
X0277500Y0182800D02*
X0274500Y0182800D01*
X0257000Y0200300D01*
X0257000Y0214800D01*
X0243500Y0228300D01*
X0225500Y0228300D01*
X0212000Y0182800D02*
X0166500Y0228300D01*
X0136000Y0238300D02*
X0136000Y0238800D01*
X0106000Y0238800D01*
X0106000Y0238300D01*
X0106000Y0248300D02*
X0106000Y0248800D01*
X0136000Y0248800D01*
X0136000Y0248300D01*
X0119500Y0209300D02*
X0048000Y0137800D01*
X0048000Y0095800D01*
X0047500Y0095300D01*
X0050793Y0086093D02*
X0050749Y0086051D01*
X0050703Y0086013D01*
X0050654Y0085977D01*
X0050603Y0085944D01*
X0050551Y0085915D01*
X0050496Y0085888D01*
X0050441Y0085865D01*
X0050384Y0085845D01*
X0050325Y0085829D01*
X0050266Y0085816D01*
X0050207Y0085807D01*
X0050146Y0085802D01*
X0050086Y0085800D01*
X0048000Y0085800D01*
X0047500Y0085300D01*
X0050793Y0086093D02*
X0057000Y0092300D01*
X0089500Y0120300D02*
X0089500Y0124800D01*
X0123000Y0158300D01*
X0174500Y0158300D01*
X0174500Y0148300D02*
X0128500Y0148300D01*
X0099500Y0119300D01*
X0109500Y0120300D02*
X0125000Y0135800D01*
X0233500Y0135800D01*
X0226000Y0101800D02*
X0226000Y0072800D01*
X0221000Y0067800D01*
X0220657Y0067300D01*
X0221000Y0066800D01*
X0212000Y0182800D02*
X0247500Y0182800D01*
X0084500Y0214300D02*
X0079500Y0209300D01*
X0057293Y0127093D02*
X0057251Y0127049D01*
X0057213Y0127003D01*
X0057177Y0126954D01*
X0057144Y0126903D01*
X0057115Y0126851D01*
X0057088Y0126796D01*
X0057065Y0126741D01*
X0057045Y0126684D01*
X0057029Y0126625D01*
X0057016Y0126566D01*
X0057007Y0126507D01*
X0057002Y0126446D01*
X0057000Y0126386D01*
D21*
X0154500Y0212800D03*
X0214000Y0231800D03*
X0235500Y0197800D03*
X0236000Y0187800D03*
X0290000Y0175800D03*
X0307500Y0173800D03*
X0290000Y0211300D03*
X0233500Y0135800D03*
X0226000Y0101800D03*
X0293000Y0127800D03*
X0315500Y0127800D03*
X0299500Y0086300D03*
D22*
X0308500Y0097300D02*
X0328000Y0077800D01*
X0335764Y0077800D01*
X0308500Y0097300D02*
X0308500Y0109083D01*
X0307122Y0109206D01*
X0332000Y0120300D02*
X0270185Y0120300D01*
X0259091Y0109206D01*
X0332000Y0120300D02*
X0334815Y0117485D01*
X0335579Y0117485D01*
D23*
X0335579Y0078115D02*
X0335764Y0077800D01*
D24*
X0181157Y0073643D02*
X0181157Y0067300D01*
X0181157Y0073643D02*
X0154000Y0100800D01*
X0078563Y0100800D01*
X0075000Y0097237D01*
M02*
