G75*
%MOIN*%
%OFA0B0*%
%FSLAX25Y25*%
%IPPOS*%
%LPD*%
%AMOC8*
5,1,8,0,0,1.08239X$1,22.5*
%
%ADD10C,0.01600*%
%ADD11R,0.07400X0.07400*%
%ADD12C,0.07400*%
%ADD13R,0.05118X0.05906*%
%ADD14R,0.10000X0.10000*%
%ADD15R,0.03543X0.03150*%
%ADD16C,0.07300*%
%ADD17R,0.02756X0.04724*%
%ADD18C,0.00000*%
%ADD19OC8,0.06600*%
%ADD20C,0.05800*%
%ADD21C,0.08500*%
%ADD22C,0.09843*%
%ADD23R,0.05512X0.15110*%
%ADD24R,0.05787X0.05000*%
%ADD25R,0.42520X0.40984*%
%ADD26R,0.04200X0.08500*%
%ADD27C,0.17000*%
%ADD28R,0.21654X0.15748*%
%ADD29C,0.01000*%
%ADD30C,0.04400*%
%ADD31C,0.05000*%
%ADD32C,0.02400*%
D10*
X0034000Y0043800D02*
X0034000Y0260800D01*
X0357500Y0260300D01*
X0357500Y0043800D01*
X0034000Y0043800D01*
X0056500Y0071300D02*
X0072500Y0055300D01*
X0135846Y0055300D01*
X0136500Y0054646D01*
X0208004Y0054646D01*
X0220657Y0067300D01*
X0210500Y0094335D02*
X0213965Y0097800D01*
X0216465Y0100300D01*
X0216465Y0117835D01*
X0207500Y0126800D01*
X0207500Y0139500D01*
X0214200Y0139500D02*
X0214200Y0130700D01*
X0226550Y0118350D01*
X0226651Y0118249D01*
X0234000Y0118249D01*
X0210500Y0111265D02*
X0205535Y0106300D01*
X0183500Y0106300D01*
X0175154Y0097954D01*
X0136500Y0097954D01*
X0200800Y0120965D02*
X0210500Y0111265D01*
X0200800Y0120965D02*
X0200800Y0139500D01*
X0174000Y0177800D02*
X0174500Y0178300D01*
X0174000Y0177800D02*
X0086000Y0177800D01*
X0069500Y0194300D01*
X0069500Y0210300D01*
X0040000Y0204800D02*
X0040000Y0232300D01*
X0046000Y0238300D01*
X0040000Y0204800D02*
X0069000Y0175800D01*
X0069000Y0120800D01*
X0069500Y0120300D02*
X0068000Y0120300D01*
X0056500Y0108800D01*
X0056500Y0071300D01*
X0299500Y0086300D02*
X0299500Y0125550D01*
X0313750Y0139800D01*
X0326760Y0152810D01*
X0326760Y0154300D01*
D11*
X0174500Y0178300D03*
X0069500Y0210300D03*
X0069500Y0120300D03*
D12*
X0079500Y0119300D03*
X0089500Y0120300D03*
X0099500Y0119300D03*
X0109500Y0120300D03*
X0119500Y0119300D03*
X0129500Y0120300D03*
X0139500Y0119300D03*
X0174500Y0148300D03*
X0174500Y0158300D03*
X0174500Y0168300D03*
X0139500Y0209300D03*
X0129500Y0210300D03*
X0119500Y0209300D03*
X0109500Y0210300D03*
X0099500Y0209300D03*
X0089500Y0210300D03*
X0079500Y0209300D03*
X0075500Y0228300D03*
X0075500Y0238300D03*
X0075500Y0248300D03*
X0046000Y0248300D03*
X0046000Y0238300D03*
X0046000Y0228300D03*
X0106000Y0228300D03*
X0106000Y0238300D03*
X0106000Y0248300D03*
X0136000Y0248300D03*
X0136000Y0238300D03*
X0136000Y0228300D03*
X0166500Y0228300D03*
X0166500Y0238300D03*
X0166500Y0248300D03*
X0196500Y0248300D03*
X0196500Y0238300D03*
X0196500Y0228300D03*
X0225500Y0228300D03*
X0225500Y0238300D03*
X0225500Y0248300D03*
X0255500Y0248300D03*
X0255500Y0238300D03*
X0255500Y0228300D03*
X0285500Y0228300D03*
X0285500Y0238300D03*
X0285500Y0248300D03*
X0308500Y0248300D03*
X0318500Y0248300D03*
X0328500Y0248300D03*
X0047500Y0095300D03*
X0047500Y0085300D03*
D13*
X0306460Y0154300D03*
X0313940Y0154300D03*
X0326760Y0154300D03*
X0334240Y0154300D03*
X0334240Y0165300D03*
X0326760Y0165300D03*
X0313740Y0164800D03*
X0306260Y0164800D03*
D14*
X0313750Y0139800D03*
X0332250Y0139800D03*
D15*
X0299831Y0139800D03*
X0291563Y0143540D03*
X0291563Y0136060D03*
D16*
X0331929Y0117485D02*
X0339229Y0117485D01*
X0339229Y0097800D02*
X0331929Y0097800D01*
X0331929Y0078115D02*
X0339229Y0078115D01*
X0240343Y0070950D02*
X0240343Y0063650D01*
X0220657Y0063650D02*
X0220657Y0070950D01*
X0200843Y0070950D02*
X0200843Y0063650D01*
X0181157Y0063650D02*
X0181157Y0070950D01*
D17*
X0292500Y0153017D03*
X0292500Y0167583D03*
D18*
X0340094Y0248300D02*
X0340096Y0248453D01*
X0340102Y0248607D01*
X0340112Y0248760D01*
X0340126Y0248912D01*
X0340144Y0249065D01*
X0340166Y0249216D01*
X0340191Y0249367D01*
X0340221Y0249518D01*
X0340255Y0249668D01*
X0340292Y0249816D01*
X0340333Y0249964D01*
X0340378Y0250110D01*
X0340427Y0250256D01*
X0340480Y0250400D01*
X0340536Y0250542D01*
X0340596Y0250683D01*
X0340660Y0250823D01*
X0340727Y0250961D01*
X0340798Y0251097D01*
X0340873Y0251231D01*
X0340950Y0251363D01*
X0341032Y0251493D01*
X0341116Y0251621D01*
X0341204Y0251747D01*
X0341295Y0251870D01*
X0341389Y0251991D01*
X0341487Y0252109D01*
X0341587Y0252225D01*
X0341691Y0252338D01*
X0341797Y0252449D01*
X0341906Y0252557D01*
X0342018Y0252662D01*
X0342132Y0252763D01*
X0342250Y0252862D01*
X0342369Y0252958D01*
X0342491Y0253051D01*
X0342616Y0253140D01*
X0342743Y0253227D01*
X0342872Y0253309D01*
X0343003Y0253389D01*
X0343136Y0253465D01*
X0343271Y0253538D01*
X0343408Y0253607D01*
X0343547Y0253672D01*
X0343687Y0253734D01*
X0343829Y0253792D01*
X0343972Y0253847D01*
X0344117Y0253898D01*
X0344263Y0253945D01*
X0344410Y0253988D01*
X0344558Y0254027D01*
X0344707Y0254063D01*
X0344857Y0254094D01*
X0345008Y0254122D01*
X0345159Y0254146D01*
X0345312Y0254166D01*
X0345464Y0254182D01*
X0345617Y0254194D01*
X0345770Y0254202D01*
X0345923Y0254206D01*
X0346077Y0254206D01*
X0346230Y0254202D01*
X0346383Y0254194D01*
X0346536Y0254182D01*
X0346688Y0254166D01*
X0346841Y0254146D01*
X0346992Y0254122D01*
X0347143Y0254094D01*
X0347293Y0254063D01*
X0347442Y0254027D01*
X0347590Y0253988D01*
X0347737Y0253945D01*
X0347883Y0253898D01*
X0348028Y0253847D01*
X0348171Y0253792D01*
X0348313Y0253734D01*
X0348453Y0253672D01*
X0348592Y0253607D01*
X0348729Y0253538D01*
X0348864Y0253465D01*
X0348997Y0253389D01*
X0349128Y0253309D01*
X0349257Y0253227D01*
X0349384Y0253140D01*
X0349509Y0253051D01*
X0349631Y0252958D01*
X0349750Y0252862D01*
X0349868Y0252763D01*
X0349982Y0252662D01*
X0350094Y0252557D01*
X0350203Y0252449D01*
X0350309Y0252338D01*
X0350413Y0252225D01*
X0350513Y0252109D01*
X0350611Y0251991D01*
X0350705Y0251870D01*
X0350796Y0251747D01*
X0350884Y0251621D01*
X0350968Y0251493D01*
X0351050Y0251363D01*
X0351127Y0251231D01*
X0351202Y0251097D01*
X0351273Y0250961D01*
X0351340Y0250823D01*
X0351404Y0250683D01*
X0351464Y0250542D01*
X0351520Y0250400D01*
X0351573Y0250256D01*
X0351622Y0250110D01*
X0351667Y0249964D01*
X0351708Y0249816D01*
X0351745Y0249668D01*
X0351779Y0249518D01*
X0351809Y0249367D01*
X0351834Y0249216D01*
X0351856Y0249065D01*
X0351874Y0248912D01*
X0351888Y0248760D01*
X0351898Y0248607D01*
X0351904Y0248453D01*
X0351906Y0248300D01*
X0351904Y0248147D01*
X0351898Y0247993D01*
X0351888Y0247840D01*
X0351874Y0247688D01*
X0351856Y0247535D01*
X0351834Y0247384D01*
X0351809Y0247233D01*
X0351779Y0247082D01*
X0351745Y0246932D01*
X0351708Y0246784D01*
X0351667Y0246636D01*
X0351622Y0246490D01*
X0351573Y0246344D01*
X0351520Y0246200D01*
X0351464Y0246058D01*
X0351404Y0245917D01*
X0351340Y0245777D01*
X0351273Y0245639D01*
X0351202Y0245503D01*
X0351127Y0245369D01*
X0351050Y0245237D01*
X0350968Y0245107D01*
X0350884Y0244979D01*
X0350796Y0244853D01*
X0350705Y0244730D01*
X0350611Y0244609D01*
X0350513Y0244491D01*
X0350413Y0244375D01*
X0350309Y0244262D01*
X0350203Y0244151D01*
X0350094Y0244043D01*
X0349982Y0243938D01*
X0349868Y0243837D01*
X0349750Y0243738D01*
X0349631Y0243642D01*
X0349509Y0243549D01*
X0349384Y0243460D01*
X0349257Y0243373D01*
X0349128Y0243291D01*
X0348997Y0243211D01*
X0348864Y0243135D01*
X0348729Y0243062D01*
X0348592Y0242993D01*
X0348453Y0242928D01*
X0348313Y0242866D01*
X0348171Y0242808D01*
X0348028Y0242753D01*
X0347883Y0242702D01*
X0347737Y0242655D01*
X0347590Y0242612D01*
X0347442Y0242573D01*
X0347293Y0242537D01*
X0347143Y0242506D01*
X0346992Y0242478D01*
X0346841Y0242454D01*
X0346688Y0242434D01*
X0346536Y0242418D01*
X0346383Y0242406D01*
X0346230Y0242398D01*
X0346077Y0242394D01*
X0345923Y0242394D01*
X0345770Y0242398D01*
X0345617Y0242406D01*
X0345464Y0242418D01*
X0345312Y0242434D01*
X0345159Y0242454D01*
X0345008Y0242478D01*
X0344857Y0242506D01*
X0344707Y0242537D01*
X0344558Y0242573D01*
X0344410Y0242612D01*
X0344263Y0242655D01*
X0344117Y0242702D01*
X0343972Y0242753D01*
X0343829Y0242808D01*
X0343687Y0242866D01*
X0343547Y0242928D01*
X0343408Y0242993D01*
X0343271Y0243062D01*
X0343136Y0243135D01*
X0343003Y0243211D01*
X0342872Y0243291D01*
X0342743Y0243373D01*
X0342616Y0243460D01*
X0342491Y0243549D01*
X0342369Y0243642D01*
X0342250Y0243738D01*
X0342132Y0243837D01*
X0342018Y0243938D01*
X0341906Y0244043D01*
X0341797Y0244151D01*
X0341691Y0244262D01*
X0341587Y0244375D01*
X0341487Y0244491D01*
X0341389Y0244609D01*
X0341295Y0244730D01*
X0341204Y0244853D01*
X0341116Y0244979D01*
X0341032Y0245107D01*
X0340950Y0245237D01*
X0340873Y0245369D01*
X0340798Y0245503D01*
X0340727Y0245639D01*
X0340660Y0245777D01*
X0340596Y0245917D01*
X0340536Y0246058D01*
X0340480Y0246200D01*
X0340427Y0246344D01*
X0340378Y0246490D01*
X0340333Y0246636D01*
X0340292Y0246784D01*
X0340255Y0246932D01*
X0340221Y0247082D01*
X0340191Y0247233D01*
X0340166Y0247384D01*
X0340144Y0247535D01*
X0340126Y0247688D01*
X0340112Y0247840D01*
X0340102Y0247993D01*
X0340096Y0248147D01*
X0340094Y0248300D01*
X0339594Y0056300D02*
X0339596Y0056453D01*
X0339602Y0056607D01*
X0339612Y0056760D01*
X0339626Y0056912D01*
X0339644Y0057065D01*
X0339666Y0057216D01*
X0339691Y0057367D01*
X0339721Y0057518D01*
X0339755Y0057668D01*
X0339792Y0057816D01*
X0339833Y0057964D01*
X0339878Y0058110D01*
X0339927Y0058256D01*
X0339980Y0058400D01*
X0340036Y0058542D01*
X0340096Y0058683D01*
X0340160Y0058823D01*
X0340227Y0058961D01*
X0340298Y0059097D01*
X0340373Y0059231D01*
X0340450Y0059363D01*
X0340532Y0059493D01*
X0340616Y0059621D01*
X0340704Y0059747D01*
X0340795Y0059870D01*
X0340889Y0059991D01*
X0340987Y0060109D01*
X0341087Y0060225D01*
X0341191Y0060338D01*
X0341297Y0060449D01*
X0341406Y0060557D01*
X0341518Y0060662D01*
X0341632Y0060763D01*
X0341750Y0060862D01*
X0341869Y0060958D01*
X0341991Y0061051D01*
X0342116Y0061140D01*
X0342243Y0061227D01*
X0342372Y0061309D01*
X0342503Y0061389D01*
X0342636Y0061465D01*
X0342771Y0061538D01*
X0342908Y0061607D01*
X0343047Y0061672D01*
X0343187Y0061734D01*
X0343329Y0061792D01*
X0343472Y0061847D01*
X0343617Y0061898D01*
X0343763Y0061945D01*
X0343910Y0061988D01*
X0344058Y0062027D01*
X0344207Y0062063D01*
X0344357Y0062094D01*
X0344508Y0062122D01*
X0344659Y0062146D01*
X0344812Y0062166D01*
X0344964Y0062182D01*
X0345117Y0062194D01*
X0345270Y0062202D01*
X0345423Y0062206D01*
X0345577Y0062206D01*
X0345730Y0062202D01*
X0345883Y0062194D01*
X0346036Y0062182D01*
X0346188Y0062166D01*
X0346341Y0062146D01*
X0346492Y0062122D01*
X0346643Y0062094D01*
X0346793Y0062063D01*
X0346942Y0062027D01*
X0347090Y0061988D01*
X0347237Y0061945D01*
X0347383Y0061898D01*
X0347528Y0061847D01*
X0347671Y0061792D01*
X0347813Y0061734D01*
X0347953Y0061672D01*
X0348092Y0061607D01*
X0348229Y0061538D01*
X0348364Y0061465D01*
X0348497Y0061389D01*
X0348628Y0061309D01*
X0348757Y0061227D01*
X0348884Y0061140D01*
X0349009Y0061051D01*
X0349131Y0060958D01*
X0349250Y0060862D01*
X0349368Y0060763D01*
X0349482Y0060662D01*
X0349594Y0060557D01*
X0349703Y0060449D01*
X0349809Y0060338D01*
X0349913Y0060225D01*
X0350013Y0060109D01*
X0350111Y0059991D01*
X0350205Y0059870D01*
X0350296Y0059747D01*
X0350384Y0059621D01*
X0350468Y0059493D01*
X0350550Y0059363D01*
X0350627Y0059231D01*
X0350702Y0059097D01*
X0350773Y0058961D01*
X0350840Y0058823D01*
X0350904Y0058683D01*
X0350964Y0058542D01*
X0351020Y0058400D01*
X0351073Y0058256D01*
X0351122Y0058110D01*
X0351167Y0057964D01*
X0351208Y0057816D01*
X0351245Y0057668D01*
X0351279Y0057518D01*
X0351309Y0057367D01*
X0351334Y0057216D01*
X0351356Y0057065D01*
X0351374Y0056912D01*
X0351388Y0056760D01*
X0351398Y0056607D01*
X0351404Y0056453D01*
X0351406Y0056300D01*
X0351404Y0056147D01*
X0351398Y0055993D01*
X0351388Y0055840D01*
X0351374Y0055688D01*
X0351356Y0055535D01*
X0351334Y0055384D01*
X0351309Y0055233D01*
X0351279Y0055082D01*
X0351245Y0054932D01*
X0351208Y0054784D01*
X0351167Y0054636D01*
X0351122Y0054490D01*
X0351073Y0054344D01*
X0351020Y0054200D01*
X0350964Y0054058D01*
X0350904Y0053917D01*
X0350840Y0053777D01*
X0350773Y0053639D01*
X0350702Y0053503D01*
X0350627Y0053369D01*
X0350550Y0053237D01*
X0350468Y0053107D01*
X0350384Y0052979D01*
X0350296Y0052853D01*
X0350205Y0052730D01*
X0350111Y0052609D01*
X0350013Y0052491D01*
X0349913Y0052375D01*
X0349809Y0052262D01*
X0349703Y0052151D01*
X0349594Y0052043D01*
X0349482Y0051938D01*
X0349368Y0051837D01*
X0349250Y0051738D01*
X0349131Y0051642D01*
X0349009Y0051549D01*
X0348884Y0051460D01*
X0348757Y0051373D01*
X0348628Y0051291D01*
X0348497Y0051211D01*
X0348364Y0051135D01*
X0348229Y0051062D01*
X0348092Y0050993D01*
X0347953Y0050928D01*
X0347813Y0050866D01*
X0347671Y0050808D01*
X0347528Y0050753D01*
X0347383Y0050702D01*
X0347237Y0050655D01*
X0347090Y0050612D01*
X0346942Y0050573D01*
X0346793Y0050537D01*
X0346643Y0050506D01*
X0346492Y0050478D01*
X0346341Y0050454D01*
X0346188Y0050434D01*
X0346036Y0050418D01*
X0345883Y0050406D01*
X0345730Y0050398D01*
X0345577Y0050394D01*
X0345423Y0050394D01*
X0345270Y0050398D01*
X0345117Y0050406D01*
X0344964Y0050418D01*
X0344812Y0050434D01*
X0344659Y0050454D01*
X0344508Y0050478D01*
X0344357Y0050506D01*
X0344207Y0050537D01*
X0344058Y0050573D01*
X0343910Y0050612D01*
X0343763Y0050655D01*
X0343617Y0050702D01*
X0343472Y0050753D01*
X0343329Y0050808D01*
X0343187Y0050866D01*
X0343047Y0050928D01*
X0342908Y0050993D01*
X0342771Y0051062D01*
X0342636Y0051135D01*
X0342503Y0051211D01*
X0342372Y0051291D01*
X0342243Y0051373D01*
X0342116Y0051460D01*
X0341991Y0051549D01*
X0341869Y0051642D01*
X0341750Y0051738D01*
X0341632Y0051837D01*
X0341518Y0051938D01*
X0341406Y0052043D01*
X0341297Y0052151D01*
X0341191Y0052262D01*
X0341087Y0052375D01*
X0340987Y0052491D01*
X0340889Y0052609D01*
X0340795Y0052730D01*
X0340704Y0052853D01*
X0340616Y0052979D01*
X0340532Y0053107D01*
X0340450Y0053237D01*
X0340373Y0053369D01*
X0340298Y0053503D01*
X0340227Y0053639D01*
X0340160Y0053777D01*
X0340096Y0053917D01*
X0340036Y0054058D01*
X0339980Y0054200D01*
X0339927Y0054344D01*
X0339878Y0054490D01*
X0339833Y0054636D01*
X0339792Y0054784D01*
X0339755Y0054932D01*
X0339721Y0055082D01*
X0339691Y0055233D01*
X0339666Y0055384D01*
X0339644Y0055535D01*
X0339626Y0055688D01*
X0339612Y0055840D01*
X0339602Y0055993D01*
X0339596Y0056147D01*
X0339594Y0056300D01*
X0040094Y0056300D02*
X0040096Y0056453D01*
X0040102Y0056607D01*
X0040112Y0056760D01*
X0040126Y0056912D01*
X0040144Y0057065D01*
X0040166Y0057216D01*
X0040191Y0057367D01*
X0040221Y0057518D01*
X0040255Y0057668D01*
X0040292Y0057816D01*
X0040333Y0057964D01*
X0040378Y0058110D01*
X0040427Y0058256D01*
X0040480Y0058400D01*
X0040536Y0058542D01*
X0040596Y0058683D01*
X0040660Y0058823D01*
X0040727Y0058961D01*
X0040798Y0059097D01*
X0040873Y0059231D01*
X0040950Y0059363D01*
X0041032Y0059493D01*
X0041116Y0059621D01*
X0041204Y0059747D01*
X0041295Y0059870D01*
X0041389Y0059991D01*
X0041487Y0060109D01*
X0041587Y0060225D01*
X0041691Y0060338D01*
X0041797Y0060449D01*
X0041906Y0060557D01*
X0042018Y0060662D01*
X0042132Y0060763D01*
X0042250Y0060862D01*
X0042369Y0060958D01*
X0042491Y0061051D01*
X0042616Y0061140D01*
X0042743Y0061227D01*
X0042872Y0061309D01*
X0043003Y0061389D01*
X0043136Y0061465D01*
X0043271Y0061538D01*
X0043408Y0061607D01*
X0043547Y0061672D01*
X0043687Y0061734D01*
X0043829Y0061792D01*
X0043972Y0061847D01*
X0044117Y0061898D01*
X0044263Y0061945D01*
X0044410Y0061988D01*
X0044558Y0062027D01*
X0044707Y0062063D01*
X0044857Y0062094D01*
X0045008Y0062122D01*
X0045159Y0062146D01*
X0045312Y0062166D01*
X0045464Y0062182D01*
X0045617Y0062194D01*
X0045770Y0062202D01*
X0045923Y0062206D01*
X0046077Y0062206D01*
X0046230Y0062202D01*
X0046383Y0062194D01*
X0046536Y0062182D01*
X0046688Y0062166D01*
X0046841Y0062146D01*
X0046992Y0062122D01*
X0047143Y0062094D01*
X0047293Y0062063D01*
X0047442Y0062027D01*
X0047590Y0061988D01*
X0047737Y0061945D01*
X0047883Y0061898D01*
X0048028Y0061847D01*
X0048171Y0061792D01*
X0048313Y0061734D01*
X0048453Y0061672D01*
X0048592Y0061607D01*
X0048729Y0061538D01*
X0048864Y0061465D01*
X0048997Y0061389D01*
X0049128Y0061309D01*
X0049257Y0061227D01*
X0049384Y0061140D01*
X0049509Y0061051D01*
X0049631Y0060958D01*
X0049750Y0060862D01*
X0049868Y0060763D01*
X0049982Y0060662D01*
X0050094Y0060557D01*
X0050203Y0060449D01*
X0050309Y0060338D01*
X0050413Y0060225D01*
X0050513Y0060109D01*
X0050611Y0059991D01*
X0050705Y0059870D01*
X0050796Y0059747D01*
X0050884Y0059621D01*
X0050968Y0059493D01*
X0051050Y0059363D01*
X0051127Y0059231D01*
X0051202Y0059097D01*
X0051273Y0058961D01*
X0051340Y0058823D01*
X0051404Y0058683D01*
X0051464Y0058542D01*
X0051520Y0058400D01*
X0051573Y0058256D01*
X0051622Y0058110D01*
X0051667Y0057964D01*
X0051708Y0057816D01*
X0051745Y0057668D01*
X0051779Y0057518D01*
X0051809Y0057367D01*
X0051834Y0057216D01*
X0051856Y0057065D01*
X0051874Y0056912D01*
X0051888Y0056760D01*
X0051898Y0056607D01*
X0051904Y0056453D01*
X0051906Y0056300D01*
X0051904Y0056147D01*
X0051898Y0055993D01*
X0051888Y0055840D01*
X0051874Y0055688D01*
X0051856Y0055535D01*
X0051834Y0055384D01*
X0051809Y0055233D01*
X0051779Y0055082D01*
X0051745Y0054932D01*
X0051708Y0054784D01*
X0051667Y0054636D01*
X0051622Y0054490D01*
X0051573Y0054344D01*
X0051520Y0054200D01*
X0051464Y0054058D01*
X0051404Y0053917D01*
X0051340Y0053777D01*
X0051273Y0053639D01*
X0051202Y0053503D01*
X0051127Y0053369D01*
X0051050Y0053237D01*
X0050968Y0053107D01*
X0050884Y0052979D01*
X0050796Y0052853D01*
X0050705Y0052730D01*
X0050611Y0052609D01*
X0050513Y0052491D01*
X0050413Y0052375D01*
X0050309Y0052262D01*
X0050203Y0052151D01*
X0050094Y0052043D01*
X0049982Y0051938D01*
X0049868Y0051837D01*
X0049750Y0051738D01*
X0049631Y0051642D01*
X0049509Y0051549D01*
X0049384Y0051460D01*
X0049257Y0051373D01*
X0049128Y0051291D01*
X0048997Y0051211D01*
X0048864Y0051135D01*
X0048729Y0051062D01*
X0048592Y0050993D01*
X0048453Y0050928D01*
X0048313Y0050866D01*
X0048171Y0050808D01*
X0048028Y0050753D01*
X0047883Y0050702D01*
X0047737Y0050655D01*
X0047590Y0050612D01*
X0047442Y0050573D01*
X0047293Y0050537D01*
X0047143Y0050506D01*
X0046992Y0050478D01*
X0046841Y0050454D01*
X0046688Y0050434D01*
X0046536Y0050418D01*
X0046383Y0050406D01*
X0046230Y0050398D01*
X0046077Y0050394D01*
X0045923Y0050394D01*
X0045770Y0050398D01*
X0045617Y0050406D01*
X0045464Y0050418D01*
X0045312Y0050434D01*
X0045159Y0050454D01*
X0045008Y0050478D01*
X0044857Y0050506D01*
X0044707Y0050537D01*
X0044558Y0050573D01*
X0044410Y0050612D01*
X0044263Y0050655D01*
X0044117Y0050702D01*
X0043972Y0050753D01*
X0043829Y0050808D01*
X0043687Y0050866D01*
X0043547Y0050928D01*
X0043408Y0050993D01*
X0043271Y0051062D01*
X0043136Y0051135D01*
X0043003Y0051211D01*
X0042872Y0051291D01*
X0042743Y0051373D01*
X0042616Y0051460D01*
X0042491Y0051549D01*
X0042369Y0051642D01*
X0042250Y0051738D01*
X0042132Y0051837D01*
X0042018Y0051938D01*
X0041906Y0052043D01*
X0041797Y0052151D01*
X0041691Y0052262D01*
X0041587Y0052375D01*
X0041487Y0052491D01*
X0041389Y0052609D01*
X0041295Y0052730D01*
X0041204Y0052853D01*
X0041116Y0052979D01*
X0041032Y0053107D01*
X0040950Y0053237D01*
X0040873Y0053369D01*
X0040798Y0053503D01*
X0040727Y0053639D01*
X0040660Y0053777D01*
X0040596Y0053917D01*
X0040536Y0054058D01*
X0040480Y0054200D01*
X0040427Y0054344D01*
X0040378Y0054490D01*
X0040333Y0054636D01*
X0040292Y0054784D01*
X0040255Y0054932D01*
X0040221Y0055082D01*
X0040191Y0055233D01*
X0040166Y0055384D01*
X0040144Y0055535D01*
X0040126Y0055688D01*
X0040112Y0055840D01*
X0040102Y0055993D01*
X0040096Y0056147D01*
X0040094Y0056300D01*
X0040594Y0178300D02*
X0040596Y0178453D01*
X0040602Y0178607D01*
X0040612Y0178760D01*
X0040626Y0178912D01*
X0040644Y0179065D01*
X0040666Y0179216D01*
X0040691Y0179367D01*
X0040721Y0179518D01*
X0040755Y0179668D01*
X0040792Y0179816D01*
X0040833Y0179964D01*
X0040878Y0180110D01*
X0040927Y0180256D01*
X0040980Y0180400D01*
X0041036Y0180542D01*
X0041096Y0180683D01*
X0041160Y0180823D01*
X0041227Y0180961D01*
X0041298Y0181097D01*
X0041373Y0181231D01*
X0041450Y0181363D01*
X0041532Y0181493D01*
X0041616Y0181621D01*
X0041704Y0181747D01*
X0041795Y0181870D01*
X0041889Y0181991D01*
X0041987Y0182109D01*
X0042087Y0182225D01*
X0042191Y0182338D01*
X0042297Y0182449D01*
X0042406Y0182557D01*
X0042518Y0182662D01*
X0042632Y0182763D01*
X0042750Y0182862D01*
X0042869Y0182958D01*
X0042991Y0183051D01*
X0043116Y0183140D01*
X0043243Y0183227D01*
X0043372Y0183309D01*
X0043503Y0183389D01*
X0043636Y0183465D01*
X0043771Y0183538D01*
X0043908Y0183607D01*
X0044047Y0183672D01*
X0044187Y0183734D01*
X0044329Y0183792D01*
X0044472Y0183847D01*
X0044617Y0183898D01*
X0044763Y0183945D01*
X0044910Y0183988D01*
X0045058Y0184027D01*
X0045207Y0184063D01*
X0045357Y0184094D01*
X0045508Y0184122D01*
X0045659Y0184146D01*
X0045812Y0184166D01*
X0045964Y0184182D01*
X0046117Y0184194D01*
X0046270Y0184202D01*
X0046423Y0184206D01*
X0046577Y0184206D01*
X0046730Y0184202D01*
X0046883Y0184194D01*
X0047036Y0184182D01*
X0047188Y0184166D01*
X0047341Y0184146D01*
X0047492Y0184122D01*
X0047643Y0184094D01*
X0047793Y0184063D01*
X0047942Y0184027D01*
X0048090Y0183988D01*
X0048237Y0183945D01*
X0048383Y0183898D01*
X0048528Y0183847D01*
X0048671Y0183792D01*
X0048813Y0183734D01*
X0048953Y0183672D01*
X0049092Y0183607D01*
X0049229Y0183538D01*
X0049364Y0183465D01*
X0049497Y0183389D01*
X0049628Y0183309D01*
X0049757Y0183227D01*
X0049884Y0183140D01*
X0050009Y0183051D01*
X0050131Y0182958D01*
X0050250Y0182862D01*
X0050368Y0182763D01*
X0050482Y0182662D01*
X0050594Y0182557D01*
X0050703Y0182449D01*
X0050809Y0182338D01*
X0050913Y0182225D01*
X0051013Y0182109D01*
X0051111Y0181991D01*
X0051205Y0181870D01*
X0051296Y0181747D01*
X0051384Y0181621D01*
X0051468Y0181493D01*
X0051550Y0181363D01*
X0051627Y0181231D01*
X0051702Y0181097D01*
X0051773Y0180961D01*
X0051840Y0180823D01*
X0051904Y0180683D01*
X0051964Y0180542D01*
X0052020Y0180400D01*
X0052073Y0180256D01*
X0052122Y0180110D01*
X0052167Y0179964D01*
X0052208Y0179816D01*
X0052245Y0179668D01*
X0052279Y0179518D01*
X0052309Y0179367D01*
X0052334Y0179216D01*
X0052356Y0179065D01*
X0052374Y0178912D01*
X0052388Y0178760D01*
X0052398Y0178607D01*
X0052404Y0178453D01*
X0052406Y0178300D01*
X0052404Y0178147D01*
X0052398Y0177993D01*
X0052388Y0177840D01*
X0052374Y0177688D01*
X0052356Y0177535D01*
X0052334Y0177384D01*
X0052309Y0177233D01*
X0052279Y0177082D01*
X0052245Y0176932D01*
X0052208Y0176784D01*
X0052167Y0176636D01*
X0052122Y0176490D01*
X0052073Y0176344D01*
X0052020Y0176200D01*
X0051964Y0176058D01*
X0051904Y0175917D01*
X0051840Y0175777D01*
X0051773Y0175639D01*
X0051702Y0175503D01*
X0051627Y0175369D01*
X0051550Y0175237D01*
X0051468Y0175107D01*
X0051384Y0174979D01*
X0051296Y0174853D01*
X0051205Y0174730D01*
X0051111Y0174609D01*
X0051013Y0174491D01*
X0050913Y0174375D01*
X0050809Y0174262D01*
X0050703Y0174151D01*
X0050594Y0174043D01*
X0050482Y0173938D01*
X0050368Y0173837D01*
X0050250Y0173738D01*
X0050131Y0173642D01*
X0050009Y0173549D01*
X0049884Y0173460D01*
X0049757Y0173373D01*
X0049628Y0173291D01*
X0049497Y0173211D01*
X0049364Y0173135D01*
X0049229Y0173062D01*
X0049092Y0172993D01*
X0048953Y0172928D01*
X0048813Y0172866D01*
X0048671Y0172808D01*
X0048528Y0172753D01*
X0048383Y0172702D01*
X0048237Y0172655D01*
X0048090Y0172612D01*
X0047942Y0172573D01*
X0047793Y0172537D01*
X0047643Y0172506D01*
X0047492Y0172478D01*
X0047341Y0172454D01*
X0047188Y0172434D01*
X0047036Y0172418D01*
X0046883Y0172406D01*
X0046730Y0172398D01*
X0046577Y0172394D01*
X0046423Y0172394D01*
X0046270Y0172398D01*
X0046117Y0172406D01*
X0045964Y0172418D01*
X0045812Y0172434D01*
X0045659Y0172454D01*
X0045508Y0172478D01*
X0045357Y0172506D01*
X0045207Y0172537D01*
X0045058Y0172573D01*
X0044910Y0172612D01*
X0044763Y0172655D01*
X0044617Y0172702D01*
X0044472Y0172753D01*
X0044329Y0172808D01*
X0044187Y0172866D01*
X0044047Y0172928D01*
X0043908Y0172993D01*
X0043771Y0173062D01*
X0043636Y0173135D01*
X0043503Y0173211D01*
X0043372Y0173291D01*
X0043243Y0173373D01*
X0043116Y0173460D01*
X0042991Y0173549D01*
X0042869Y0173642D01*
X0042750Y0173738D01*
X0042632Y0173837D01*
X0042518Y0173938D01*
X0042406Y0174043D01*
X0042297Y0174151D01*
X0042191Y0174262D01*
X0042087Y0174375D01*
X0041987Y0174491D01*
X0041889Y0174609D01*
X0041795Y0174730D01*
X0041704Y0174853D01*
X0041616Y0174979D01*
X0041532Y0175107D01*
X0041450Y0175237D01*
X0041373Y0175369D01*
X0041298Y0175503D01*
X0041227Y0175639D01*
X0041160Y0175777D01*
X0041096Y0175917D01*
X0041036Y0176058D01*
X0040980Y0176200D01*
X0040927Y0176344D01*
X0040878Y0176490D01*
X0040833Y0176636D01*
X0040792Y0176784D01*
X0040755Y0176932D01*
X0040721Y0177082D01*
X0040691Y0177233D01*
X0040666Y0177384D01*
X0040644Y0177535D01*
X0040626Y0177688D01*
X0040612Y0177840D01*
X0040602Y0177993D01*
X0040596Y0178147D01*
X0040594Y0178300D01*
D19*
X0347500Y0172300D03*
X0347500Y0162300D03*
X0347500Y0148800D03*
X0347500Y0138800D03*
D20*
X0280400Y0142800D02*
X0274600Y0142800D01*
X0274600Y0152800D02*
X0280400Y0152800D01*
X0280400Y0162800D02*
X0274600Y0162800D01*
X0274600Y0172800D02*
X0280400Y0172800D01*
X0280400Y0182800D02*
X0274600Y0182800D01*
X0274600Y0192800D02*
X0280400Y0192800D01*
X0280400Y0202800D02*
X0274600Y0202800D01*
X0274600Y0212800D02*
X0280400Y0212800D01*
X0250400Y0212800D02*
X0244600Y0212800D01*
X0244600Y0202800D02*
X0250400Y0202800D01*
X0250400Y0192800D02*
X0244600Y0192800D01*
X0244600Y0182800D02*
X0250400Y0182800D01*
X0250400Y0172800D02*
X0244600Y0172800D01*
X0244600Y0162800D02*
X0250400Y0162800D01*
X0250400Y0152800D02*
X0244600Y0152800D01*
X0244600Y0142800D02*
X0250400Y0142800D01*
D21*
X0316657Y0182694D03*
X0336343Y0182694D03*
X0336343Y0231906D03*
X0316657Y0231906D03*
D22*
X0307122Y0109206D03*
X0259091Y0109206D03*
X0259878Y0061174D03*
X0283500Y0053300D03*
X0307122Y0061174D03*
D23*
X0234000Y0095351D03*
X0234000Y0118249D03*
X0187500Y0117749D03*
X0187500Y0094851D03*
D24*
X0210500Y0094335D03*
X0210500Y0111265D03*
D25*
X0207500Y0172300D03*
D26*
X0207500Y0139500D03*
X0214200Y0139500D03*
X0220900Y0139500D03*
X0200800Y0139500D03*
X0194100Y0139500D03*
D27*
X0093504Y0085426D03*
X0075000Y0097237D03*
X0075000Y0073615D03*
D28*
X0136500Y0054646D03*
X0136500Y0097954D03*
D29*
X0149827Y0094654D02*
X0149827Y0089582D01*
X0149446Y0088663D01*
X0148743Y0087960D01*
X0147824Y0087580D01*
X0125176Y0087580D01*
X0124257Y0087960D01*
X0123554Y0088663D01*
X0123173Y0089582D01*
X0123173Y0106325D01*
X0123554Y0107244D01*
X0123910Y0107600D01*
X0090596Y0107600D01*
X0084968Y0101972D01*
X0085250Y0101483D01*
X0086000Y0098685D01*
X0086000Y0095789D01*
X0085250Y0092991D01*
X0083802Y0090483D01*
X0081754Y0088435D01*
X0079246Y0086987D01*
X0076448Y0086237D01*
X0073552Y0086237D01*
X0070754Y0086987D01*
X0068246Y0088435D01*
X0066198Y0090483D01*
X0064750Y0092991D01*
X0064000Y0095789D01*
X0064000Y0098685D01*
X0064750Y0101483D01*
X0066198Y0103991D01*
X0068246Y0106039D01*
X0070754Y0107487D01*
X0073552Y0108237D01*
X0076448Y0108237D01*
X0079246Y0107487D01*
X0079735Y0107205D01*
X0086967Y0114437D01*
X0087211Y0114538D01*
X0085988Y0115044D01*
X0084244Y0116788D01*
X0084160Y0116991D01*
X0083947Y0116575D01*
X0083466Y0115912D01*
X0082888Y0115334D01*
X0082225Y0114853D01*
X0081496Y0114481D01*
X0080718Y0114228D01*
X0080000Y0114114D01*
X0080000Y0118800D01*
X0079000Y0118800D01*
X0079000Y0114114D01*
X0078282Y0114228D01*
X0077504Y0114481D01*
X0076775Y0114853D01*
X0076112Y0115334D01*
X0075596Y0115851D01*
X0075319Y0115184D01*
X0074616Y0114481D01*
X0073697Y0114100D01*
X0066467Y0114100D01*
X0059800Y0107433D01*
X0059800Y0072667D01*
X0073867Y0058600D01*
X0123173Y0058600D01*
X0123173Y0063018D01*
X0123554Y0063937D01*
X0124257Y0064640D01*
X0125176Y0065020D01*
X0147824Y0065020D01*
X0148743Y0064640D01*
X0149446Y0063937D01*
X0149827Y0063018D01*
X0149827Y0057946D01*
X0178856Y0057946D01*
X0177674Y0058436D01*
X0175944Y0060166D01*
X0175007Y0062427D01*
X0175007Y0072173D01*
X0175944Y0074434D01*
X0177674Y0076164D01*
X0179934Y0077100D01*
X0182381Y0077100D01*
X0184641Y0076164D01*
X0186371Y0074434D01*
X0187307Y0072173D01*
X0187307Y0062427D01*
X0186371Y0060166D01*
X0184641Y0058436D01*
X0183459Y0057946D01*
X0206637Y0057946D01*
X0214507Y0065817D01*
X0214507Y0072173D01*
X0215444Y0074434D01*
X0217174Y0076164D01*
X0219434Y0077100D01*
X0221881Y0077100D01*
X0224141Y0076164D01*
X0225871Y0074434D01*
X0226807Y0072173D01*
X0226807Y0062427D01*
X0225871Y0060166D01*
X0224141Y0058436D01*
X0221881Y0057500D01*
X0219434Y0057500D01*
X0217174Y0058436D01*
X0216817Y0058793D01*
X0209873Y0051849D01*
X0208660Y0051346D01*
X0149827Y0051346D01*
X0149827Y0047100D01*
X0279205Y0047100D01*
X0277209Y0049096D01*
X0276079Y0051824D01*
X0276079Y0054776D01*
X0277209Y0057504D01*
X0279296Y0059591D01*
X0282024Y0060721D01*
X0283850Y0060721D01*
X0325168Y0102039D01*
X0327005Y0102800D01*
X0328231Y0102800D01*
X0328445Y0103014D01*
X0330705Y0103950D01*
X0340452Y0103950D01*
X0342712Y0103014D01*
X0344442Y0101284D01*
X0345379Y0099023D01*
X0345379Y0096577D01*
X0344442Y0094316D01*
X0342712Y0092586D01*
X0340452Y0091650D01*
X0330705Y0091650D01*
X0329444Y0092173D01*
X0305866Y0068595D01*
X0308598Y0068595D01*
X0311326Y0067465D01*
X0313413Y0065378D01*
X0314543Y0062650D01*
X0314543Y0059698D01*
X0313413Y0056970D01*
X0311326Y0054883D01*
X0308598Y0053753D01*
X0305646Y0053753D01*
X0302918Y0054883D01*
X0300831Y0056970D01*
X0299701Y0059698D01*
X0299701Y0062430D01*
X0290921Y0053650D01*
X0290921Y0051824D01*
X0289791Y0049096D01*
X0287795Y0047100D01*
X0337245Y0047100D01*
X0335624Y0048722D01*
X0333999Y0051536D01*
X0333157Y0054675D01*
X0333157Y0057925D01*
X0333999Y0061064D01*
X0335624Y0063878D01*
X0337922Y0066176D01*
X0340736Y0067801D01*
X0343875Y0068643D01*
X0347125Y0068643D01*
X0350264Y0067801D01*
X0353078Y0066176D01*
X0354200Y0065055D01*
X0354200Y0239045D01*
X0353578Y0238424D01*
X0350764Y0236799D01*
X0347625Y0235957D01*
X0344375Y0235957D01*
X0341236Y0236799D01*
X0340669Y0237126D01*
X0342065Y0235730D01*
X0343093Y0233249D01*
X0343093Y0230564D01*
X0342065Y0228083D01*
X0340166Y0226184D01*
X0337685Y0225156D01*
X0335000Y0225156D01*
X0332519Y0226184D01*
X0330620Y0228083D01*
X0329593Y0230564D01*
X0329593Y0233249D01*
X0330620Y0235730D01*
X0332519Y0237629D01*
X0335000Y0238656D01*
X0337685Y0238656D01*
X0338864Y0238168D01*
X0338422Y0238424D01*
X0336124Y0240722D01*
X0334499Y0243536D01*
X0334003Y0245385D01*
X0333756Y0244788D01*
X0332012Y0243044D01*
X0329733Y0242100D01*
X0327267Y0242100D01*
X0326755Y0242312D01*
X0321276Y0236834D01*
X0322380Y0235730D01*
X0323407Y0233249D01*
X0323407Y0230564D01*
X0322380Y0228083D01*
X0320481Y0226184D01*
X0318000Y0225156D01*
X0315315Y0225156D01*
X0312834Y0226184D01*
X0310935Y0228083D01*
X0309907Y0230564D01*
X0309907Y0233249D01*
X0310935Y0235730D01*
X0311005Y0235800D01*
X0291175Y0235800D01*
X0290756Y0234788D01*
X0289268Y0233300D01*
X0290756Y0231812D01*
X0291700Y0229533D01*
X0291700Y0227067D01*
X0290756Y0224788D01*
X0289012Y0223044D01*
X0288500Y0222832D01*
X0288500Y0215766D01*
X0289065Y0216000D01*
X0290935Y0216000D01*
X0292662Y0215284D01*
X0293984Y0213962D01*
X0294700Y0212235D01*
X0294700Y0210365D01*
X0293984Y0208638D01*
X0293000Y0207653D01*
X0293000Y0179447D01*
X0293984Y0178462D01*
X0294700Y0176735D01*
X0294700Y0174865D01*
X0293984Y0173138D01*
X0293292Y0172446D01*
X0294375Y0172446D01*
X0295294Y0172065D01*
X0295997Y0171362D01*
X0296378Y0170443D01*
X0296378Y0164724D01*
X0296068Y0163975D01*
X0301662Y0158381D01*
X0301781Y0158669D01*
X0302485Y0159372D01*
X0302814Y0159509D01*
X0302285Y0159728D01*
X0301581Y0160431D01*
X0301201Y0161350D01*
X0301201Y0168250D01*
X0301581Y0169169D01*
X0302285Y0169872D01*
X0303203Y0170253D01*
X0309316Y0170253D01*
X0310235Y0169872D01*
X0310882Y0169225D01*
X0310984Y0169253D01*
X0313240Y0169253D01*
X0313240Y0165300D01*
X0314240Y0165300D01*
X0314240Y0169253D01*
X0316497Y0169253D01*
X0316878Y0169151D01*
X0317220Y0168953D01*
X0317499Y0168674D01*
X0317697Y0168332D01*
X0317799Y0167950D01*
X0317799Y0165300D01*
X0314240Y0165300D01*
X0314240Y0164300D01*
X0317799Y0164300D01*
X0317799Y0161650D01*
X0317697Y0161268D01*
X0317499Y0160926D01*
X0317220Y0160647D01*
X0316878Y0160449D01*
X0316497Y0160347D01*
X0315295Y0160347D01*
X0315890Y0159753D01*
X0316996Y0159753D01*
X0317915Y0159372D01*
X0318619Y0158669D01*
X0318999Y0157750D01*
X0318999Y0150850D01*
X0318619Y0149931D01*
X0317915Y0149228D01*
X0316996Y0148847D01*
X0316349Y0148847D01*
X0316340Y0148830D01*
X0316004Y0148561D01*
X0315699Y0148257D01*
X0315541Y0148191D01*
X0314427Y0147300D01*
X0316583Y0147300D01*
X0321701Y0152418D01*
X0321701Y0157750D01*
X0322081Y0158669D01*
X0322785Y0159372D01*
X0323703Y0159753D01*
X0323760Y0159753D01*
X0323760Y0159847D01*
X0323703Y0159847D01*
X0322785Y0160228D01*
X0322081Y0160931D01*
X0321701Y0161850D01*
X0321701Y0168750D01*
X0322081Y0169669D01*
X0322785Y0170372D01*
X0323703Y0170753D01*
X0329816Y0170753D01*
X0330500Y0170469D01*
X0331184Y0170753D01*
X0337296Y0170753D01*
X0338215Y0170372D01*
X0338919Y0169669D01*
X0339299Y0168750D01*
X0339299Y0168300D01*
X0344543Y0168300D01*
X0344672Y0168340D01*
X0342700Y0170312D01*
X0342700Y0172000D01*
X0347200Y0172000D01*
X0347200Y0172600D01*
X0347200Y0177100D01*
X0345512Y0177100D01*
X0342700Y0174288D01*
X0342700Y0172600D01*
X0347200Y0172600D01*
X0347800Y0172600D01*
X0352300Y0172600D01*
X0352300Y0174288D01*
X0349488Y0177100D01*
X0347800Y0177100D01*
X0347800Y0172600D01*
X0347800Y0172000D01*
X0352300Y0172000D01*
X0352300Y0170312D01*
X0349995Y0168007D01*
X0353300Y0164702D01*
X0353300Y0159898D01*
X0349902Y0156500D01*
X0345098Y0156500D01*
X0341700Y0159898D01*
X0341700Y0162300D01*
X0339299Y0162300D01*
X0339299Y0161850D01*
X0338919Y0160931D01*
X0338215Y0160228D01*
X0337296Y0159847D01*
X0331184Y0159847D01*
X0330500Y0160130D01*
X0329816Y0159847D01*
X0329760Y0159847D01*
X0329760Y0159753D01*
X0329816Y0159753D01*
X0330500Y0159469D01*
X0331184Y0159753D01*
X0337296Y0159753D01*
X0338215Y0159372D01*
X0338919Y0158669D01*
X0339299Y0157750D01*
X0339299Y0157300D01*
X0341597Y0157300D01*
X0342699Y0156843D01*
X0343543Y0155999D01*
X0345020Y0154523D01*
X0345098Y0154600D01*
X0349902Y0154600D01*
X0353300Y0151202D01*
X0353300Y0146398D01*
X0350702Y0143800D01*
X0353300Y0141202D01*
X0353300Y0136398D01*
X0349902Y0133000D01*
X0345098Y0133000D01*
X0341700Y0136398D01*
X0341700Y0136800D01*
X0339750Y0136800D01*
X0339750Y0134303D01*
X0339369Y0133384D01*
X0338666Y0132681D01*
X0337747Y0132300D01*
X0328993Y0132300D01*
X0321949Y0125257D01*
X0320847Y0124800D01*
X0319147Y0124800D01*
X0318162Y0123816D01*
X0316435Y0123100D01*
X0314565Y0123100D01*
X0312838Y0123816D01*
X0311516Y0125138D01*
X0310800Y0126865D01*
X0310800Y0128735D01*
X0311516Y0130462D01*
X0312838Y0131784D01*
X0314082Y0132300D01*
X0310917Y0132300D01*
X0302800Y0124183D01*
X0302800Y0115379D01*
X0302918Y0115497D01*
X0305646Y0116627D01*
X0308598Y0116627D01*
X0311326Y0115497D01*
X0313413Y0113409D01*
X0314543Y0110682D01*
X0314543Y0107729D01*
X0313413Y0105002D01*
X0311326Y0102914D01*
X0308598Y0101784D01*
X0305646Y0101784D01*
X0302918Y0102914D01*
X0302800Y0103032D01*
X0302800Y0089647D01*
X0303484Y0088962D01*
X0304200Y0087235D01*
X0304200Y0085365D01*
X0303484Y0083638D01*
X0302162Y0082316D01*
X0300435Y0081600D01*
X0298565Y0081600D01*
X0296838Y0082316D01*
X0295516Y0083638D01*
X0294800Y0085365D01*
X0294800Y0086857D01*
X0267058Y0059115D01*
X0266169Y0056970D01*
X0264082Y0054883D01*
X0261354Y0053753D01*
X0258402Y0053753D01*
X0255674Y0054883D01*
X0253587Y0056970D01*
X0252457Y0059698D01*
X0252457Y0062650D01*
X0253587Y0065378D01*
X0255674Y0067465D01*
X0258402Y0068595D01*
X0261354Y0068595D01*
X0264082Y0067465D01*
X0265502Y0066045D01*
X0290000Y0090543D01*
X0290000Y0124153D01*
X0289016Y0125138D01*
X0288300Y0126865D01*
X0288300Y0128735D01*
X0289016Y0130462D01*
X0290338Y0131784D01*
X0292065Y0132500D01*
X0293457Y0132500D01*
X0294224Y0133266D01*
X0293914Y0133087D01*
X0293532Y0132985D01*
X0291850Y0132985D01*
X0291850Y0135772D01*
X0291276Y0135772D01*
X0291276Y0132985D01*
X0289594Y0132985D01*
X0289212Y0133087D01*
X0288870Y0133285D01*
X0288591Y0133564D01*
X0288394Y0133906D01*
X0288291Y0134288D01*
X0288291Y0135772D01*
X0291276Y0135772D01*
X0291276Y0136347D01*
X0291276Y0139135D01*
X0289594Y0139135D01*
X0289212Y0139032D01*
X0288870Y0138835D01*
X0288831Y0138796D01*
X0289000Y0139203D01*
X0289000Y0139587D01*
X0289294Y0139465D01*
X0293832Y0139465D01*
X0294751Y0139846D01*
X0295454Y0140549D01*
X0295559Y0140803D01*
X0295559Y0137728D01*
X0295940Y0136809D01*
X0296643Y0136106D01*
X0296831Y0136028D01*
X0296831Y0135873D01*
X0294553Y0133596D01*
X0294732Y0133906D01*
X0294835Y0134288D01*
X0294835Y0135772D01*
X0291850Y0135772D01*
X0291850Y0136347D01*
X0291276Y0136347D01*
X0288291Y0136347D01*
X0288291Y0137832D01*
X0288297Y0137855D01*
X0287699Y0137257D01*
X0283992Y0133550D01*
X0283992Y0133550D01*
X0283852Y0133409D01*
X0283852Y0133409D01*
X0282381Y0132800D01*
X0237147Y0132800D01*
X0236162Y0131816D01*
X0234435Y0131100D01*
X0232565Y0131100D01*
X0230838Y0131816D01*
X0229516Y0133138D01*
X0228800Y0134865D01*
X0228800Y0136735D01*
X0229516Y0138462D01*
X0230838Y0139784D01*
X0232565Y0140500D01*
X0234435Y0140500D01*
X0236162Y0139784D01*
X0237147Y0138800D01*
X0240963Y0138800D01*
X0240022Y0139741D01*
X0239200Y0141726D01*
X0239200Y0143874D01*
X0240022Y0145859D01*
X0241541Y0147378D01*
X0242560Y0147800D01*
X0241541Y0148222D01*
X0240022Y0149741D01*
X0239200Y0151726D01*
X0239200Y0152857D01*
X0234301Y0157757D01*
X0233457Y0158601D01*
X0233000Y0159703D01*
X0233000Y0184153D01*
X0232016Y0185138D01*
X0231300Y0186865D01*
X0231300Y0188735D01*
X0231838Y0190034D01*
X0231301Y0190257D01*
X0231260Y0190298D01*
X0231260Y0151311D01*
X0230879Y0150392D01*
X0230176Y0149688D01*
X0229257Y0149308D01*
X0185743Y0149308D01*
X0184824Y0149688D01*
X0184121Y0150392D01*
X0183740Y0151311D01*
X0183740Y0193289D01*
X0184121Y0194208D01*
X0184824Y0194912D01*
X0185743Y0195292D01*
X0226265Y0195292D01*
X0225252Y0196306D01*
X0114493Y0196800D01*
X0113903Y0196800D01*
X0113897Y0196803D01*
X0113890Y0196803D01*
X0113347Y0197031D01*
X0112801Y0197257D01*
X0112796Y0197262D01*
X0112789Y0197264D01*
X0112375Y0197682D01*
X0107801Y0202257D01*
X0107801Y0202257D01*
X0106957Y0203101D01*
X0106500Y0204203D01*
X0106500Y0204832D01*
X0105988Y0205044D01*
X0104899Y0206133D01*
X0104756Y0205788D01*
X0103012Y0204044D01*
X0100733Y0203100D01*
X0098267Y0203100D01*
X0095988Y0204044D01*
X0094244Y0205788D01*
X0094101Y0206133D01*
X0093012Y0205044D01*
X0090733Y0204100D01*
X0088267Y0204100D01*
X0085988Y0205044D01*
X0084899Y0206133D01*
X0084756Y0205788D01*
X0083012Y0204044D01*
X0080733Y0203100D01*
X0078267Y0203100D01*
X0075988Y0204044D01*
X0075084Y0204948D01*
X0074616Y0204481D01*
X0073697Y0204100D01*
X0072800Y0204100D01*
X0072800Y0195667D01*
X0087367Y0181100D01*
X0168300Y0181100D01*
X0168300Y0182497D01*
X0168681Y0183416D01*
X0169384Y0184119D01*
X0170303Y0184500D01*
X0178697Y0184500D01*
X0179616Y0184119D01*
X0180319Y0183416D01*
X0180700Y0182497D01*
X0180700Y0174103D01*
X0180319Y0173184D01*
X0179616Y0172481D01*
X0178697Y0172100D01*
X0178054Y0172100D01*
X0178466Y0171688D01*
X0178947Y0171025D01*
X0179319Y0170296D01*
X0179572Y0169518D01*
X0179686Y0168800D01*
X0175000Y0168800D01*
X0175000Y0167800D01*
X0179686Y0167800D01*
X0179572Y0167082D01*
X0179319Y0166304D01*
X0178947Y0165575D01*
X0178466Y0164912D01*
X0177888Y0164334D01*
X0177251Y0163871D01*
X0178012Y0163556D01*
X0179756Y0161812D01*
X0180700Y0159533D01*
X0180700Y0157067D01*
X0179756Y0154788D01*
X0178268Y0153300D01*
X0179756Y0151812D01*
X0180700Y0149533D01*
X0180700Y0147067D01*
X0179756Y0144788D01*
X0178012Y0143044D01*
X0175733Y0142100D01*
X0173267Y0142100D01*
X0170988Y0143044D01*
X0169244Y0144788D01*
X0168300Y0147067D01*
X0168300Y0149533D01*
X0169244Y0151812D01*
X0170732Y0153300D01*
X0169244Y0154788D01*
X0168300Y0157067D01*
X0168300Y0159533D01*
X0169244Y0161812D01*
X0170988Y0163556D01*
X0171749Y0163871D01*
X0171112Y0164334D01*
X0170534Y0164912D01*
X0170053Y0165575D01*
X0169681Y0166304D01*
X0169428Y0167082D01*
X0169314Y0167800D01*
X0174000Y0167800D01*
X0174000Y0168800D01*
X0169314Y0168800D01*
X0169428Y0169518D01*
X0169681Y0170296D01*
X0170053Y0171025D01*
X0170534Y0171688D01*
X0170946Y0172100D01*
X0170303Y0172100D01*
X0169384Y0172481D01*
X0168681Y0173184D01*
X0168300Y0174103D01*
X0168300Y0174500D01*
X0085344Y0174500D01*
X0084131Y0175002D01*
X0083202Y0175931D01*
X0066702Y0192431D01*
X0066200Y0193644D01*
X0066200Y0204100D01*
X0065303Y0204100D01*
X0064384Y0204481D01*
X0063681Y0205184D01*
X0063300Y0206103D01*
X0063300Y0214497D01*
X0063681Y0215416D01*
X0064384Y0216119D01*
X0065303Y0216500D01*
X0067000Y0216500D01*
X0067000Y0233397D01*
X0067457Y0234499D01*
X0069512Y0236555D01*
X0069300Y0237067D01*
X0069300Y0239533D01*
X0070244Y0241812D01*
X0071988Y0243556D01*
X0072749Y0243871D01*
X0072112Y0244334D01*
X0071534Y0244912D01*
X0071053Y0245575D01*
X0070681Y0246304D01*
X0070428Y0247082D01*
X0070314Y0247800D01*
X0075000Y0247800D01*
X0075000Y0248800D01*
X0075500Y0248300D01*
X0076000Y0248800D01*
X0106000Y0248800D01*
X0106000Y0248300D01*
X0106500Y0248498D02*
X0127000Y0248498D01*
X0127000Y0249496D02*
X0111075Y0249496D01*
X0111072Y0249518D02*
X0110819Y0250296D01*
X0110447Y0251025D01*
X0109966Y0251688D01*
X0109388Y0252266D01*
X0108725Y0252747D01*
X0107996Y0253119D01*
X0107218Y0253372D01*
X0106500Y0253486D01*
X0106500Y0248800D01*
X0105500Y0248800D01*
X0105500Y0253486D01*
X0104782Y0253372D01*
X0104004Y0253119D01*
X0103275Y0252747D01*
X0102612Y0252266D01*
X0102034Y0251688D01*
X0101553Y0251025D01*
X0101181Y0250296D01*
X0100928Y0249518D01*
X0100814Y0248800D01*
X0105500Y0248800D01*
X0105500Y0247800D01*
X0100814Y0247800D01*
X0100928Y0247082D01*
X0101181Y0246304D01*
X0101553Y0245575D01*
X0102034Y0244912D01*
X0102612Y0244334D01*
X0103249Y0243871D01*
X0102488Y0243556D01*
X0100744Y0241812D01*
X0100739Y0241800D01*
X0080761Y0241800D01*
X0080756Y0241812D01*
X0079012Y0243556D01*
X0078251Y0243871D01*
X0078888Y0244334D01*
X0079466Y0244912D01*
X0079947Y0245575D01*
X0080319Y0246304D01*
X0080572Y0247082D01*
X0080686Y0247800D01*
X0076000Y0247800D01*
X0076000Y0248800D01*
X0075000Y0248800D01*
X0046000Y0248800D01*
X0046000Y0248300D01*
X0046500Y0248498D02*
X0075000Y0248498D01*
X0075000Y0248800D02*
X0070314Y0248800D01*
X0070428Y0249518D01*
X0070681Y0250296D01*
X0071053Y0251025D01*
X0071534Y0251688D01*
X0072112Y0252266D01*
X0072775Y0252747D01*
X0073504Y0253119D01*
X0074282Y0253372D01*
X0075000Y0253486D01*
X0075000Y0248800D01*
X0075000Y0249496D02*
X0076000Y0249496D01*
X0076000Y0248800D02*
X0076000Y0253486D01*
X0076718Y0253372D01*
X0077496Y0253119D01*
X0078225Y0252747D01*
X0078888Y0252266D01*
X0079466Y0251688D01*
X0079947Y0251025D01*
X0080319Y0250296D01*
X0080572Y0249518D01*
X0080686Y0248800D01*
X0076000Y0248800D01*
X0076000Y0248498D02*
X0105500Y0248498D01*
X0105500Y0249496D02*
X0106500Y0249496D01*
X0106500Y0248800D02*
X0111186Y0248800D01*
X0111072Y0249518D01*
X0110718Y0250495D02*
X0127041Y0250495D01*
X0127000Y0250397D02*
X0127000Y0233703D01*
X0127457Y0232601D01*
X0130012Y0230045D01*
X0129800Y0229533D01*
X0129800Y0227067D01*
X0130325Y0225800D01*
X0112243Y0225800D01*
X0111841Y0226201D01*
X0112200Y0227067D01*
X0112200Y0229533D01*
X0111256Y0231812D01*
X0109768Y0233300D01*
X0111256Y0234788D01*
X0112200Y0237067D01*
X0112200Y0239533D01*
X0111256Y0241812D01*
X0109512Y0243556D01*
X0108751Y0243871D01*
X0109388Y0244334D01*
X0109966Y0244912D01*
X0110447Y0245575D01*
X0110819Y0246304D01*
X0111072Y0247082D01*
X0111186Y0247800D01*
X0106500Y0247800D01*
X0106500Y0248800D01*
X0106500Y0250495D02*
X0105500Y0250495D01*
X0105500Y0251493D02*
X0106500Y0251493D01*
X0106500Y0252492D02*
X0105500Y0252492D01*
X0102923Y0252492D02*
X0078577Y0252492D01*
X0079607Y0251493D02*
X0101893Y0251493D01*
X0101282Y0250495D02*
X0080218Y0250495D01*
X0080575Y0249496D02*
X0100925Y0249496D01*
X0100862Y0247499D02*
X0080638Y0247499D01*
X0080383Y0246501D02*
X0101117Y0246501D01*
X0101605Y0245502D02*
X0079895Y0245502D01*
X0079058Y0244504D02*
X0102442Y0244504D01*
X0102437Y0243505D02*
X0079063Y0243505D01*
X0080061Y0242507D02*
X0101439Y0242507D01*
X0106000Y0238800D02*
X0106000Y0238300D01*
X0106000Y0238800D02*
X0076000Y0238800D01*
X0075500Y0238300D01*
X0070000Y0232800D01*
X0070000Y0210800D01*
X0069500Y0210300D01*
X0063300Y0210554D02*
X0049000Y0210554D01*
X0049000Y0209556D02*
X0063300Y0209556D01*
X0063300Y0208557D02*
X0049000Y0208557D01*
X0049000Y0207559D02*
X0063300Y0207559D01*
X0063300Y0206560D02*
X0049482Y0206560D01*
X0049000Y0207043D02*
X0049000Y0222832D01*
X0049512Y0223044D01*
X0051256Y0224788D01*
X0052200Y0227067D01*
X0052200Y0229533D01*
X0051256Y0231812D01*
X0049768Y0233300D01*
X0051256Y0234788D01*
X0052200Y0237067D01*
X0052200Y0239533D01*
X0051256Y0241812D01*
X0049512Y0243556D01*
X0048751Y0243871D01*
X0049388Y0244334D01*
X0049966Y0244912D01*
X0050447Y0245575D01*
X0050819Y0246304D01*
X0051072Y0247082D01*
X0051186Y0247800D01*
X0046500Y0247800D01*
X0046500Y0248800D01*
X0045500Y0248800D01*
X0045500Y0253486D01*
X0044782Y0253372D01*
X0044004Y0253119D01*
X0043275Y0252747D01*
X0042612Y0252266D01*
X0042034Y0251688D01*
X0041553Y0251025D01*
X0041181Y0250296D01*
X0040928Y0249518D01*
X0040814Y0248800D01*
X0045500Y0248800D01*
X0045500Y0247800D01*
X0040814Y0247800D01*
X0040928Y0247082D01*
X0041181Y0246304D01*
X0041553Y0245575D01*
X0042034Y0244912D01*
X0042612Y0244334D01*
X0043249Y0243871D01*
X0042488Y0243556D01*
X0040744Y0241812D01*
X0039800Y0239533D01*
X0039800Y0237067D01*
X0039888Y0236855D01*
X0038131Y0235098D01*
X0037300Y0234267D01*
X0037300Y0257495D01*
X0133308Y0257347D01*
X0133301Y0257343D01*
X0127457Y0251499D01*
X0127000Y0250397D01*
X0127454Y0251493D02*
X0110107Y0251493D01*
X0109077Y0252492D02*
X0128449Y0252492D01*
X0129448Y0253490D02*
X0037300Y0253490D01*
X0037300Y0252492D02*
X0042923Y0252492D01*
X0041893Y0251493D02*
X0037300Y0251493D01*
X0037300Y0250495D02*
X0041282Y0250495D01*
X0040925Y0249496D02*
X0037300Y0249496D01*
X0037300Y0248498D02*
X0045500Y0248498D01*
X0045500Y0249496D02*
X0046500Y0249496D01*
X0046500Y0248800D02*
X0046500Y0253486D01*
X0047218Y0253372D01*
X0047996Y0253119D01*
X0048725Y0252747D01*
X0049388Y0252266D01*
X0049966Y0251688D01*
X0050447Y0251025D01*
X0050819Y0250296D01*
X0051072Y0249518D01*
X0051186Y0248800D01*
X0046500Y0248800D01*
X0046500Y0250495D02*
X0045500Y0250495D01*
X0045500Y0251493D02*
X0046500Y0251493D01*
X0046500Y0252492D02*
X0045500Y0252492D01*
X0049077Y0252492D02*
X0072423Y0252492D01*
X0071393Y0251493D02*
X0050107Y0251493D01*
X0050718Y0250495D02*
X0070782Y0250495D01*
X0070425Y0249496D02*
X0051075Y0249496D01*
X0051138Y0247499D02*
X0070362Y0247499D01*
X0070617Y0246501D02*
X0050883Y0246501D01*
X0050395Y0245502D02*
X0071105Y0245502D01*
X0071942Y0244504D02*
X0049558Y0244504D01*
X0049563Y0243505D02*
X0071937Y0243505D01*
X0070939Y0242507D02*
X0050561Y0242507D01*
X0051382Y0241508D02*
X0070118Y0241508D01*
X0069704Y0240510D02*
X0051796Y0240510D01*
X0052200Y0239511D02*
X0069300Y0239511D01*
X0069300Y0238513D02*
X0052200Y0238513D01*
X0052200Y0237514D02*
X0069300Y0237514D01*
X0069473Y0236516D02*
X0051972Y0236516D01*
X0051558Y0235517D02*
X0068475Y0235517D01*
X0067476Y0234519D02*
X0050987Y0234519D01*
X0049988Y0233520D02*
X0067051Y0233520D01*
X0067000Y0232522D02*
X0050546Y0232522D01*
X0051376Y0231523D02*
X0067000Y0231523D01*
X0067000Y0230525D02*
X0051789Y0230525D01*
X0052200Y0229526D02*
X0067000Y0229526D01*
X0067000Y0228528D02*
X0052200Y0228528D01*
X0052200Y0227529D02*
X0067000Y0227529D01*
X0067000Y0226531D02*
X0051978Y0226531D01*
X0051564Y0225532D02*
X0067000Y0225532D01*
X0067000Y0224534D02*
X0051002Y0224534D01*
X0050003Y0223535D02*
X0067000Y0223535D01*
X0067000Y0222537D02*
X0049000Y0222537D01*
X0049000Y0221538D02*
X0067000Y0221538D01*
X0067000Y0220539D02*
X0049000Y0220539D01*
X0049000Y0219541D02*
X0067000Y0219541D01*
X0067000Y0218542D02*
X0049000Y0218542D01*
X0049000Y0217544D02*
X0067000Y0217544D01*
X0067000Y0216545D02*
X0049000Y0216545D01*
X0049000Y0215547D02*
X0063811Y0215547D01*
X0063321Y0214548D02*
X0049000Y0214548D01*
X0049000Y0213550D02*
X0063300Y0213550D01*
X0063300Y0212551D02*
X0049000Y0212551D01*
X0049000Y0211553D02*
X0063300Y0211553D01*
X0063524Y0205562D02*
X0050481Y0205562D01*
X0051479Y0204563D02*
X0064301Y0204563D01*
X0066200Y0203565D02*
X0052478Y0203565D01*
X0053476Y0202566D02*
X0066200Y0202566D01*
X0066200Y0201568D02*
X0054475Y0201568D01*
X0055473Y0200569D02*
X0066200Y0200569D01*
X0066200Y0199571D02*
X0056472Y0199571D01*
X0057470Y0198572D02*
X0066200Y0198572D01*
X0066200Y0197574D02*
X0058469Y0197574D01*
X0059467Y0196575D02*
X0066200Y0196575D01*
X0066200Y0195577D02*
X0060466Y0195577D01*
X0061464Y0194578D02*
X0066200Y0194578D01*
X0066226Y0193580D02*
X0062463Y0193580D01*
X0063461Y0192581D02*
X0066640Y0192581D01*
X0067550Y0191583D02*
X0064460Y0191583D01*
X0065458Y0190584D02*
X0068549Y0190584D01*
X0069547Y0189586D02*
X0066457Y0189586D01*
X0067456Y0188587D02*
X0070546Y0188587D01*
X0071544Y0187589D02*
X0068454Y0187589D01*
X0069453Y0186590D02*
X0072543Y0186590D01*
X0073542Y0185592D02*
X0070451Y0185592D01*
X0071450Y0184593D02*
X0074540Y0184593D01*
X0075539Y0183595D02*
X0072448Y0183595D01*
X0073447Y0182596D02*
X0076537Y0182596D01*
X0077536Y0181598D02*
X0074445Y0181598D01*
X0075444Y0180599D02*
X0078534Y0180599D01*
X0079533Y0179601D02*
X0076442Y0179601D01*
X0077441Y0178602D02*
X0080531Y0178602D01*
X0081530Y0177603D02*
X0078439Y0177603D01*
X0079438Y0176605D02*
X0082528Y0176605D01*
X0083527Y0175606D02*
X0080436Y0175606D01*
X0081435Y0174608D02*
X0085083Y0174608D01*
X0083432Y0172611D02*
X0169254Y0172611D01*
X0168504Y0173609D02*
X0082433Y0173609D01*
X0084430Y0171612D02*
X0170479Y0171612D01*
X0169843Y0170614D02*
X0085429Y0170614D01*
X0086427Y0169615D02*
X0169460Y0169615D01*
X0169343Y0167618D02*
X0088424Y0167618D01*
X0089423Y0166620D02*
X0169578Y0166620D01*
X0170029Y0165621D02*
X0090421Y0165621D01*
X0091420Y0164623D02*
X0170823Y0164623D01*
X0171153Y0163624D02*
X0092418Y0163624D01*
X0093417Y0162626D02*
X0170058Y0162626D01*
X0169167Y0161627D02*
X0094415Y0161627D01*
X0095414Y0160629D02*
X0168754Y0160629D01*
X0168340Y0159630D02*
X0096412Y0159630D01*
X0097411Y0158632D02*
X0168300Y0158632D01*
X0168300Y0157633D02*
X0098409Y0157633D01*
X0099408Y0156635D02*
X0168479Y0156635D01*
X0168893Y0155636D02*
X0100406Y0155636D01*
X0101405Y0154638D02*
X0169394Y0154638D01*
X0170393Y0153639D02*
X0102403Y0153639D01*
X0103402Y0152641D02*
X0170073Y0152641D01*
X0169174Y0151642D02*
X0104400Y0151642D01*
X0105399Y0150644D02*
X0168760Y0150644D01*
X0168346Y0149645D02*
X0106397Y0149645D01*
X0107396Y0148647D02*
X0168300Y0148647D01*
X0168300Y0147648D02*
X0108394Y0147648D01*
X0109393Y0146650D02*
X0168473Y0146650D01*
X0168886Y0145651D02*
X0110391Y0145651D01*
X0111390Y0144653D02*
X0169379Y0144653D01*
X0170378Y0143654D02*
X0112389Y0143654D01*
X0113387Y0142656D02*
X0171925Y0142656D01*
X0177075Y0142656D02*
X0189500Y0142656D01*
X0189500Y0143654D02*
X0178622Y0143654D01*
X0179621Y0144653D02*
X0189668Y0144653D01*
X0189500Y0144247D02*
X0189500Y0140133D01*
X0184363Y0134996D01*
X0183800Y0133636D01*
X0183800Y0127619D01*
X0183328Y0127423D01*
X0182625Y0126720D01*
X0182244Y0125801D01*
X0182244Y0117725D01*
X0179519Y0115000D01*
X0143968Y0115000D01*
X0144756Y0115788D01*
X0145700Y0118067D01*
X0145700Y0120533D01*
X0144756Y0122812D01*
X0143012Y0124556D01*
X0140733Y0125500D01*
X0138267Y0125500D01*
X0135988Y0124556D01*
X0134899Y0123467D01*
X0134756Y0123812D01*
X0133012Y0125556D01*
X0130733Y0126500D01*
X0128267Y0126500D01*
X0125988Y0125556D01*
X0124244Y0123812D01*
X0124101Y0123467D01*
X0123012Y0124556D01*
X0122000Y0124975D01*
X0122000Y0133397D01*
X0121543Y0134499D01*
X0120699Y0135343D01*
X0049000Y0207043D01*
X0046000Y0205800D02*
X0119000Y0132800D01*
X0119000Y0119800D01*
X0119500Y0119300D01*
X0115116Y0123684D02*
X0114809Y0123684D01*
X0114756Y0123812D02*
X0113012Y0125556D01*
X0110733Y0126500D01*
X0108267Y0126500D01*
X0105988Y0125556D01*
X0104244Y0123812D01*
X0104101Y0123467D01*
X0103012Y0124556D01*
X0100733Y0125500D01*
X0098267Y0125500D01*
X0095988Y0124556D01*
X0094899Y0123467D01*
X0094756Y0123812D01*
X0093012Y0125556D01*
X0090733Y0126500D01*
X0088267Y0126500D01*
X0085988Y0125556D01*
X0084244Y0123812D01*
X0083665Y0122414D01*
X0083466Y0122688D01*
X0082888Y0123266D01*
X0082225Y0123747D01*
X0081496Y0124119D01*
X0080718Y0124372D01*
X0080000Y0124486D01*
X0080000Y0119800D01*
X0079000Y0119800D01*
X0079000Y0124486D01*
X0078282Y0124372D01*
X0077504Y0124119D01*
X0076775Y0123747D01*
X0076112Y0123266D01*
X0075700Y0122854D01*
X0075700Y0124497D01*
X0075319Y0125416D01*
X0074616Y0126119D01*
X0073697Y0126500D01*
X0072300Y0126500D01*
X0072300Y0175257D01*
X0116000Y0131557D01*
X0116000Y0124561D01*
X0115988Y0124556D01*
X0114899Y0123467D01*
X0114756Y0123812D01*
X0113886Y0124682D02*
X0116000Y0124682D01*
X0116000Y0125681D02*
X0112711Y0125681D01*
X0116000Y0126679D02*
X0072300Y0126679D01*
X0072300Y0127678D02*
X0116000Y0127678D01*
X0116000Y0128676D02*
X0072300Y0128676D01*
X0072300Y0129675D02*
X0116000Y0129675D01*
X0116000Y0130673D02*
X0072300Y0130673D01*
X0072300Y0131672D02*
X0115885Y0131672D01*
X0114887Y0132670D02*
X0072300Y0132670D01*
X0072300Y0133669D02*
X0113888Y0133669D01*
X0112890Y0134668D02*
X0072300Y0134668D01*
X0072300Y0135666D02*
X0111891Y0135666D01*
X0110893Y0136665D02*
X0072300Y0136665D01*
X0072300Y0137663D02*
X0109894Y0137663D01*
X0108896Y0138662D02*
X0072300Y0138662D01*
X0072300Y0139660D02*
X0107897Y0139660D01*
X0106899Y0140659D02*
X0072300Y0140659D01*
X0072300Y0141657D02*
X0105900Y0141657D01*
X0104902Y0142656D02*
X0072300Y0142656D01*
X0072300Y0143654D02*
X0103903Y0143654D01*
X0102905Y0144653D02*
X0072300Y0144653D01*
X0072300Y0145651D02*
X0101906Y0145651D01*
X0100908Y0146650D02*
X0072300Y0146650D01*
X0072300Y0147648D02*
X0099909Y0147648D01*
X0098911Y0148647D02*
X0072300Y0148647D01*
X0072300Y0149645D02*
X0097912Y0149645D01*
X0096914Y0150644D02*
X0072300Y0150644D01*
X0072300Y0151642D02*
X0095915Y0151642D01*
X0094917Y0152641D02*
X0072300Y0152641D01*
X0072300Y0153639D02*
X0093918Y0153639D01*
X0092920Y0154638D02*
X0072300Y0154638D01*
X0072300Y0155636D02*
X0091921Y0155636D01*
X0090923Y0156635D02*
X0072300Y0156635D01*
X0072300Y0157633D02*
X0089924Y0157633D01*
X0088926Y0158632D02*
X0072300Y0158632D01*
X0072300Y0159630D02*
X0087927Y0159630D01*
X0086929Y0160629D02*
X0072300Y0160629D01*
X0072300Y0161627D02*
X0085930Y0161627D01*
X0084932Y0162626D02*
X0072300Y0162626D01*
X0072300Y0163624D02*
X0083933Y0163624D01*
X0082934Y0164623D02*
X0072300Y0164623D01*
X0072300Y0165621D02*
X0081936Y0165621D01*
X0080937Y0166620D02*
X0072300Y0166620D01*
X0072300Y0167618D02*
X0079939Y0167618D01*
X0078940Y0168617D02*
X0072300Y0168617D01*
X0072300Y0169615D02*
X0077942Y0169615D01*
X0076943Y0170614D02*
X0072300Y0170614D01*
X0072300Y0171612D02*
X0075945Y0171612D01*
X0074946Y0172611D02*
X0072300Y0172611D01*
X0072300Y0173609D02*
X0073948Y0173609D01*
X0072949Y0174608D02*
X0072300Y0174608D01*
X0083874Y0184593D02*
X0183740Y0184593D01*
X0183740Y0183595D02*
X0180141Y0183595D01*
X0180659Y0182596D02*
X0183740Y0182596D01*
X0183740Y0181598D02*
X0180700Y0181598D01*
X0180700Y0180599D02*
X0183740Y0180599D01*
X0183740Y0179601D02*
X0180700Y0179601D01*
X0180700Y0178602D02*
X0183740Y0178602D01*
X0183740Y0177603D02*
X0180700Y0177603D01*
X0180700Y0176605D02*
X0183740Y0176605D01*
X0183740Y0175606D02*
X0180700Y0175606D01*
X0180700Y0174608D02*
X0183740Y0174608D01*
X0183740Y0173609D02*
X0180496Y0173609D01*
X0179746Y0172611D02*
X0183740Y0172611D01*
X0183740Y0171612D02*
X0178521Y0171612D01*
X0179157Y0170614D02*
X0183740Y0170614D01*
X0183740Y0169615D02*
X0179540Y0169615D01*
X0180000Y0168300D02*
X0182000Y0166300D01*
X0182000Y0151800D01*
X0186000Y0147800D01*
X0203500Y0147800D01*
X0207500Y0143800D01*
X0207500Y0139500D01*
X0208000Y0140000D02*
X0207000Y0140000D01*
X0207000Y0145250D01*
X0205203Y0145250D01*
X0204992Y0145194D01*
X0204316Y0145869D01*
X0203397Y0146250D01*
X0198203Y0146250D01*
X0197450Y0145938D01*
X0196697Y0146250D01*
X0191503Y0146250D01*
X0190584Y0145869D01*
X0189881Y0145166D01*
X0189500Y0144247D01*
X0190366Y0145651D02*
X0180114Y0145651D01*
X0180527Y0146650D02*
X0240813Y0146650D01*
X0239936Y0145651D02*
X0217934Y0145651D01*
X0217716Y0145869D02*
X0216797Y0146250D01*
X0211603Y0146250D01*
X0210684Y0145869D01*
X0210008Y0145194D01*
X0209797Y0145250D01*
X0208000Y0145250D01*
X0208000Y0140000D01*
X0208000Y0140659D02*
X0207000Y0140659D01*
X0207000Y0141657D02*
X0208000Y0141657D01*
X0208000Y0142656D02*
X0207000Y0142656D01*
X0207000Y0143654D02*
X0208000Y0143654D01*
X0207500Y0143800D02*
X0211000Y0147300D01*
X0217600Y0147300D01*
X0220900Y0144000D01*
X0220900Y0139500D01*
X0221400Y0139660D02*
X0230713Y0139660D01*
X0229715Y0138662D02*
X0224500Y0138662D01*
X0224500Y0139000D02*
X0221400Y0139000D01*
X0221400Y0140000D01*
X0220400Y0140000D01*
X0220400Y0145250D01*
X0218603Y0145250D01*
X0218392Y0145194D01*
X0217716Y0145869D01*
X0220400Y0144653D02*
X0221400Y0144653D01*
X0221400Y0145250D02*
X0221400Y0140000D01*
X0224500Y0140000D01*
X0224500Y0143947D01*
X0224398Y0144329D01*
X0224200Y0144671D01*
X0223921Y0144950D01*
X0223579Y0145148D01*
X0223197Y0145250D01*
X0221400Y0145250D01*
X0221400Y0143654D02*
X0220400Y0143654D01*
X0220400Y0142656D02*
X0221400Y0142656D01*
X0221400Y0141657D02*
X0220400Y0141657D01*
X0220400Y0140659D02*
X0221400Y0140659D01*
X0221400Y0139000D02*
X0221400Y0133750D01*
X0223197Y0133750D01*
X0223579Y0133852D01*
X0223921Y0134050D01*
X0224200Y0134329D01*
X0224398Y0134671D01*
X0224500Y0135053D01*
X0224500Y0139000D01*
X0224500Y0137663D02*
X0229184Y0137663D01*
X0228800Y0136665D02*
X0224500Y0136665D01*
X0224500Y0135666D02*
X0228800Y0135666D01*
X0228882Y0134668D02*
X0224396Y0134668D01*
X0221400Y0134668D02*
X0220400Y0134668D01*
X0220400Y0133750D02*
X0220400Y0139000D01*
X0221400Y0139000D01*
X0221400Y0138662D02*
X0220400Y0138662D01*
X0220400Y0137663D02*
X0221400Y0137663D01*
X0221400Y0136665D02*
X0220400Y0136665D01*
X0220400Y0135666D02*
X0221400Y0135666D01*
X0220400Y0133750D02*
X0218603Y0133750D01*
X0218392Y0133806D01*
X0217716Y0133131D01*
X0217500Y0133041D01*
X0217500Y0132067D01*
X0228018Y0121549D01*
X0228744Y0121549D01*
X0228744Y0126301D01*
X0229125Y0127220D01*
X0229828Y0127923D01*
X0230747Y0128304D01*
X0237253Y0128304D01*
X0238172Y0127923D01*
X0238875Y0127220D01*
X0239256Y0126301D01*
X0239256Y0110196D01*
X0238875Y0109278D01*
X0238172Y0108574D01*
X0237253Y0108194D01*
X0230747Y0108194D01*
X0229828Y0108574D01*
X0229125Y0109278D01*
X0229000Y0109579D01*
X0229000Y0105447D01*
X0229984Y0104462D01*
X0230188Y0103971D01*
X0230323Y0104107D01*
X0230665Y0104304D01*
X0231047Y0104406D01*
X0233500Y0104406D01*
X0233500Y0095851D01*
X0233500Y0094851D01*
X0234500Y0094851D01*
X0234500Y0086296D01*
X0236953Y0086296D01*
X0237335Y0086398D01*
X0237677Y0086596D01*
X0237956Y0086875D01*
X0238154Y0087217D01*
X0238256Y0087599D01*
X0238256Y0094851D01*
X0234500Y0094851D01*
X0234500Y0095851D01*
X0238256Y0095851D01*
X0238256Y0103104D01*
X0238154Y0103485D01*
X0237956Y0103827D01*
X0237677Y0104107D01*
X0237335Y0104304D01*
X0236953Y0104406D01*
X0234500Y0104406D01*
X0234500Y0095851D01*
X0233500Y0095851D01*
X0229744Y0095851D01*
X0229744Y0098897D01*
X0228662Y0097816D01*
X0226935Y0097100D01*
X0225065Y0097100D01*
X0223338Y0097816D01*
X0222016Y0099138D01*
X0221300Y0100865D01*
X0221300Y0102735D01*
X0222016Y0104462D01*
X0223000Y0105447D01*
X0223000Y0117233D01*
X0212331Y0127902D01*
X0211402Y0128831D01*
X0210900Y0130044D01*
X0210900Y0133041D01*
X0210684Y0133131D01*
X0210008Y0133806D01*
X0209797Y0133750D01*
X0208000Y0133750D01*
X0208000Y0139000D01*
X0207000Y0139000D01*
X0207000Y0133750D01*
X0205203Y0133750D01*
X0204992Y0133806D01*
X0204316Y0133131D01*
X0204100Y0133041D01*
X0204100Y0122331D01*
X0210167Y0116265D01*
X0213891Y0116265D01*
X0214810Y0115884D01*
X0215513Y0115181D01*
X0215894Y0114262D01*
X0215894Y0108267D01*
X0215513Y0107348D01*
X0214810Y0106645D01*
X0213891Y0106265D01*
X0210167Y0106265D01*
X0207405Y0103502D01*
X0206192Y0103000D01*
X0191645Y0103000D01*
X0191654Y0102985D01*
X0191756Y0102604D01*
X0191756Y0095351D01*
X0188000Y0095351D01*
X0188000Y0094351D01*
X0188000Y0085796D01*
X0190453Y0085796D01*
X0190835Y0085898D01*
X0191177Y0086096D01*
X0191456Y0086375D01*
X0191654Y0086717D01*
X0191756Y0087099D01*
X0191756Y0094351D01*
X0188000Y0094351D01*
X0187000Y0094351D01*
X0187000Y0085796D01*
X0184547Y0085796D01*
X0184165Y0085898D01*
X0183823Y0086096D01*
X0183544Y0086375D01*
X0183346Y0086717D01*
X0183244Y0087099D01*
X0183244Y0094351D01*
X0187000Y0094351D01*
X0187000Y0095351D01*
X0183244Y0095351D01*
X0183244Y0101377D01*
X0177023Y0095156D01*
X0175810Y0094654D01*
X0149827Y0094654D01*
X0149827Y0093729D02*
X0183244Y0093729D01*
X0183244Y0092730D02*
X0149827Y0092730D01*
X0149827Y0091732D02*
X0183244Y0091732D01*
X0183244Y0090733D02*
X0149827Y0090733D01*
X0149827Y0089734D02*
X0183244Y0089734D01*
X0183244Y0088736D02*
X0149476Y0088736D01*
X0148205Y0087737D02*
X0183244Y0087737D01*
X0183340Y0086739D02*
X0103419Y0086739D01*
X0103378Y0087104D02*
X0103128Y0088199D01*
X0102757Y0089259D01*
X0102270Y0090271D01*
X0101672Y0091222D01*
X0100972Y0092100D01*
X0100178Y0092894D01*
X0099300Y0093594D01*
X0098349Y0094192D01*
X0097337Y0094679D01*
X0096277Y0095050D01*
X0095182Y0095300D01*
X0094066Y0095426D01*
X0094004Y0095426D01*
X0094004Y0085926D01*
X0103504Y0085926D01*
X0103504Y0085988D01*
X0103378Y0087104D01*
X0103234Y0087737D02*
X0124795Y0087737D01*
X0123524Y0088736D02*
X0102940Y0088736D01*
X0102528Y0089734D02*
X0123173Y0089734D01*
X0123173Y0090733D02*
X0101980Y0090733D01*
X0101266Y0091732D02*
X0123173Y0091732D01*
X0123173Y0092730D02*
X0100342Y0092730D01*
X0099086Y0093729D02*
X0123173Y0093729D01*
X0123173Y0094727D02*
X0097200Y0094727D01*
X0094004Y0094727D02*
X0093004Y0094727D01*
X0093004Y0095426D02*
X0092942Y0095426D01*
X0091826Y0095300D01*
X0090731Y0095050D01*
X0089671Y0094679D01*
X0088659Y0094192D01*
X0087708Y0093594D01*
X0086830Y0092894D01*
X0086036Y0092100D01*
X0085335Y0091222D01*
X0084738Y0090271D01*
X0084251Y0089259D01*
X0083880Y0088199D01*
X0083630Y0087104D01*
X0083504Y0085988D01*
X0083504Y0085926D01*
X0093004Y0085926D01*
X0093004Y0095426D01*
X0093004Y0093729D02*
X0094004Y0093729D01*
X0094004Y0092730D02*
X0093004Y0092730D01*
X0093004Y0091732D02*
X0094004Y0091732D01*
X0094004Y0090733D02*
X0093004Y0090733D01*
X0093004Y0089734D02*
X0094004Y0089734D01*
X0094004Y0088736D02*
X0093004Y0088736D01*
X0093004Y0087737D02*
X0094004Y0087737D01*
X0094004Y0086739D02*
X0093004Y0086739D01*
X0093004Y0085926D02*
X0094004Y0085926D01*
X0094004Y0084926D01*
X0103504Y0084926D01*
X0103504Y0084864D01*
X0103378Y0083748D01*
X0103128Y0082653D01*
X0102757Y0081593D01*
X0102270Y0080581D01*
X0101672Y0079630D01*
X0100972Y0078752D01*
X0100178Y0077958D01*
X0099300Y0077258D01*
X0098349Y0076660D01*
X0097337Y0076173D01*
X0096277Y0075802D01*
X0095182Y0075552D01*
X0094066Y0075426D01*
X0094004Y0075426D01*
X0094004Y0084926D01*
X0093004Y0084926D01*
X0093004Y0075426D01*
X0092942Y0075426D01*
X0091826Y0075552D01*
X0090731Y0075802D01*
X0089671Y0076173D01*
X0088659Y0076660D01*
X0087708Y0077258D01*
X0086830Y0077958D01*
X0086036Y0078752D01*
X0085335Y0079630D01*
X0084738Y0080581D01*
X0084251Y0081593D01*
X0083880Y0082653D01*
X0083630Y0083748D01*
X0083504Y0084864D01*
X0083504Y0084926D01*
X0093004Y0084926D01*
X0093004Y0085926D01*
X0093004Y0085740D02*
X0059800Y0085740D01*
X0059800Y0084742D02*
X0083518Y0084742D01*
X0083631Y0083743D02*
X0059800Y0083743D01*
X0059800Y0082745D02*
X0070911Y0082745D01*
X0071167Y0082868D02*
X0070155Y0082381D01*
X0069204Y0081783D01*
X0068326Y0081083D01*
X0067532Y0080289D01*
X0066832Y0079411D01*
X0066234Y0078460D01*
X0065747Y0077448D01*
X0065376Y0076388D01*
X0065126Y0075293D01*
X0065000Y0074177D01*
X0065000Y0074115D01*
X0074500Y0074115D01*
X0074500Y0083615D01*
X0074438Y0083615D01*
X0073322Y0083489D01*
X0072227Y0083239D01*
X0071167Y0082868D01*
X0069158Y0081746D02*
X0059800Y0081746D01*
X0059800Y0080748D02*
X0067991Y0080748D01*
X0067102Y0079749D02*
X0059800Y0079749D01*
X0059800Y0078751D02*
X0066417Y0078751D01*
X0065893Y0077752D02*
X0059800Y0077752D01*
X0059800Y0076754D02*
X0065504Y0076754D01*
X0065231Y0075755D02*
X0059800Y0075755D01*
X0059800Y0074757D02*
X0065065Y0074757D01*
X0065000Y0073115D02*
X0065000Y0073053D01*
X0065126Y0071937D01*
X0065376Y0070842D01*
X0065747Y0069782D01*
X0066234Y0068770D01*
X0066832Y0067819D01*
X0067532Y0066941D01*
X0068326Y0066147D01*
X0069204Y0065446D01*
X0070155Y0064849D01*
X0071167Y0064362D01*
X0072227Y0063991D01*
X0073322Y0063741D01*
X0074438Y0063615D01*
X0074500Y0063615D01*
X0074500Y0073115D01*
X0065000Y0073115D01*
X0065033Y0072760D02*
X0059800Y0072760D01*
X0059800Y0073758D02*
X0074500Y0073758D01*
X0074500Y0074115D02*
X0074500Y0073115D01*
X0075500Y0073115D01*
X0075500Y0074115D01*
X0074500Y0074115D01*
X0074500Y0074757D02*
X0075500Y0074757D01*
X0075500Y0074115D02*
X0075500Y0083615D01*
X0075562Y0083615D01*
X0076678Y0083489D01*
X0077773Y0083239D01*
X0078833Y0082868D01*
X0079845Y0082381D01*
X0080796Y0081783D01*
X0081674Y0081083D01*
X0082468Y0080289D01*
X0083168Y0079411D01*
X0083766Y0078460D01*
X0084253Y0077448D01*
X0084624Y0076388D01*
X0084874Y0075293D01*
X0085000Y0074177D01*
X0085000Y0074115D01*
X0075500Y0074115D01*
X0075500Y0073758D02*
X0175664Y0073758D01*
X0175250Y0072760D02*
X0084967Y0072760D01*
X0085000Y0073053D02*
X0085000Y0073115D01*
X0075500Y0073115D01*
X0075500Y0063615D01*
X0075562Y0063615D01*
X0076678Y0063741D01*
X0077773Y0063991D01*
X0078833Y0064362D01*
X0079845Y0064849D01*
X0080796Y0065446D01*
X0081674Y0066147D01*
X0082468Y0066941D01*
X0083168Y0067819D01*
X0083766Y0068770D01*
X0084253Y0069782D01*
X0084624Y0070842D01*
X0084874Y0071937D01*
X0085000Y0073053D01*
X0084834Y0071761D02*
X0175007Y0071761D01*
X0175007Y0070763D02*
X0084596Y0070763D01*
X0084245Y0069764D02*
X0175007Y0069764D01*
X0175007Y0068766D02*
X0083763Y0068766D01*
X0083127Y0067767D02*
X0175007Y0067767D01*
X0175007Y0066769D02*
X0082296Y0066769D01*
X0081202Y0065770D02*
X0175007Y0065770D01*
X0175007Y0064772D02*
X0148425Y0064772D01*
X0149514Y0063773D02*
X0175007Y0063773D01*
X0175007Y0062775D02*
X0149827Y0062775D01*
X0149827Y0061776D02*
X0175277Y0061776D01*
X0175691Y0060778D02*
X0149827Y0060778D01*
X0149827Y0059779D02*
X0176331Y0059779D01*
X0177329Y0058781D02*
X0149827Y0058781D01*
X0149827Y0050793D02*
X0276506Y0050793D01*
X0276092Y0051791D02*
X0209734Y0051791D01*
X0210814Y0052790D02*
X0276079Y0052790D01*
X0276079Y0053788D02*
X0261439Y0053788D01*
X0263850Y0054787D02*
X0276083Y0054787D01*
X0276497Y0055785D02*
X0264984Y0055785D01*
X0265983Y0056784D02*
X0276910Y0056784D01*
X0277487Y0057782D02*
X0266506Y0057782D01*
X0266919Y0058781D02*
X0278485Y0058781D01*
X0279749Y0059779D02*
X0267722Y0059779D01*
X0268720Y0060778D02*
X0283907Y0060778D01*
X0284905Y0061776D02*
X0269719Y0061776D01*
X0270717Y0062775D02*
X0285904Y0062775D01*
X0286902Y0063773D02*
X0271716Y0063773D01*
X0272714Y0064772D02*
X0287901Y0064772D01*
X0288899Y0065770D02*
X0273713Y0065770D01*
X0274711Y0066769D02*
X0289898Y0066769D01*
X0290896Y0067767D02*
X0275710Y0067767D01*
X0276708Y0068766D02*
X0291895Y0068766D01*
X0292893Y0069764D02*
X0277707Y0069764D01*
X0278705Y0070763D02*
X0293892Y0070763D01*
X0294890Y0071761D02*
X0279704Y0071761D01*
X0280702Y0072760D02*
X0295889Y0072760D01*
X0296887Y0073758D02*
X0281701Y0073758D01*
X0282699Y0074757D02*
X0297886Y0074757D01*
X0298884Y0075755D02*
X0283698Y0075755D01*
X0284696Y0076754D02*
X0299883Y0076754D01*
X0300881Y0077752D02*
X0285695Y0077752D01*
X0286694Y0078751D02*
X0301880Y0078751D01*
X0302878Y0079749D02*
X0287692Y0079749D01*
X0288691Y0080748D02*
X0303877Y0080748D01*
X0304875Y0081746D02*
X0300788Y0081746D01*
X0302592Y0082745D02*
X0305874Y0082745D01*
X0306872Y0083743D02*
X0303528Y0083743D01*
X0303942Y0084742D02*
X0307871Y0084742D01*
X0308869Y0085740D02*
X0304200Y0085740D01*
X0304200Y0086739D02*
X0309868Y0086739D01*
X0310866Y0087737D02*
X0303992Y0087737D01*
X0303578Y0088736D02*
X0311865Y0088736D01*
X0312863Y0089734D02*
X0302800Y0089734D01*
X0302800Y0090733D02*
X0313862Y0090733D01*
X0314860Y0091732D02*
X0302800Y0091732D01*
X0302800Y0092730D02*
X0315859Y0092730D01*
X0316857Y0093729D02*
X0302800Y0093729D01*
X0302800Y0094727D02*
X0317856Y0094727D01*
X0318855Y0095726D02*
X0302800Y0095726D01*
X0302800Y0096724D02*
X0319853Y0096724D01*
X0320852Y0097723D02*
X0302800Y0097723D01*
X0302800Y0098721D02*
X0321850Y0098721D01*
X0322849Y0099720D02*
X0302800Y0099720D01*
X0302800Y0100718D02*
X0323847Y0100718D01*
X0324846Y0101717D02*
X0302800Y0101717D01*
X0302800Y0102715D02*
X0303398Y0102715D01*
X0310846Y0102715D02*
X0326801Y0102715D01*
X0330135Y0103714D02*
X0312125Y0103714D01*
X0313124Y0104712D02*
X0354200Y0104712D01*
X0354200Y0103714D02*
X0341023Y0103714D01*
X0343011Y0102715D02*
X0354200Y0102715D01*
X0354200Y0101717D02*
X0344009Y0101717D01*
X0344677Y0100718D02*
X0354200Y0100718D01*
X0354200Y0099720D02*
X0345090Y0099720D01*
X0345379Y0098721D02*
X0354200Y0098721D01*
X0354200Y0097723D02*
X0345379Y0097723D01*
X0345379Y0096724D02*
X0354200Y0096724D01*
X0354200Y0095726D02*
X0345026Y0095726D01*
X0344613Y0094727D02*
X0354200Y0094727D01*
X0354200Y0093729D02*
X0343855Y0093729D01*
X0342856Y0092730D02*
X0354200Y0092730D01*
X0354200Y0091732D02*
X0340649Y0091732D01*
X0340452Y0084265D02*
X0330705Y0084265D01*
X0328445Y0083329D01*
X0326715Y0081599D01*
X0325779Y0079338D01*
X0325779Y0076892D01*
X0326715Y0074631D01*
X0328445Y0072901D01*
X0330705Y0071965D01*
X0340452Y0071965D01*
X0342712Y0072901D01*
X0344442Y0074631D01*
X0345379Y0076892D01*
X0345379Y0079338D01*
X0344442Y0081599D01*
X0342712Y0083329D01*
X0340452Y0084265D01*
X0341711Y0083743D02*
X0354200Y0083743D01*
X0354200Y0082745D02*
X0343296Y0082745D01*
X0344295Y0081746D02*
X0354200Y0081746D01*
X0354200Y0080748D02*
X0344795Y0080748D01*
X0345208Y0079749D02*
X0354200Y0079749D01*
X0354200Y0078751D02*
X0345379Y0078751D01*
X0345379Y0077752D02*
X0354200Y0077752D01*
X0354200Y0076754D02*
X0345322Y0076754D01*
X0344908Y0075755D02*
X0354200Y0075755D01*
X0354200Y0074757D02*
X0344494Y0074757D01*
X0343570Y0073758D02*
X0354200Y0073758D01*
X0354200Y0072760D02*
X0342371Y0072760D01*
X0340677Y0067767D02*
X0310597Y0067767D01*
X0312023Y0066769D02*
X0338947Y0066769D01*
X0337515Y0065770D02*
X0313021Y0065770D01*
X0313665Y0064772D02*
X0336517Y0064772D01*
X0335563Y0063773D02*
X0314078Y0063773D01*
X0314492Y0062775D02*
X0334986Y0062775D01*
X0334410Y0061776D02*
X0314543Y0061776D01*
X0314543Y0060778D02*
X0333922Y0060778D01*
X0333654Y0059779D02*
X0314543Y0059779D01*
X0314163Y0058781D02*
X0333387Y0058781D01*
X0333157Y0057782D02*
X0313750Y0057782D01*
X0313227Y0056784D02*
X0333157Y0056784D01*
X0333157Y0055785D02*
X0312228Y0055785D01*
X0311094Y0054787D02*
X0333157Y0054787D01*
X0333395Y0053788D02*
X0308684Y0053788D01*
X0305561Y0053788D02*
X0291059Y0053788D01*
X0290921Y0052790D02*
X0333663Y0052790D01*
X0333930Y0051791D02*
X0290908Y0051791D01*
X0290494Y0050793D02*
X0334428Y0050793D01*
X0335004Y0049794D02*
X0290080Y0049794D01*
X0289491Y0048796D02*
X0335581Y0048796D01*
X0336548Y0047797D02*
X0288492Y0047797D01*
X0292058Y0054787D02*
X0303150Y0054787D01*
X0302016Y0055785D02*
X0293056Y0055785D01*
X0294055Y0056784D02*
X0301017Y0056784D01*
X0300494Y0057782D02*
X0295053Y0057782D01*
X0296052Y0058781D02*
X0300081Y0058781D01*
X0299701Y0059779D02*
X0297050Y0059779D01*
X0298049Y0060778D02*
X0299701Y0060778D01*
X0299701Y0061776D02*
X0299047Y0061776D01*
X0306037Y0068766D02*
X0354200Y0068766D01*
X0354200Y0069764D02*
X0307035Y0069764D01*
X0308034Y0070763D02*
X0354200Y0070763D01*
X0354200Y0071761D02*
X0309032Y0071761D01*
X0310031Y0072760D02*
X0328786Y0072760D01*
X0327588Y0073758D02*
X0311029Y0073758D01*
X0312028Y0074757D02*
X0326663Y0074757D01*
X0326249Y0075755D02*
X0313026Y0075755D01*
X0314025Y0076754D02*
X0325836Y0076754D01*
X0325779Y0077752D02*
X0315023Y0077752D01*
X0316022Y0078751D02*
X0325779Y0078751D01*
X0325949Y0079749D02*
X0317020Y0079749D01*
X0318019Y0080748D02*
X0326363Y0080748D01*
X0326863Y0081746D02*
X0319017Y0081746D01*
X0320016Y0082745D02*
X0327861Y0082745D01*
X0329446Y0083743D02*
X0321014Y0083743D01*
X0322013Y0084742D02*
X0354200Y0084742D01*
X0354200Y0085740D02*
X0323012Y0085740D01*
X0324010Y0086739D02*
X0354200Y0086739D01*
X0354200Y0087737D02*
X0325009Y0087737D01*
X0326007Y0088736D02*
X0354200Y0088736D01*
X0354200Y0089734D02*
X0327006Y0089734D01*
X0328004Y0090733D02*
X0354200Y0090733D01*
X0354200Y0105711D02*
X0313707Y0105711D01*
X0314121Y0106709D02*
X0354200Y0106709D01*
X0354200Y0107708D02*
X0314534Y0107708D01*
X0314543Y0108706D02*
X0354200Y0108706D01*
X0354200Y0109705D02*
X0314543Y0109705D01*
X0314534Y0110703D02*
X0354200Y0110703D01*
X0354200Y0111702D02*
X0341337Y0111702D01*
X0340452Y0111335D02*
X0342712Y0112271D01*
X0344442Y0114001D01*
X0345379Y0116262D01*
X0345379Y0118708D01*
X0344442Y0120969D01*
X0342712Y0122699D01*
X0340452Y0123635D01*
X0330705Y0123635D01*
X0328445Y0122699D01*
X0326715Y0120969D01*
X0325779Y0118708D01*
X0325779Y0116262D01*
X0326715Y0114001D01*
X0328445Y0112271D01*
X0330705Y0111335D01*
X0340452Y0111335D01*
X0343141Y0112700D02*
X0354200Y0112700D01*
X0354200Y0113699D02*
X0344140Y0113699D01*
X0344731Y0114697D02*
X0354200Y0114697D01*
X0354200Y0115696D02*
X0345144Y0115696D01*
X0345379Y0116694D02*
X0354200Y0116694D01*
X0354200Y0117693D02*
X0345379Y0117693D01*
X0345379Y0118691D02*
X0354200Y0118691D01*
X0354200Y0119690D02*
X0344972Y0119690D01*
X0344559Y0120688D02*
X0354200Y0120688D01*
X0354200Y0121687D02*
X0343724Y0121687D01*
X0342726Y0122685D02*
X0354200Y0122685D01*
X0354200Y0123684D02*
X0317845Y0123684D01*
X0319029Y0124682D02*
X0354200Y0124682D01*
X0354200Y0125681D02*
X0322374Y0125681D01*
X0323372Y0126679D02*
X0354200Y0126679D01*
X0354200Y0127678D02*
X0324371Y0127678D01*
X0325369Y0128676D02*
X0354200Y0128676D01*
X0354200Y0129675D02*
X0326368Y0129675D01*
X0327366Y0130673D02*
X0354200Y0130673D01*
X0354200Y0131672D02*
X0328365Y0131672D01*
X0320250Y0127800D02*
X0332250Y0139800D01*
X0346500Y0139800D01*
X0347500Y0138800D01*
X0351570Y0134668D02*
X0354200Y0134668D01*
X0354200Y0135666D02*
X0352568Y0135666D01*
X0353300Y0136665D02*
X0354200Y0136665D01*
X0354200Y0137663D02*
X0353300Y0137663D01*
X0353300Y0138662D02*
X0354200Y0138662D01*
X0354200Y0139660D02*
X0353300Y0139660D01*
X0353300Y0140659D02*
X0354200Y0140659D01*
X0354200Y0141657D02*
X0352845Y0141657D01*
X0351847Y0142656D02*
X0354200Y0142656D01*
X0354200Y0143654D02*
X0350848Y0143654D01*
X0351555Y0144653D02*
X0354200Y0144653D01*
X0354200Y0145651D02*
X0352554Y0145651D01*
X0353300Y0146650D02*
X0354200Y0146650D01*
X0354200Y0147648D02*
X0353300Y0147648D01*
X0353300Y0148647D02*
X0354200Y0148647D01*
X0354200Y0149645D02*
X0353300Y0149645D01*
X0353300Y0150644D02*
X0354200Y0150644D01*
X0354200Y0151642D02*
X0352860Y0151642D01*
X0351862Y0152641D02*
X0354200Y0152641D01*
X0354200Y0153639D02*
X0350863Y0153639D01*
X0350037Y0156635D02*
X0354200Y0156635D01*
X0354200Y0157633D02*
X0351036Y0157633D01*
X0352034Y0158632D02*
X0354200Y0158632D01*
X0354200Y0159630D02*
X0353033Y0159630D01*
X0353300Y0160629D02*
X0354200Y0160629D01*
X0354200Y0161627D02*
X0353300Y0161627D01*
X0353300Y0162626D02*
X0354200Y0162626D01*
X0354200Y0163624D02*
X0353300Y0163624D01*
X0353300Y0164623D02*
X0354200Y0164623D01*
X0354200Y0165621D02*
X0352381Y0165621D01*
X0351383Y0166620D02*
X0354200Y0166620D01*
X0354200Y0167618D02*
X0350384Y0167618D01*
X0350605Y0168617D02*
X0354200Y0168617D01*
X0354200Y0169615D02*
X0351604Y0169615D01*
X0352300Y0170614D02*
X0354200Y0170614D01*
X0354200Y0171612D02*
X0352300Y0171612D01*
X0352300Y0172611D02*
X0354200Y0172611D01*
X0354200Y0173609D02*
X0352300Y0173609D01*
X0351980Y0174608D02*
X0354200Y0174608D01*
X0354200Y0175606D02*
X0350982Y0175606D01*
X0349983Y0176605D02*
X0354200Y0176605D01*
X0354200Y0177603D02*
X0340798Y0177603D01*
X0340166Y0176971D02*
X0342065Y0178870D01*
X0343093Y0181351D01*
X0343093Y0184036D01*
X0342065Y0186517D01*
X0340166Y0188416D01*
X0337685Y0189444D01*
X0335000Y0189444D01*
X0332519Y0188416D01*
X0330620Y0186517D01*
X0329593Y0184036D01*
X0329593Y0181351D01*
X0330620Y0178870D01*
X0332519Y0176971D01*
X0335000Y0175944D01*
X0337685Y0175944D01*
X0340166Y0176971D01*
X0339282Y0176605D02*
X0345017Y0176605D01*
X0344018Y0175606D02*
X0294700Y0175606D01*
X0294700Y0176605D02*
X0313718Y0176605D01*
X0312834Y0176971D02*
X0315315Y0175944D01*
X0318000Y0175944D01*
X0320481Y0176971D01*
X0322380Y0178870D01*
X0323407Y0181351D01*
X0323407Y0184036D01*
X0322380Y0186517D01*
X0320481Y0188416D01*
X0318000Y0189444D01*
X0315315Y0189444D01*
X0312834Y0188416D01*
X0310935Y0186517D01*
X0309907Y0184036D01*
X0309907Y0181351D01*
X0310935Y0178870D01*
X0312834Y0176971D01*
X0312202Y0177603D02*
X0294340Y0177603D01*
X0293845Y0178602D02*
X0311203Y0178602D01*
X0310633Y0179601D02*
X0293000Y0179601D01*
X0293000Y0180599D02*
X0310219Y0180599D01*
X0309907Y0181598D02*
X0293000Y0181598D01*
X0293000Y0182596D02*
X0309907Y0182596D01*
X0309907Y0183595D02*
X0293000Y0183595D01*
X0293000Y0184593D02*
X0310138Y0184593D01*
X0310552Y0185592D02*
X0293000Y0185592D01*
X0293000Y0186590D02*
X0311008Y0186590D01*
X0312006Y0187589D02*
X0293000Y0187589D01*
X0293000Y0188587D02*
X0313247Y0188587D01*
X0320068Y0188587D02*
X0332932Y0188587D01*
X0331691Y0187589D02*
X0321309Y0187589D01*
X0322307Y0186590D02*
X0330693Y0186590D01*
X0330237Y0185592D02*
X0322763Y0185592D01*
X0323177Y0184593D02*
X0329823Y0184593D01*
X0329593Y0183595D02*
X0323407Y0183595D01*
X0323407Y0182596D02*
X0329593Y0182596D01*
X0329593Y0181598D02*
X0323407Y0181598D01*
X0323096Y0180599D02*
X0329904Y0180599D01*
X0330318Y0179601D02*
X0322682Y0179601D01*
X0322112Y0178602D02*
X0330888Y0178602D01*
X0331887Y0177603D02*
X0321113Y0177603D01*
X0319597Y0176605D02*
X0333403Y0176605D01*
X0330849Y0170614D02*
X0330151Y0170614D01*
X0323368Y0170614D02*
X0296307Y0170614D01*
X0296378Y0169615D02*
X0302028Y0169615D01*
X0301353Y0168617D02*
X0296378Y0168617D01*
X0296378Y0167618D02*
X0301201Y0167618D01*
X0301201Y0166620D02*
X0296378Y0166620D01*
X0296378Y0165621D02*
X0301201Y0165621D01*
X0301201Y0164623D02*
X0296336Y0164623D01*
X0296418Y0163624D02*
X0301201Y0163624D01*
X0301201Y0162626D02*
X0297417Y0162626D01*
X0298415Y0161627D02*
X0301201Y0161627D01*
X0301499Y0160629D02*
X0299414Y0160629D01*
X0300412Y0159630D02*
X0302520Y0159630D01*
X0301766Y0158632D02*
X0301411Y0158632D01*
X0306260Y0163040D02*
X0310500Y0158800D01*
X0312600Y0158800D01*
X0314200Y0157200D01*
X0314200Y0153340D01*
X0313940Y0154300D01*
X0314000Y0154240D01*
X0314000Y0150800D01*
X0311500Y0148800D01*
X0296323Y0148800D01*
X0291563Y0143540D01*
X0295835Y0143654D02*
X0297029Y0143654D01*
X0296643Y0143494D02*
X0297562Y0143875D01*
X0302100Y0143875D01*
X0303018Y0143494D01*
X0303722Y0142791D01*
X0304102Y0141872D01*
X0304102Y0137728D01*
X0303722Y0136809D01*
X0303018Y0136106D01*
X0302831Y0136028D01*
X0302831Y0134034D01*
X0302487Y0133204D01*
X0306250Y0136967D01*
X0306250Y0145297D01*
X0306458Y0145800D01*
X0297654Y0145800D01*
X0295835Y0143789D01*
X0295835Y0142537D01*
X0295940Y0142791D01*
X0296643Y0143494D01*
X0296000Y0143300D02*
X0299500Y0146800D01*
X0316000Y0146800D01*
X0320000Y0150800D01*
X0320000Y0158540D01*
X0313740Y0164800D01*
X0313740Y0167560D01*
X0307500Y0173800D01*
X0310492Y0169615D02*
X0322059Y0169615D01*
X0321701Y0168617D02*
X0317532Y0168617D01*
X0317799Y0167618D02*
X0321701Y0167618D01*
X0321701Y0166620D02*
X0317799Y0166620D01*
X0317799Y0165621D02*
X0321701Y0165621D01*
X0321701Y0164623D02*
X0314240Y0164623D01*
X0314240Y0165621D02*
X0313240Y0165621D01*
X0313240Y0166620D02*
X0314240Y0166620D01*
X0314240Y0167618D02*
X0313240Y0167618D01*
X0313240Y0168617D02*
X0314240Y0168617D01*
X0317799Y0163624D02*
X0321701Y0163624D01*
X0321701Y0162626D02*
X0317799Y0162626D01*
X0317793Y0161627D02*
X0321793Y0161627D01*
X0322384Y0160629D02*
X0317189Y0160629D01*
X0317292Y0159630D02*
X0323408Y0159630D01*
X0322066Y0158632D02*
X0318634Y0158632D01*
X0318999Y0157633D02*
X0321701Y0157633D01*
X0321701Y0156635D02*
X0318999Y0156635D01*
X0318999Y0155636D02*
X0321701Y0155636D01*
X0321701Y0154638D02*
X0318999Y0154638D01*
X0318999Y0153639D02*
X0321701Y0153639D01*
X0321701Y0152641D02*
X0318999Y0152641D01*
X0318999Y0151642D02*
X0320925Y0151642D01*
X0319927Y0150644D02*
X0318914Y0150644D01*
X0318928Y0149645D02*
X0318333Y0149645D01*
X0317930Y0148647D02*
X0316111Y0148647D01*
X0316931Y0147648D02*
X0314863Y0147648D01*
X0306397Y0145651D02*
X0297519Y0145651D01*
X0296616Y0144653D02*
X0306250Y0144653D01*
X0306250Y0143654D02*
X0302632Y0143654D01*
X0303778Y0142656D02*
X0306250Y0142656D01*
X0306250Y0141657D02*
X0304102Y0141657D01*
X0304102Y0140659D02*
X0306250Y0140659D01*
X0306250Y0139660D02*
X0304102Y0139660D01*
X0304102Y0138662D02*
X0306250Y0138662D01*
X0306250Y0137663D02*
X0304075Y0137663D01*
X0303577Y0136665D02*
X0305948Y0136665D01*
X0304949Y0135666D02*
X0302831Y0135666D01*
X0302831Y0134668D02*
X0303951Y0134668D01*
X0302952Y0133669D02*
X0302680Y0133669D01*
X0299831Y0134631D02*
X0293000Y0127800D01*
X0293000Y0089300D01*
X0264874Y0061174D01*
X0259878Y0061174D01*
X0254772Y0055785D02*
X0213809Y0055785D01*
X0212811Y0054787D02*
X0255906Y0054787D01*
X0258316Y0053788D02*
X0211812Y0053788D01*
X0214808Y0056784D02*
X0253773Y0056784D01*
X0253250Y0057782D02*
X0222562Y0057782D01*
X0224486Y0058781D02*
X0238663Y0058781D01*
X0238366Y0058877D02*
X0239137Y0058627D01*
X0239843Y0058515D01*
X0239843Y0066800D01*
X0240842Y0066800D01*
X0240842Y0058515D01*
X0241548Y0058627D01*
X0242319Y0058877D01*
X0243042Y0059245D01*
X0243698Y0059722D01*
X0244271Y0060295D01*
X0244747Y0060951D01*
X0245115Y0061673D01*
X0245366Y0062444D01*
X0245493Y0063245D01*
X0245493Y0066800D01*
X0240843Y0066800D01*
X0240843Y0067800D01*
X0245493Y0067800D01*
X0245493Y0071355D01*
X0245366Y0072156D01*
X0245115Y0072927D01*
X0244747Y0073649D01*
X0244271Y0074305D01*
X0243698Y0074878D01*
X0243042Y0075355D01*
X0242319Y0075723D01*
X0241548Y0075973D01*
X0240842Y0076085D01*
X0240842Y0067800D01*
X0239843Y0067800D01*
X0239843Y0076085D01*
X0239137Y0075973D01*
X0238366Y0075723D01*
X0237643Y0075355D01*
X0236988Y0074878D01*
X0236414Y0074305D01*
X0235938Y0073649D01*
X0235570Y0072927D01*
X0235319Y0072156D01*
X0235193Y0071355D01*
X0235193Y0067800D01*
X0239842Y0067800D01*
X0239842Y0066800D01*
X0235193Y0066800D01*
X0235193Y0063245D01*
X0235319Y0062444D01*
X0235570Y0061673D01*
X0235938Y0060951D01*
X0236414Y0060295D01*
X0236988Y0059722D01*
X0237643Y0059245D01*
X0238366Y0058877D01*
X0239843Y0058781D02*
X0240842Y0058781D01*
X0240842Y0059779D02*
X0239843Y0059779D01*
X0239843Y0060778D02*
X0240842Y0060778D01*
X0240842Y0061776D02*
X0239843Y0061776D01*
X0239843Y0062775D02*
X0240842Y0062775D01*
X0240842Y0063773D02*
X0239843Y0063773D01*
X0239843Y0064772D02*
X0240842Y0064772D01*
X0240842Y0065770D02*
X0239843Y0065770D01*
X0239843Y0066769D02*
X0240842Y0066769D01*
X0240343Y0067300D02*
X0240000Y0067800D01*
X0240000Y0089351D01*
X0234000Y0095351D01*
X0234000Y0097800D01*
X0213965Y0097800D01*
X0214315Y0098036D02*
X0213973Y0098233D01*
X0213591Y0098335D01*
X0211000Y0098335D01*
X0211000Y0094835D01*
X0214894Y0094835D01*
X0214894Y0097033D01*
X0214791Y0097414D01*
X0214594Y0097756D01*
X0214315Y0098036D01*
X0214614Y0097723D02*
X0223562Y0097723D01*
X0222432Y0098721D02*
X0191756Y0098721D01*
X0191756Y0097723D02*
X0206386Y0097723D01*
X0206406Y0097756D02*
X0206209Y0097414D01*
X0206106Y0097033D01*
X0206106Y0094835D01*
X0210000Y0094835D01*
X0210000Y0093835D01*
X0211000Y0093835D01*
X0211000Y0090335D01*
X0213591Y0090335D01*
X0213973Y0090438D01*
X0214315Y0090635D01*
X0214594Y0090914D01*
X0214791Y0091256D01*
X0214894Y0091638D01*
X0214894Y0093835D01*
X0211000Y0093835D01*
X0211000Y0094835D01*
X0210000Y0094835D01*
X0210000Y0098335D01*
X0207409Y0098335D01*
X0207027Y0098233D01*
X0206685Y0098036D01*
X0206406Y0097756D01*
X0206106Y0096724D02*
X0191756Y0096724D01*
X0191756Y0095726D02*
X0206106Y0095726D01*
X0206106Y0093835D02*
X0206106Y0091638D01*
X0206209Y0091256D01*
X0206406Y0090914D01*
X0206685Y0090635D01*
X0207027Y0090438D01*
X0207409Y0090335D01*
X0210000Y0090335D01*
X0210000Y0093835D01*
X0206106Y0093835D01*
X0206106Y0093729D02*
X0191756Y0093729D01*
X0191756Y0092730D02*
X0206106Y0092730D01*
X0206106Y0091732D02*
X0191756Y0091732D01*
X0191756Y0090733D02*
X0206587Y0090733D01*
X0210000Y0090733D02*
X0211000Y0090733D01*
X0211000Y0091732D02*
X0210000Y0091732D01*
X0210000Y0092730D02*
X0211000Y0092730D01*
X0211000Y0093729D02*
X0210000Y0093729D01*
X0210500Y0094335D02*
X0210000Y0094800D01*
X0201000Y0094800D01*
X0201000Y0067800D01*
X0200843Y0067300D01*
X0201343Y0067767D02*
X0214507Y0067767D01*
X0214507Y0066769D02*
X0205993Y0066769D01*
X0205993Y0066800D02*
X0201343Y0066800D01*
X0201343Y0067800D01*
X0205993Y0067800D01*
X0205993Y0071355D01*
X0205866Y0072156D01*
X0205615Y0072927D01*
X0205247Y0073649D01*
X0204771Y0074305D01*
X0204198Y0074878D01*
X0203542Y0075355D01*
X0202819Y0075723D01*
X0202048Y0075973D01*
X0201342Y0076085D01*
X0201342Y0067800D01*
X0200343Y0067800D01*
X0200343Y0076085D01*
X0199637Y0075973D01*
X0198866Y0075723D01*
X0198143Y0075355D01*
X0197488Y0074878D01*
X0196914Y0074305D01*
X0196438Y0073649D01*
X0196070Y0072927D01*
X0195819Y0072156D01*
X0195693Y0071355D01*
X0195693Y0067800D01*
X0200342Y0067800D01*
X0200342Y0066800D01*
X0195693Y0066800D01*
X0195693Y0063245D01*
X0195819Y0062444D01*
X0196070Y0061673D01*
X0196438Y0060951D01*
X0196914Y0060295D01*
X0197488Y0059722D01*
X0198143Y0059245D01*
X0198866Y0058877D01*
X0199637Y0058627D01*
X0200343Y0058515D01*
X0200343Y0066800D01*
X0201342Y0066800D01*
X0201342Y0058515D01*
X0202048Y0058627D01*
X0202819Y0058877D01*
X0203542Y0059245D01*
X0204198Y0059722D01*
X0204771Y0060295D01*
X0205247Y0060951D01*
X0205615Y0061673D01*
X0205866Y0062444D01*
X0205993Y0063245D01*
X0205993Y0066800D01*
X0205993Y0065770D02*
X0214461Y0065770D01*
X0213462Y0064772D02*
X0205993Y0064772D01*
X0205993Y0063773D02*
X0212464Y0063773D01*
X0211465Y0062775D02*
X0205918Y0062775D01*
X0205649Y0061776D02*
X0210467Y0061776D01*
X0209468Y0060778D02*
X0205121Y0060778D01*
X0204255Y0059779D02*
X0208470Y0059779D01*
X0207471Y0058781D02*
X0202522Y0058781D01*
X0201342Y0058781D02*
X0200343Y0058781D01*
X0200343Y0059779D02*
X0201342Y0059779D01*
X0201342Y0060778D02*
X0200343Y0060778D01*
X0200343Y0061776D02*
X0201342Y0061776D01*
X0201342Y0062775D02*
X0200343Y0062775D01*
X0200343Y0063773D02*
X0201342Y0063773D01*
X0201342Y0064772D02*
X0200343Y0064772D01*
X0200343Y0065770D02*
X0201342Y0065770D01*
X0201342Y0066769D02*
X0200343Y0066769D01*
X0200342Y0067767D02*
X0187307Y0067767D01*
X0187307Y0066769D02*
X0195693Y0066769D01*
X0195693Y0065770D02*
X0187307Y0065770D01*
X0187307Y0064772D02*
X0195693Y0064772D01*
X0195693Y0063773D02*
X0187307Y0063773D01*
X0187307Y0062775D02*
X0195767Y0062775D01*
X0196036Y0061776D02*
X0187038Y0061776D01*
X0186624Y0060778D02*
X0196564Y0060778D01*
X0197430Y0059779D02*
X0185984Y0059779D01*
X0184986Y0058781D02*
X0199163Y0058781D01*
X0200343Y0068766D02*
X0201342Y0068766D01*
X0201342Y0069764D02*
X0200343Y0069764D01*
X0200343Y0070763D02*
X0201342Y0070763D01*
X0201342Y0071761D02*
X0200343Y0071761D01*
X0200343Y0072760D02*
X0201342Y0072760D01*
X0201342Y0073758D02*
X0200343Y0073758D01*
X0200343Y0074757D02*
X0201342Y0074757D01*
X0201342Y0075755D02*
X0200343Y0075755D01*
X0198966Y0075755D02*
X0185050Y0075755D01*
X0186048Y0074757D02*
X0197366Y0074757D01*
X0196517Y0073758D02*
X0186651Y0073758D01*
X0187065Y0072760D02*
X0196016Y0072760D01*
X0195757Y0071761D02*
X0187307Y0071761D01*
X0187307Y0070763D02*
X0195693Y0070763D01*
X0195693Y0069764D02*
X0187307Y0069764D01*
X0187307Y0068766D02*
X0195693Y0068766D01*
X0202719Y0075755D02*
X0216765Y0075755D01*
X0215767Y0074757D02*
X0204319Y0074757D01*
X0205168Y0073758D02*
X0215164Y0073758D01*
X0214750Y0072760D02*
X0205670Y0072760D01*
X0205928Y0071761D02*
X0214507Y0071761D01*
X0214507Y0070763D02*
X0205993Y0070763D01*
X0205993Y0069764D02*
X0214507Y0069764D01*
X0214507Y0068766D02*
X0205993Y0068766D01*
X0216805Y0058781D02*
X0216829Y0058781D01*
X0215807Y0057782D02*
X0218753Y0057782D01*
X0225484Y0059779D02*
X0236930Y0059779D01*
X0236064Y0060778D02*
X0226124Y0060778D01*
X0226538Y0061776D02*
X0235536Y0061776D01*
X0235267Y0062775D02*
X0226807Y0062775D01*
X0226807Y0063773D02*
X0235193Y0063773D01*
X0235193Y0064772D02*
X0226807Y0064772D01*
X0226807Y0065770D02*
X0235193Y0065770D01*
X0235193Y0066769D02*
X0226807Y0066769D01*
X0226807Y0067767D02*
X0239842Y0067767D01*
X0239843Y0068766D02*
X0240842Y0068766D01*
X0240842Y0069764D02*
X0239843Y0069764D01*
X0239843Y0070763D02*
X0240842Y0070763D01*
X0240842Y0071761D02*
X0239843Y0071761D01*
X0239843Y0072760D02*
X0240842Y0072760D01*
X0240842Y0073758D02*
X0239843Y0073758D01*
X0239843Y0074757D02*
X0240842Y0074757D01*
X0240842Y0075755D02*
X0239843Y0075755D01*
X0238466Y0075755D02*
X0224550Y0075755D01*
X0225548Y0074757D02*
X0236866Y0074757D01*
X0236017Y0073758D02*
X0226151Y0073758D01*
X0226565Y0072760D02*
X0235516Y0072760D01*
X0235257Y0071761D02*
X0226807Y0071761D01*
X0226807Y0070763D02*
X0235193Y0070763D01*
X0235193Y0069764D02*
X0226807Y0069764D01*
X0226807Y0068766D02*
X0235193Y0068766D01*
X0240843Y0067767D02*
X0256403Y0067767D01*
X0254977Y0066769D02*
X0245493Y0066769D01*
X0245493Y0065770D02*
X0253979Y0065770D01*
X0253335Y0064772D02*
X0245493Y0064772D01*
X0245493Y0063773D02*
X0252922Y0063773D01*
X0252508Y0062775D02*
X0245418Y0062775D01*
X0245149Y0061776D02*
X0252457Y0061776D01*
X0252457Y0060778D02*
X0244621Y0060778D01*
X0243755Y0059779D02*
X0252457Y0059779D01*
X0252837Y0058781D02*
X0242022Y0058781D01*
X0245493Y0068766D02*
X0268223Y0068766D01*
X0269222Y0069764D02*
X0245493Y0069764D01*
X0245493Y0070763D02*
X0270220Y0070763D01*
X0271219Y0071761D02*
X0245428Y0071761D01*
X0245170Y0072760D02*
X0272217Y0072760D01*
X0273216Y0073758D02*
X0244668Y0073758D01*
X0243819Y0074757D02*
X0274214Y0074757D01*
X0275213Y0075755D02*
X0242219Y0075755D01*
X0233500Y0086296D02*
X0231047Y0086296D01*
X0230665Y0086398D01*
X0230323Y0086596D01*
X0230044Y0086875D01*
X0229846Y0087217D01*
X0229744Y0087599D01*
X0229744Y0094851D01*
X0233500Y0094851D01*
X0233500Y0086296D01*
X0233500Y0086739D02*
X0234500Y0086739D01*
X0234500Y0087737D02*
X0233500Y0087737D01*
X0233500Y0088736D02*
X0234500Y0088736D01*
X0234500Y0089734D02*
X0233500Y0089734D01*
X0233500Y0090733D02*
X0234500Y0090733D01*
X0234500Y0091732D02*
X0233500Y0091732D01*
X0233500Y0092730D02*
X0234500Y0092730D01*
X0234500Y0093729D02*
X0233500Y0093729D01*
X0233500Y0094727D02*
X0234500Y0094727D01*
X0234000Y0095351D02*
X0234000Y0096800D01*
X0233500Y0096724D02*
X0234500Y0096724D01*
X0234500Y0095726D02*
X0290000Y0095726D01*
X0290000Y0096724D02*
X0238256Y0096724D01*
X0238256Y0097723D02*
X0290000Y0097723D01*
X0290000Y0098721D02*
X0238256Y0098721D01*
X0238500Y0097800D02*
X0234000Y0097800D01*
X0233500Y0097723D02*
X0234500Y0097723D01*
X0234500Y0098721D02*
X0233500Y0098721D01*
X0233500Y0099720D02*
X0234500Y0099720D01*
X0234500Y0100718D02*
X0233500Y0100718D01*
X0233500Y0101717D02*
X0234500Y0101717D01*
X0234500Y0102715D02*
X0233500Y0102715D01*
X0233500Y0103714D02*
X0234500Y0103714D01*
X0238022Y0103714D02*
X0254087Y0103714D01*
X0254887Y0102914D02*
X0257614Y0101784D01*
X0260567Y0101784D01*
X0263294Y0102914D01*
X0265382Y0105002D01*
X0266512Y0107729D01*
X0266512Y0110682D01*
X0265382Y0113409D01*
X0263294Y0115497D01*
X0260567Y0116627D01*
X0257614Y0116627D01*
X0254887Y0115497D01*
X0252799Y0113409D01*
X0251669Y0110682D01*
X0251669Y0107729D01*
X0252799Y0105002D01*
X0254887Y0102914D01*
X0255367Y0102715D02*
X0238256Y0102715D01*
X0238256Y0101717D02*
X0290000Y0101717D01*
X0290000Y0102715D02*
X0262814Y0102715D01*
X0264094Y0103714D02*
X0290000Y0103714D01*
X0290000Y0104712D02*
X0265092Y0104712D01*
X0265676Y0105711D02*
X0290000Y0105711D01*
X0290000Y0106709D02*
X0266089Y0106709D01*
X0266503Y0107708D02*
X0290000Y0107708D01*
X0290000Y0108706D02*
X0266512Y0108706D01*
X0266512Y0109705D02*
X0290000Y0109705D01*
X0290000Y0110703D02*
X0266503Y0110703D01*
X0266089Y0111702D02*
X0290000Y0111702D01*
X0290000Y0112700D02*
X0265676Y0112700D01*
X0265093Y0113699D02*
X0290000Y0113699D01*
X0290000Y0114697D02*
X0264094Y0114697D01*
X0262814Y0115696D02*
X0290000Y0115696D01*
X0290000Y0116694D02*
X0239256Y0116694D01*
X0239256Y0115696D02*
X0255367Y0115696D01*
X0254087Y0114697D02*
X0239256Y0114697D01*
X0239256Y0113699D02*
X0253089Y0113699D01*
X0252505Y0112700D02*
X0239256Y0112700D01*
X0239256Y0111702D02*
X0252092Y0111702D01*
X0251678Y0110703D02*
X0239256Y0110703D01*
X0239052Y0109705D02*
X0251669Y0109705D01*
X0251669Y0108706D02*
X0238304Y0108706D01*
X0229696Y0108706D02*
X0229000Y0108706D01*
X0229000Y0107708D02*
X0251678Y0107708D01*
X0252092Y0106709D02*
X0229000Y0106709D01*
X0229000Y0105711D02*
X0252505Y0105711D01*
X0253089Y0104712D02*
X0229735Y0104712D01*
X0226000Y0101800D02*
X0226000Y0117800D01*
X0226550Y0118350D01*
X0227880Y0121687D02*
X0228744Y0121687D01*
X0228744Y0122685D02*
X0226882Y0122685D01*
X0225883Y0123684D02*
X0228744Y0123684D01*
X0228744Y0124682D02*
X0224884Y0124682D01*
X0223886Y0125681D02*
X0228744Y0125681D01*
X0228901Y0126679D02*
X0222887Y0126679D01*
X0221889Y0127678D02*
X0229583Y0127678D01*
X0231184Y0131672D02*
X0217895Y0131672D01*
X0217500Y0132670D02*
X0229983Y0132670D01*
X0229295Y0133669D02*
X0218255Y0133669D01*
X0218893Y0130673D02*
X0289227Y0130673D01*
X0288689Y0129675D02*
X0219892Y0129675D01*
X0220890Y0128676D02*
X0288300Y0128676D01*
X0288300Y0127678D02*
X0238417Y0127678D01*
X0239099Y0126679D02*
X0288377Y0126679D01*
X0288791Y0125681D02*
X0239256Y0125681D01*
X0239256Y0124682D02*
X0289471Y0124682D01*
X0290000Y0123684D02*
X0239256Y0123684D01*
X0239256Y0122685D02*
X0290000Y0122685D01*
X0290000Y0121687D02*
X0239256Y0121687D01*
X0239256Y0120688D02*
X0290000Y0120688D01*
X0290000Y0119690D02*
X0239256Y0119690D01*
X0239256Y0118691D02*
X0290000Y0118691D01*
X0290000Y0117693D02*
X0239256Y0117693D01*
X0223000Y0116694D02*
X0209737Y0116694D01*
X0208739Y0117693D02*
X0222540Y0117693D01*
X0221542Y0118691D02*
X0207740Y0118691D01*
X0206742Y0119690D02*
X0220543Y0119690D01*
X0219545Y0120688D02*
X0205743Y0120688D01*
X0204745Y0121687D02*
X0218546Y0121687D01*
X0217548Y0122685D02*
X0204100Y0122685D01*
X0204100Y0123684D02*
X0216549Y0123684D01*
X0215551Y0124682D02*
X0204100Y0124682D01*
X0204100Y0125681D02*
X0214552Y0125681D01*
X0213554Y0126679D02*
X0204100Y0126679D01*
X0204100Y0127678D02*
X0212555Y0127678D01*
X0211557Y0128676D02*
X0204100Y0128676D01*
X0204100Y0129675D02*
X0211053Y0129675D01*
X0210900Y0130673D02*
X0204100Y0130673D01*
X0204100Y0131672D02*
X0210900Y0131672D01*
X0210900Y0132670D02*
X0204100Y0132670D01*
X0204855Y0133669D02*
X0210145Y0133669D01*
X0208000Y0134668D02*
X0207000Y0134668D01*
X0207000Y0135666D02*
X0208000Y0135666D01*
X0208000Y0136665D02*
X0207000Y0136665D01*
X0207000Y0137663D02*
X0208000Y0137663D01*
X0208000Y0138662D02*
X0207000Y0138662D01*
X0207000Y0144653D02*
X0208000Y0144653D01*
X0210466Y0145651D02*
X0204534Y0145651D01*
X0189500Y0141657D02*
X0114386Y0141657D01*
X0115384Y0140659D02*
X0189500Y0140659D01*
X0189027Y0139660D02*
X0116383Y0139660D01*
X0117381Y0138662D02*
X0188029Y0138662D01*
X0187030Y0137663D02*
X0118380Y0137663D01*
X0119378Y0136665D02*
X0186032Y0136665D01*
X0185033Y0135666D02*
X0120377Y0135666D01*
X0121375Y0134668D02*
X0184227Y0134668D01*
X0183814Y0133669D02*
X0121887Y0133669D01*
X0122000Y0132670D02*
X0183800Y0132670D01*
X0183800Y0131672D02*
X0122000Y0131672D01*
X0122000Y0130673D02*
X0183800Y0130673D01*
X0183800Y0129675D02*
X0122000Y0129675D01*
X0122000Y0128676D02*
X0183800Y0128676D01*
X0183800Y0127678D02*
X0122000Y0127678D01*
X0122000Y0126679D02*
X0182608Y0126679D01*
X0182244Y0125681D02*
X0132711Y0125681D01*
X0133886Y0124682D02*
X0136293Y0124682D01*
X0135116Y0123684D02*
X0134809Y0123684D01*
X0142707Y0124682D02*
X0182244Y0124682D01*
X0182244Y0123684D02*
X0143884Y0123684D01*
X0144809Y0122685D02*
X0182244Y0122685D01*
X0182244Y0121687D02*
X0145222Y0121687D01*
X0145636Y0120688D02*
X0182244Y0120688D01*
X0182244Y0119690D02*
X0145700Y0119690D01*
X0145700Y0118691D02*
X0182244Y0118691D01*
X0182211Y0117693D02*
X0145545Y0117693D01*
X0145131Y0116694D02*
X0181213Y0116694D01*
X0180214Y0115696D02*
X0144664Y0115696D01*
X0126289Y0125681D02*
X0122000Y0125681D01*
X0122707Y0124682D02*
X0125114Y0124682D01*
X0124191Y0123684D02*
X0123884Y0123684D01*
X0106289Y0125681D02*
X0092711Y0125681D01*
X0093886Y0124682D02*
X0096293Y0124682D01*
X0095116Y0123684D02*
X0094809Y0123684D01*
X0102707Y0124682D02*
X0105114Y0124682D01*
X0104191Y0123684D02*
X0103884Y0123684D01*
X0086825Y0114697D02*
X0081921Y0114697D01*
X0083250Y0115696D02*
X0085336Y0115696D01*
X0084338Y0116694D02*
X0084008Y0116694D01*
X0086229Y0113699D02*
X0066066Y0113699D01*
X0065067Y0112700D02*
X0085231Y0112700D01*
X0084232Y0111702D02*
X0064069Y0111702D01*
X0063070Y0110703D02*
X0083234Y0110703D01*
X0082235Y0109705D02*
X0062072Y0109705D01*
X0061073Y0108706D02*
X0081237Y0108706D01*
X0080238Y0107708D02*
X0078424Y0107708D01*
X0073000Y0110300D02*
X0067500Y0110300D01*
X0061500Y0104300D01*
X0061500Y0087115D01*
X0075000Y0073615D01*
X0081693Y0073615D01*
X0093504Y0085426D01*
X0178075Y0085426D01*
X0187500Y0094851D01*
X0188000Y0096800D01*
X0190000Y0094800D01*
X0201000Y0094800D01*
X0210000Y0094727D02*
X0188000Y0094727D01*
X0188000Y0093729D02*
X0187000Y0093729D01*
X0187000Y0094727D02*
X0175987Y0094727D01*
X0177592Y0095726D02*
X0183244Y0095726D01*
X0183244Y0096724D02*
X0178591Y0096724D01*
X0179589Y0097723D02*
X0183244Y0097723D01*
X0183244Y0098721D02*
X0180588Y0098721D01*
X0181586Y0099720D02*
X0183244Y0099720D01*
X0183244Y0100718D02*
X0182585Y0100718D01*
X0187000Y0092730D02*
X0188000Y0092730D01*
X0188000Y0091732D02*
X0187000Y0091732D01*
X0187000Y0090733D02*
X0188000Y0090733D01*
X0188000Y0089734D02*
X0187000Y0089734D01*
X0187000Y0088736D02*
X0188000Y0088736D01*
X0188000Y0087737D02*
X0187000Y0087737D01*
X0187000Y0086739D02*
X0188000Y0086739D01*
X0191660Y0086739D02*
X0230180Y0086739D01*
X0229744Y0087737D02*
X0191756Y0087737D01*
X0191756Y0088736D02*
X0229744Y0088736D01*
X0229744Y0089734D02*
X0191756Y0089734D01*
X0191756Y0099720D02*
X0221774Y0099720D01*
X0221361Y0100718D02*
X0191756Y0100718D01*
X0191756Y0101717D02*
X0221300Y0101717D01*
X0221300Y0102715D02*
X0191726Y0102715D01*
X0207616Y0103714D02*
X0221705Y0103714D01*
X0222265Y0104712D02*
X0208614Y0104712D01*
X0209613Y0105711D02*
X0223000Y0105711D01*
X0223000Y0106709D02*
X0214874Y0106709D01*
X0215662Y0107708D02*
X0223000Y0107708D01*
X0223000Y0108706D02*
X0215894Y0108706D01*
X0215894Y0109705D02*
X0223000Y0109705D01*
X0223000Y0110703D02*
X0215894Y0110703D01*
X0215894Y0111702D02*
X0223000Y0111702D01*
X0223000Y0112700D02*
X0215894Y0112700D01*
X0215894Y0113699D02*
X0223000Y0113699D01*
X0223000Y0114697D02*
X0215713Y0114697D01*
X0214998Y0115696D02*
X0223000Y0115696D01*
X0210500Y0111265D02*
X0210000Y0110800D01*
X0210000Y0097723D02*
X0211000Y0097723D01*
X0211000Y0096724D02*
X0210000Y0096724D01*
X0210000Y0095726D02*
X0211000Y0095726D01*
X0211000Y0094800D02*
X0210500Y0094335D01*
X0211000Y0094727D02*
X0229744Y0094727D01*
X0229744Y0093729D02*
X0214894Y0093729D01*
X0214894Y0092730D02*
X0229744Y0092730D01*
X0229744Y0091732D02*
X0214894Y0091732D01*
X0214413Y0090733D02*
X0229744Y0090733D01*
X0229744Y0096724D02*
X0214894Y0096724D01*
X0214894Y0095726D02*
X0233500Y0095726D01*
X0229744Y0097723D02*
X0228438Y0097723D01*
X0229568Y0098721D02*
X0229744Y0098721D01*
X0238256Y0099720D02*
X0290000Y0099720D01*
X0290000Y0100718D02*
X0238256Y0100718D01*
X0238500Y0097800D02*
X0273500Y0132800D01*
X0288303Y0132800D01*
X0291563Y0136060D01*
X0291563Y0136863D01*
X0296000Y0141300D01*
X0296000Y0143300D01*
X0295884Y0142656D02*
X0295835Y0142656D01*
X0295559Y0140659D02*
X0295499Y0140659D01*
X0295559Y0139660D02*
X0294302Y0139660D01*
X0293914Y0139032D02*
X0293532Y0139135D01*
X0291850Y0139135D01*
X0291850Y0136347D01*
X0294835Y0136347D01*
X0294835Y0137832D01*
X0294732Y0138214D01*
X0294535Y0138556D01*
X0294256Y0138835D01*
X0293914Y0139032D01*
X0294429Y0138662D02*
X0295559Y0138662D01*
X0295586Y0137663D02*
X0294835Y0137663D01*
X0294835Y0136665D02*
X0296084Y0136665D01*
X0296623Y0135666D02*
X0294835Y0135666D01*
X0294835Y0134668D02*
X0295625Y0134668D01*
X0294626Y0133669D02*
X0294596Y0133669D01*
X0293628Y0132670D02*
X0237017Y0132670D01*
X0235816Y0131672D02*
X0290225Y0131672D01*
X0291276Y0133669D02*
X0291850Y0133669D01*
X0291850Y0134668D02*
X0291276Y0134668D01*
X0291276Y0135666D02*
X0291850Y0135666D01*
X0291850Y0136665D02*
X0291276Y0136665D01*
X0291276Y0137663D02*
X0291850Y0137663D01*
X0291850Y0138662D02*
X0291276Y0138662D01*
X0288291Y0137663D02*
X0288106Y0137663D01*
X0288291Y0136665D02*
X0287107Y0136665D01*
X0286109Y0135666D02*
X0288291Y0135666D01*
X0288291Y0134668D02*
X0285110Y0134668D01*
X0284112Y0133669D02*
X0288530Y0133669D01*
X0286000Y0139800D02*
X0282293Y0136093D01*
X0281586Y0135800D02*
X0233500Y0135800D01*
X0236287Y0139660D02*
X0240103Y0139660D01*
X0239642Y0140659D02*
X0224500Y0140659D01*
X0224500Y0141657D02*
X0239228Y0141657D01*
X0239200Y0142656D02*
X0224500Y0142656D01*
X0224500Y0143654D02*
X0239200Y0143654D01*
X0239522Y0144653D02*
X0224211Y0144653D01*
X0230071Y0149645D02*
X0240118Y0149645D01*
X0239648Y0150644D02*
X0230984Y0150644D01*
X0231260Y0151642D02*
X0239235Y0151642D01*
X0239200Y0152641D02*
X0231260Y0152641D01*
X0231260Y0153639D02*
X0238418Y0153639D01*
X0237420Y0154638D02*
X0231260Y0154638D01*
X0231260Y0155636D02*
X0236421Y0155636D01*
X0235423Y0156635D02*
X0231260Y0156635D01*
X0231260Y0157633D02*
X0234424Y0157633D01*
X0233444Y0158632D02*
X0231260Y0158632D01*
X0231260Y0159630D02*
X0233030Y0159630D01*
X0233000Y0160629D02*
X0231260Y0160629D01*
X0231260Y0161627D02*
X0233000Y0161627D01*
X0233000Y0162626D02*
X0231260Y0162626D01*
X0231260Y0163624D02*
X0233000Y0163624D01*
X0233000Y0164623D02*
X0231260Y0164623D01*
X0231260Y0165621D02*
X0233000Y0165621D01*
X0233000Y0166620D02*
X0231260Y0166620D01*
X0231260Y0167618D02*
X0233000Y0167618D01*
X0233000Y0168617D02*
X0231260Y0168617D01*
X0231260Y0169615D02*
X0233000Y0169615D01*
X0233000Y0170614D02*
X0231260Y0170614D01*
X0231260Y0171612D02*
X0233000Y0171612D01*
X0233000Y0172611D02*
X0231260Y0172611D01*
X0231260Y0173609D02*
X0233000Y0173609D01*
X0233000Y0174608D02*
X0231260Y0174608D01*
X0231260Y0175606D02*
X0233000Y0175606D01*
X0233000Y0176605D02*
X0231260Y0176605D01*
X0231260Y0177603D02*
X0233000Y0177603D01*
X0233000Y0178602D02*
X0231260Y0178602D01*
X0231260Y0179601D02*
X0233000Y0179601D01*
X0233000Y0180599D02*
X0231260Y0180599D01*
X0231260Y0181598D02*
X0233000Y0181598D01*
X0233000Y0182596D02*
X0231260Y0182596D01*
X0231260Y0183595D02*
X0233000Y0183595D01*
X0232560Y0184593D02*
X0231260Y0184593D01*
X0231260Y0185592D02*
X0231827Y0185592D01*
X0231414Y0186590D02*
X0231260Y0186590D01*
X0231260Y0187589D02*
X0231300Y0187589D01*
X0231260Y0188587D02*
X0231300Y0188587D01*
X0231260Y0189586D02*
X0231652Y0189586D01*
X0233000Y0192800D02*
X0226500Y0199300D01*
X0114500Y0199800D01*
X0109500Y0204800D01*
X0109500Y0210300D01*
X0105470Y0205562D02*
X0104530Y0205562D01*
X0103531Y0204563D02*
X0106500Y0204563D01*
X0106764Y0203565D02*
X0101855Y0203565D01*
X0107491Y0202566D02*
X0072800Y0202566D01*
X0072800Y0201568D02*
X0108490Y0201568D01*
X0109488Y0200569D02*
X0072800Y0200569D01*
X0072800Y0199571D02*
X0110487Y0199571D01*
X0111485Y0198572D02*
X0072800Y0198572D01*
X0072800Y0197574D02*
X0112483Y0197574D01*
X0097145Y0203565D02*
X0081855Y0203565D01*
X0083531Y0204563D02*
X0087148Y0204563D01*
X0085470Y0205562D02*
X0084530Y0205562D01*
X0080000Y0208800D02*
X0079500Y0209300D01*
X0077145Y0203565D02*
X0072800Y0203565D01*
X0074699Y0204563D02*
X0075469Y0204563D01*
X0072800Y0196575D02*
X0164847Y0196575D01*
X0168859Y0183595D02*
X0084872Y0183595D01*
X0085871Y0182596D02*
X0168341Y0182596D01*
X0168300Y0181598D02*
X0086869Y0181598D01*
X0082875Y0185592D02*
X0183740Y0185592D01*
X0183740Y0186590D02*
X0081877Y0186590D01*
X0080878Y0187589D02*
X0183740Y0187589D01*
X0183740Y0188587D02*
X0079880Y0188587D01*
X0078881Y0189586D02*
X0183740Y0189586D01*
X0183740Y0190584D02*
X0077883Y0190584D01*
X0076884Y0191583D02*
X0183740Y0191583D01*
X0183740Y0192581D02*
X0075886Y0192581D01*
X0074887Y0193580D02*
X0183860Y0193580D01*
X0184491Y0194578D02*
X0073889Y0194578D01*
X0072890Y0195577D02*
X0225981Y0195577D01*
X0233000Y0192800D02*
X0247500Y0192800D01*
X0236000Y0187800D02*
X0236000Y0160300D01*
X0243500Y0152800D01*
X0247500Y0152800D01*
X0252440Y0147800D02*
X0253459Y0148222D01*
X0254978Y0149741D01*
X0255800Y0151726D01*
X0255800Y0153874D01*
X0254978Y0155859D01*
X0253459Y0157378D01*
X0252440Y0157800D01*
X0253459Y0158222D01*
X0254978Y0159741D01*
X0255800Y0161726D01*
X0255800Y0162857D01*
X0263043Y0170101D01*
X0263500Y0171203D01*
X0263500Y0216397D01*
X0263043Y0217499D01*
X0257942Y0222601D01*
X0259012Y0223044D01*
X0260756Y0224788D01*
X0261700Y0227067D01*
X0261700Y0229533D01*
X0260756Y0231812D01*
X0259268Y0233300D01*
X0260756Y0234788D01*
X0261700Y0237067D01*
X0261700Y0239533D01*
X0260756Y0241812D01*
X0259012Y0243556D01*
X0258251Y0243871D01*
X0258888Y0244334D01*
X0259466Y0244912D01*
X0259947Y0245575D01*
X0260319Y0246304D01*
X0260572Y0247082D01*
X0260686Y0247800D01*
X0256000Y0247800D01*
X0256000Y0248800D01*
X0255500Y0248300D01*
X0277500Y0226300D01*
X0277500Y0212800D01*
X0277500Y0202800D01*
X0277500Y0192800D01*
X0277200Y0192581D02*
X0263500Y0192581D01*
X0263500Y0191583D02*
X0270369Y0191583D01*
X0270308Y0191770D02*
X0270522Y0191111D01*
X0270837Y0190494D01*
X0271244Y0189934D01*
X0271734Y0189444D01*
X0272294Y0189037D01*
X0272911Y0188722D01*
X0273570Y0188508D01*
X0274254Y0188400D01*
X0277200Y0188400D01*
X0277200Y0192500D01*
X0277800Y0192500D01*
X0277800Y0188400D01*
X0280746Y0188400D01*
X0281430Y0188508D01*
X0282089Y0188722D01*
X0282500Y0188932D01*
X0282500Y0187775D01*
X0281474Y0188200D01*
X0273526Y0188200D01*
X0271541Y0187378D01*
X0270022Y0185859D01*
X0269200Y0183874D01*
X0269200Y0181726D01*
X0270022Y0179741D01*
X0271541Y0178222D01*
X0272560Y0177800D01*
X0271541Y0177378D01*
X0270022Y0175859D01*
X0269200Y0173874D01*
X0269200Y0171726D01*
X0270022Y0169741D01*
X0271541Y0168222D01*
X0272560Y0167800D01*
X0271541Y0167378D01*
X0270022Y0165859D01*
X0269200Y0163874D01*
X0269200Y0161726D01*
X0270022Y0159741D01*
X0271541Y0158222D01*
X0272560Y0157800D01*
X0271541Y0157378D01*
X0270022Y0155859D01*
X0269200Y0153874D01*
X0269200Y0151726D01*
X0270022Y0149741D01*
X0271541Y0148222D01*
X0272560Y0147800D01*
X0271541Y0147378D01*
X0270022Y0145859D01*
X0269200Y0143874D01*
X0269200Y0141726D01*
X0270022Y0139741D01*
X0270963Y0138800D01*
X0254037Y0138800D01*
X0254978Y0139741D01*
X0255800Y0141726D01*
X0255800Y0143874D01*
X0254978Y0145859D01*
X0253459Y0147378D01*
X0252440Y0147800D01*
X0252806Y0147648D02*
X0272194Y0147648D01*
X0271117Y0148647D02*
X0253883Y0148647D01*
X0254882Y0149645D02*
X0270118Y0149645D01*
X0269648Y0150644D02*
X0255352Y0150644D01*
X0255765Y0151642D02*
X0269235Y0151642D01*
X0269200Y0152641D02*
X0255800Y0152641D01*
X0255800Y0153639D02*
X0269200Y0153639D01*
X0269516Y0154638D02*
X0255484Y0154638D01*
X0255070Y0155636D02*
X0269930Y0155636D01*
X0270798Y0156635D02*
X0254202Y0156635D01*
X0252842Y0157633D02*
X0272158Y0157633D01*
X0271131Y0158632D02*
X0253869Y0158632D01*
X0254867Y0159630D02*
X0270133Y0159630D01*
X0269654Y0160629D02*
X0255346Y0160629D01*
X0255759Y0161627D02*
X0269241Y0161627D01*
X0269200Y0162626D02*
X0255800Y0162626D01*
X0256567Y0163624D02*
X0269200Y0163624D01*
X0269510Y0164623D02*
X0257565Y0164623D01*
X0258564Y0165621D02*
X0269924Y0165621D01*
X0270783Y0166620D02*
X0259563Y0166620D01*
X0260561Y0167618D02*
X0272122Y0167618D01*
X0271146Y0168617D02*
X0261560Y0168617D01*
X0262558Y0169615D02*
X0270148Y0169615D01*
X0269661Y0170614D02*
X0263256Y0170614D01*
X0263500Y0171612D02*
X0269247Y0171612D01*
X0269200Y0172611D02*
X0263500Y0172611D01*
X0263500Y0173609D02*
X0269200Y0173609D01*
X0269504Y0174608D02*
X0263500Y0174608D01*
X0263500Y0175606D02*
X0269918Y0175606D01*
X0270768Y0176605D02*
X0263500Y0176605D01*
X0263500Y0177603D02*
X0272086Y0177603D01*
X0271161Y0178602D02*
X0263500Y0178602D01*
X0263500Y0179601D02*
X0270163Y0179601D01*
X0269667Y0180599D02*
X0263500Y0180599D01*
X0263500Y0181598D02*
X0269253Y0181598D01*
X0269200Y0182596D02*
X0263500Y0182596D01*
X0263500Y0183595D02*
X0269200Y0183595D01*
X0269498Y0184593D02*
X0263500Y0184593D01*
X0263500Y0185592D02*
X0269911Y0185592D01*
X0270753Y0186590D02*
X0263500Y0186590D01*
X0263500Y0187589D02*
X0272050Y0187589D01*
X0273327Y0188587D02*
X0263500Y0188587D01*
X0263500Y0189586D02*
X0271592Y0189586D01*
X0270791Y0190584D02*
X0263500Y0190584D01*
X0270308Y0191770D02*
X0270200Y0192454D01*
X0270200Y0192500D01*
X0277200Y0192500D01*
X0277200Y0193100D01*
X0277200Y0197200D01*
X0274254Y0197200D01*
X0273570Y0197092D01*
X0272911Y0196878D01*
X0272294Y0196563D01*
X0271734Y0196156D01*
X0271244Y0195666D01*
X0270837Y0195106D01*
X0270522Y0194489D01*
X0270308Y0193830D01*
X0270200Y0193146D01*
X0270200Y0193100D01*
X0277200Y0193100D01*
X0277800Y0193100D01*
X0277800Y0197200D01*
X0280746Y0197200D01*
X0281430Y0197092D01*
X0282089Y0196878D01*
X0282500Y0196668D01*
X0282500Y0198932D01*
X0282089Y0198722D01*
X0281430Y0198508D01*
X0280746Y0198400D01*
X0277800Y0198400D01*
X0277800Y0202500D01*
X0277200Y0202500D01*
X0277200Y0198400D01*
X0274254Y0198400D01*
X0273570Y0198508D01*
X0272911Y0198722D01*
X0272294Y0199037D01*
X0271734Y0199444D01*
X0271244Y0199934D01*
X0270837Y0200494D01*
X0270522Y0201111D01*
X0270308Y0201770D01*
X0270200Y0202454D01*
X0270200Y0202500D01*
X0277200Y0202500D01*
X0277200Y0203100D01*
X0277200Y0207200D01*
X0274254Y0207200D01*
X0273570Y0207092D01*
X0272911Y0206878D01*
X0272294Y0206563D01*
X0271734Y0206156D01*
X0271244Y0205666D01*
X0270837Y0205106D01*
X0270522Y0204489D01*
X0270308Y0203830D01*
X0270200Y0203146D01*
X0270200Y0203100D01*
X0277200Y0203100D01*
X0277800Y0203100D01*
X0277800Y0207200D01*
X0280746Y0207200D01*
X0281430Y0207092D01*
X0282089Y0206878D01*
X0282500Y0206668D01*
X0282500Y0208932D01*
X0282089Y0208722D01*
X0281430Y0208508D01*
X0280746Y0208400D01*
X0277800Y0208400D01*
X0277800Y0212500D01*
X0277200Y0212500D01*
X0277200Y0208400D01*
X0274254Y0208400D01*
X0273570Y0208508D01*
X0272911Y0208722D01*
X0272294Y0209037D01*
X0271734Y0209444D01*
X0271244Y0209934D01*
X0270837Y0210494D01*
X0270522Y0211111D01*
X0270308Y0211770D01*
X0270200Y0212454D01*
X0270200Y0212500D01*
X0277200Y0212500D01*
X0277200Y0213100D01*
X0277200Y0217200D01*
X0274254Y0217200D01*
X0273570Y0217092D01*
X0272911Y0216878D01*
X0272294Y0216563D01*
X0271734Y0216156D01*
X0271244Y0215666D01*
X0270837Y0215106D01*
X0270522Y0214489D01*
X0270308Y0213830D01*
X0270200Y0213146D01*
X0270200Y0213100D01*
X0277200Y0213100D01*
X0277800Y0213100D01*
X0277800Y0217200D01*
X0280746Y0217200D01*
X0281430Y0217092D01*
X0282089Y0216878D01*
X0282500Y0216668D01*
X0282500Y0222832D01*
X0281988Y0223044D01*
X0280244Y0224788D01*
X0279300Y0227067D01*
X0279300Y0229533D01*
X0280244Y0231812D01*
X0281732Y0233300D01*
X0280244Y0234788D01*
X0279300Y0237067D01*
X0279300Y0239533D01*
X0280244Y0241812D01*
X0281988Y0243556D01*
X0282749Y0243871D01*
X0282112Y0244334D01*
X0281534Y0244912D01*
X0281053Y0245575D01*
X0280681Y0246304D01*
X0280428Y0247082D01*
X0280314Y0247800D01*
X0285000Y0247800D01*
X0285000Y0248800D01*
X0285500Y0248300D01*
X0308500Y0248300D01*
X0308000Y0248498D02*
X0286000Y0248498D01*
X0286000Y0248800D02*
X0290686Y0248800D01*
X0290572Y0249518D01*
X0290319Y0250296D01*
X0289947Y0251025D01*
X0289466Y0251688D01*
X0288888Y0252266D01*
X0288225Y0252747D01*
X0287496Y0253119D01*
X0286718Y0253372D01*
X0286000Y0253486D01*
X0286000Y0248800D01*
X0285000Y0248800D01*
X0256000Y0248800D01*
X0255000Y0248800D01*
X0255500Y0248300D01*
X0256000Y0248498D02*
X0285000Y0248498D01*
X0285000Y0248800D02*
X0280314Y0248800D01*
X0280428Y0249518D01*
X0280681Y0250296D01*
X0281053Y0251025D01*
X0281534Y0251688D01*
X0282112Y0252266D01*
X0282775Y0252747D01*
X0283504Y0253119D01*
X0284282Y0253372D01*
X0285000Y0253486D01*
X0285000Y0248800D01*
X0285000Y0249496D02*
X0286000Y0249496D01*
X0286000Y0248800D02*
X0286000Y0247800D01*
X0290686Y0247800D01*
X0290572Y0247082D01*
X0290319Y0246304D01*
X0289947Y0245575D01*
X0289466Y0244912D01*
X0288888Y0244334D01*
X0288251Y0243871D01*
X0289012Y0243556D01*
X0290756Y0241812D01*
X0290761Y0241800D01*
X0317757Y0241800D01*
X0318057Y0242100D01*
X0317267Y0242100D01*
X0314988Y0243044D01*
X0313244Y0244788D01*
X0312929Y0245549D01*
X0312466Y0244912D01*
X0311888Y0244334D01*
X0311225Y0243853D01*
X0310496Y0243481D01*
X0309718Y0243228D01*
X0309000Y0243114D01*
X0309000Y0247800D01*
X0308000Y0247800D01*
X0308000Y0243114D01*
X0307282Y0243228D01*
X0306504Y0243481D01*
X0305775Y0243853D01*
X0305112Y0244334D01*
X0304534Y0244912D01*
X0304053Y0245575D01*
X0303681Y0246304D01*
X0303428Y0247082D01*
X0303314Y0247800D01*
X0308000Y0247800D01*
X0308000Y0248800D01*
X0308000Y0253486D01*
X0307282Y0253372D01*
X0306504Y0253119D01*
X0305775Y0252747D01*
X0305112Y0252266D01*
X0304534Y0251688D01*
X0304053Y0251025D01*
X0303681Y0250296D01*
X0303428Y0249518D01*
X0303314Y0248800D01*
X0308000Y0248800D01*
X0309000Y0248800D01*
X0309000Y0253486D01*
X0309718Y0253372D01*
X0310496Y0253119D01*
X0311225Y0252747D01*
X0311888Y0252266D01*
X0312466Y0251688D01*
X0312929Y0251051D01*
X0313244Y0251812D01*
X0314988Y0253556D01*
X0317267Y0254500D01*
X0319733Y0254500D01*
X0322012Y0253556D01*
X0323500Y0252068D01*
X0324988Y0253556D01*
X0327267Y0254500D01*
X0329733Y0254500D01*
X0332012Y0253556D01*
X0333756Y0251812D01*
X0334003Y0251215D01*
X0334499Y0253064D01*
X0336124Y0255878D01*
X0337276Y0257031D01*
X0202804Y0257239D01*
X0215699Y0244343D01*
X0216543Y0243499D01*
X0217000Y0242397D01*
X0217000Y0235447D01*
X0217984Y0234462D01*
X0218700Y0232735D01*
X0218700Y0230865D01*
X0217984Y0229138D01*
X0216662Y0227816D01*
X0214935Y0227100D01*
X0213065Y0227100D01*
X0211338Y0227816D01*
X0210016Y0229138D01*
X0209300Y0230865D01*
X0209300Y0232735D01*
X0210016Y0234462D01*
X0211000Y0235447D01*
X0211000Y0240557D01*
X0201347Y0250211D01*
X0201572Y0249518D01*
X0201686Y0248800D01*
X0197000Y0248800D01*
X0197000Y0247800D01*
X0201686Y0247800D01*
X0201572Y0247082D01*
X0201319Y0246304D01*
X0200947Y0245575D01*
X0200466Y0244912D01*
X0199888Y0244334D01*
X0199251Y0243871D01*
X0200012Y0243556D01*
X0201756Y0241812D01*
X0202700Y0239533D01*
X0202700Y0237067D01*
X0201756Y0234788D01*
X0200268Y0233300D01*
X0201756Y0231812D01*
X0202700Y0229533D01*
X0202700Y0227067D01*
X0202175Y0225800D01*
X0219825Y0225800D01*
X0219300Y0227067D01*
X0219300Y0229533D01*
X0220244Y0231812D01*
X0221732Y0233300D01*
X0220244Y0234788D01*
X0219300Y0237067D01*
X0219300Y0239533D01*
X0220244Y0241812D01*
X0221988Y0243556D01*
X0222749Y0243871D01*
X0222112Y0244334D01*
X0221534Y0244912D01*
X0221053Y0245575D01*
X0220681Y0246304D01*
X0220428Y0247082D01*
X0220314Y0247800D01*
X0225000Y0247800D01*
X0225000Y0248800D01*
X0225000Y0253486D01*
X0224282Y0253372D01*
X0223504Y0253119D01*
X0222775Y0252747D01*
X0222112Y0252266D01*
X0221534Y0251688D01*
X0221053Y0251025D01*
X0220681Y0250296D01*
X0220428Y0249518D01*
X0220314Y0248800D01*
X0225000Y0248800D01*
X0226000Y0248800D01*
X0225500Y0248300D01*
X0226000Y0248498D02*
X0255000Y0248498D01*
X0255000Y0248800D02*
X0255000Y0247800D01*
X0250314Y0247800D01*
X0250428Y0247082D01*
X0250681Y0246304D01*
X0251053Y0245575D01*
X0251534Y0244912D01*
X0252112Y0244334D01*
X0252749Y0243871D01*
X0251988Y0243556D01*
X0250244Y0241812D01*
X0250239Y0241800D01*
X0230761Y0241800D01*
X0230756Y0241812D01*
X0229012Y0243556D01*
X0228251Y0243871D01*
X0228888Y0244334D01*
X0229466Y0244912D01*
X0229947Y0245575D01*
X0230319Y0246304D01*
X0230572Y0247082D01*
X0230686Y0247800D01*
X0226000Y0247800D01*
X0226000Y0248800D01*
X0255000Y0248800D01*
X0255000Y0253486D01*
X0254282Y0253372D01*
X0253504Y0253119D01*
X0252775Y0252747D01*
X0252112Y0252266D01*
X0251534Y0251688D01*
X0251053Y0251025D01*
X0250681Y0250296D01*
X0250428Y0249518D01*
X0250314Y0248800D01*
X0255000Y0248800D01*
X0255000Y0249496D02*
X0256000Y0249496D01*
X0256000Y0248800D02*
X0256000Y0253486D01*
X0256718Y0253372D01*
X0257496Y0253119D01*
X0258225Y0252747D01*
X0258888Y0252266D01*
X0259466Y0251688D01*
X0259947Y0251025D01*
X0260319Y0250296D01*
X0260572Y0249518D01*
X0260686Y0248800D01*
X0256000Y0248800D01*
X0256000Y0250495D02*
X0255000Y0250495D01*
X0255000Y0251493D02*
X0256000Y0251493D01*
X0256000Y0252492D02*
X0255000Y0252492D01*
X0252423Y0252492D02*
X0228577Y0252492D01*
X0228888Y0252266D02*
X0228225Y0252747D01*
X0227496Y0253119D01*
X0226718Y0253372D01*
X0226000Y0253486D01*
X0226000Y0248800D01*
X0230686Y0248800D01*
X0230572Y0249518D01*
X0230319Y0250296D01*
X0229947Y0251025D01*
X0229466Y0251688D01*
X0228888Y0252266D01*
X0229607Y0251493D02*
X0251393Y0251493D01*
X0250782Y0250495D02*
X0230218Y0250495D01*
X0230575Y0249496D02*
X0250425Y0249496D01*
X0250362Y0247499D02*
X0230638Y0247499D01*
X0230383Y0246501D02*
X0250617Y0246501D01*
X0251105Y0245502D02*
X0229895Y0245502D01*
X0229058Y0244504D02*
X0251942Y0244504D01*
X0251937Y0243505D02*
X0229063Y0243505D01*
X0230061Y0242507D02*
X0250939Y0242507D01*
X0255000Y0238800D02*
X0255500Y0238300D01*
X0255000Y0238800D02*
X0226000Y0238800D01*
X0225500Y0238300D01*
X0221937Y0243505D02*
X0216537Y0243505D01*
X0216954Y0242507D02*
X0220939Y0242507D01*
X0220118Y0241508D02*
X0217000Y0241508D01*
X0217000Y0240510D02*
X0219704Y0240510D01*
X0219300Y0239511D02*
X0217000Y0239511D01*
X0217000Y0238513D02*
X0219300Y0238513D01*
X0219300Y0237514D02*
X0217000Y0237514D01*
X0217000Y0236516D02*
X0219528Y0236516D01*
X0219942Y0235517D02*
X0217000Y0235517D01*
X0217928Y0234519D02*
X0220513Y0234519D01*
X0221512Y0233520D02*
X0218375Y0233520D01*
X0218700Y0232522D02*
X0220954Y0232522D01*
X0220124Y0231523D02*
X0218700Y0231523D01*
X0218559Y0230525D02*
X0219711Y0230525D01*
X0219300Y0229526D02*
X0218145Y0229526D01*
X0217374Y0228528D02*
X0219300Y0228528D01*
X0219300Y0227529D02*
X0215971Y0227529D01*
X0219522Y0226531D02*
X0202478Y0226531D01*
X0202700Y0227529D02*
X0212029Y0227529D01*
X0210626Y0228528D02*
X0202700Y0228528D01*
X0202700Y0229526D02*
X0209855Y0229526D01*
X0209441Y0230525D02*
X0202289Y0230525D01*
X0201876Y0231523D02*
X0209300Y0231523D01*
X0209300Y0232522D02*
X0201046Y0232522D01*
X0200488Y0233520D02*
X0209625Y0233520D01*
X0210072Y0234519D02*
X0201487Y0234519D01*
X0202058Y0235517D02*
X0211000Y0235517D01*
X0211000Y0236516D02*
X0202472Y0236516D01*
X0202700Y0237514D02*
X0211000Y0237514D01*
X0211000Y0238513D02*
X0202700Y0238513D01*
X0202700Y0239511D02*
X0211000Y0239511D01*
X0211000Y0240510D02*
X0202296Y0240510D01*
X0201882Y0241508D02*
X0210049Y0241508D01*
X0209051Y0242507D02*
X0201061Y0242507D01*
X0200063Y0243505D02*
X0208052Y0243505D01*
X0207054Y0244504D02*
X0200058Y0244504D01*
X0200895Y0245502D02*
X0206055Y0245502D01*
X0205057Y0246501D02*
X0201383Y0246501D01*
X0201638Y0247499D02*
X0204058Y0247499D01*
X0203060Y0248498D02*
X0197000Y0248498D01*
X0196500Y0248300D02*
X0196000Y0248800D01*
X0167000Y0248800D01*
X0166500Y0248300D01*
X0166000Y0248800D01*
X0136000Y0248800D01*
X0136000Y0248300D01*
X0136500Y0248498D02*
X0166000Y0248498D01*
X0166000Y0248800D02*
X0166000Y0247800D01*
X0161314Y0247800D01*
X0161428Y0247082D01*
X0161681Y0246304D01*
X0162053Y0245575D01*
X0162534Y0244912D01*
X0163112Y0244334D01*
X0163749Y0243871D01*
X0162988Y0243556D01*
X0161244Y0241812D01*
X0161239Y0241800D01*
X0141261Y0241800D01*
X0141256Y0241812D01*
X0139512Y0243556D01*
X0138751Y0243871D01*
X0139388Y0244334D01*
X0139966Y0244912D01*
X0140447Y0245575D01*
X0140819Y0246304D01*
X0141072Y0247082D01*
X0141186Y0247800D01*
X0136500Y0247800D01*
X0136500Y0248800D01*
X0141186Y0248800D01*
X0141072Y0249518D01*
X0140819Y0250296D01*
X0140447Y0251025D01*
X0139966Y0251688D01*
X0139854Y0251800D01*
X0162646Y0251800D01*
X0162534Y0251688D01*
X0162053Y0251025D01*
X0161681Y0250296D01*
X0161428Y0249518D01*
X0161314Y0248800D01*
X0166000Y0248800D01*
X0167000Y0248800D02*
X0171686Y0248800D01*
X0171572Y0249518D01*
X0171319Y0250296D01*
X0170947Y0251025D01*
X0170466Y0251688D01*
X0170354Y0251800D01*
X0192646Y0251800D01*
X0192534Y0251688D01*
X0192053Y0251025D01*
X0191681Y0250296D01*
X0191428Y0249518D01*
X0191314Y0248800D01*
X0196000Y0248800D01*
X0196000Y0247800D01*
X0191314Y0247800D01*
X0191428Y0247082D01*
X0191681Y0246304D01*
X0192053Y0245575D01*
X0192534Y0244912D01*
X0193112Y0244334D01*
X0193749Y0243871D01*
X0192988Y0243556D01*
X0191244Y0241812D01*
X0191239Y0241800D01*
X0171761Y0241800D01*
X0171756Y0241812D01*
X0170012Y0243556D01*
X0169251Y0243871D01*
X0169888Y0244334D01*
X0170466Y0244912D01*
X0170947Y0245575D01*
X0171319Y0246304D01*
X0171572Y0247082D01*
X0171686Y0247800D01*
X0167000Y0247800D01*
X0167000Y0248800D01*
X0167000Y0248498D02*
X0196000Y0248498D01*
X0191782Y0250495D02*
X0171218Y0250495D01*
X0171575Y0249496D02*
X0191425Y0249496D01*
X0191362Y0247499D02*
X0171638Y0247499D01*
X0171383Y0246501D02*
X0191617Y0246501D01*
X0192105Y0245502D02*
X0170895Y0245502D01*
X0170058Y0244504D02*
X0192942Y0244504D01*
X0192937Y0243505D02*
X0170063Y0243505D01*
X0171061Y0242507D02*
X0191939Y0242507D01*
X0196000Y0238800D02*
X0196500Y0238300D01*
X0196000Y0238800D02*
X0167000Y0238800D01*
X0166500Y0238300D01*
X0166000Y0238800D01*
X0136000Y0238800D01*
X0136000Y0238300D01*
X0140561Y0242507D02*
X0161939Y0242507D01*
X0162937Y0243505D02*
X0139563Y0243505D01*
X0139558Y0244504D02*
X0162942Y0244504D01*
X0162105Y0245502D02*
X0140395Y0245502D01*
X0140883Y0246501D02*
X0161617Y0246501D01*
X0161362Y0247499D02*
X0141138Y0247499D01*
X0141075Y0249496D02*
X0161425Y0249496D01*
X0161782Y0250495D02*
X0140718Y0250495D01*
X0140107Y0251493D02*
X0162393Y0251493D01*
X0170607Y0251493D02*
X0192393Y0251493D01*
X0201000Y0254800D02*
X0214000Y0241800D01*
X0214000Y0231800D01*
X0215539Y0244504D02*
X0221942Y0244504D01*
X0221105Y0245502D02*
X0214540Y0245502D01*
X0213542Y0246501D02*
X0220617Y0246501D01*
X0220362Y0247499D02*
X0212543Y0247499D01*
X0211545Y0248498D02*
X0225000Y0248498D01*
X0225000Y0249496D02*
X0226000Y0249496D01*
X0226000Y0250495D02*
X0225000Y0250495D01*
X0225000Y0251493D02*
X0226000Y0251493D01*
X0226000Y0252492D02*
X0225000Y0252492D01*
X0222423Y0252492D02*
X0207551Y0252492D01*
X0208549Y0251493D02*
X0221393Y0251493D01*
X0220782Y0250495D02*
X0209548Y0250495D01*
X0210546Y0249496D02*
X0220425Y0249496D01*
X0206552Y0253490D02*
X0314922Y0253490D01*
X0313924Y0252492D02*
X0311577Y0252492D01*
X0312607Y0251493D02*
X0313112Y0251493D01*
X0309000Y0251493D02*
X0308000Y0251493D01*
X0308000Y0250495D02*
X0309000Y0250495D01*
X0309000Y0249496D02*
X0308000Y0249496D01*
X0308000Y0247499D02*
X0309000Y0247499D01*
X0309000Y0246501D02*
X0308000Y0246501D01*
X0308000Y0245502D02*
X0309000Y0245502D01*
X0309000Y0244504D02*
X0308000Y0244504D01*
X0308000Y0243505D02*
X0309000Y0243505D01*
X0310544Y0243505D02*
X0314527Y0243505D01*
X0313528Y0244504D02*
X0312058Y0244504D01*
X0312895Y0245502D02*
X0312948Y0245502D01*
X0316285Y0242507D02*
X0290061Y0242507D01*
X0289063Y0243505D02*
X0306456Y0243505D01*
X0304942Y0244504D02*
X0289058Y0244504D01*
X0289895Y0245502D02*
X0304105Y0245502D01*
X0303617Y0246501D02*
X0290383Y0246501D01*
X0290638Y0247499D02*
X0303362Y0247499D01*
X0303425Y0249496D02*
X0290575Y0249496D01*
X0290218Y0250495D02*
X0303782Y0250495D01*
X0304393Y0251493D02*
X0289607Y0251493D01*
X0288577Y0252492D02*
X0305423Y0252492D01*
X0308000Y0252492D02*
X0309000Y0252492D01*
X0317240Y0254489D02*
X0205554Y0254489D01*
X0204555Y0255487D02*
X0335898Y0255487D01*
X0335321Y0254489D02*
X0329760Y0254489D01*
X0327240Y0254489D02*
X0319760Y0254489D01*
X0322078Y0253490D02*
X0324922Y0253490D01*
X0323924Y0252492D02*
X0323076Y0252492D01*
X0328500Y0248300D02*
X0319000Y0238800D01*
X0286000Y0238800D01*
X0285500Y0238300D01*
X0279704Y0240510D02*
X0261296Y0240510D01*
X0261700Y0239511D02*
X0279300Y0239511D01*
X0279300Y0238513D02*
X0261700Y0238513D01*
X0261700Y0237514D02*
X0279300Y0237514D01*
X0279528Y0236516D02*
X0261472Y0236516D01*
X0261058Y0235517D02*
X0279942Y0235517D01*
X0280513Y0234519D02*
X0260487Y0234519D01*
X0259488Y0233520D02*
X0281512Y0233520D01*
X0280954Y0232522D02*
X0260046Y0232522D01*
X0260876Y0231523D02*
X0280124Y0231523D01*
X0279711Y0230525D02*
X0261289Y0230525D01*
X0261700Y0229526D02*
X0279300Y0229526D01*
X0279300Y0228528D02*
X0261700Y0228528D01*
X0261700Y0227529D02*
X0279300Y0227529D01*
X0279522Y0226531D02*
X0261478Y0226531D01*
X0261064Y0225532D02*
X0279936Y0225532D01*
X0280498Y0224534D02*
X0260502Y0224534D01*
X0259503Y0223535D02*
X0281497Y0223535D01*
X0282500Y0222537D02*
X0258006Y0222537D01*
X0259005Y0221538D02*
X0282500Y0221538D01*
X0282500Y0220539D02*
X0260003Y0220539D01*
X0261002Y0219541D02*
X0282500Y0219541D01*
X0282500Y0218542D02*
X0262000Y0218542D01*
X0262999Y0217544D02*
X0282500Y0217544D01*
X0288500Y0217544D02*
X0354200Y0217544D01*
X0354200Y0218542D02*
X0288500Y0218542D01*
X0288500Y0219541D02*
X0354200Y0219541D01*
X0354200Y0220539D02*
X0288500Y0220539D01*
X0288500Y0221538D02*
X0354200Y0221538D01*
X0354200Y0222537D02*
X0288500Y0222537D01*
X0289503Y0223535D02*
X0354200Y0223535D01*
X0354200Y0224534D02*
X0290502Y0224534D01*
X0291064Y0225532D02*
X0314408Y0225532D01*
X0312487Y0226531D02*
X0291478Y0226531D01*
X0291700Y0227529D02*
X0311489Y0227529D01*
X0310751Y0228528D02*
X0291700Y0228528D01*
X0291700Y0229526D02*
X0310337Y0229526D01*
X0309924Y0230525D02*
X0291289Y0230525D01*
X0290876Y0231523D02*
X0309907Y0231523D01*
X0309907Y0232522D02*
X0290046Y0232522D01*
X0289488Y0233520D02*
X0310020Y0233520D01*
X0310433Y0234519D02*
X0290487Y0234519D01*
X0291058Y0235517D02*
X0310847Y0235517D01*
X0321594Y0236516D02*
X0331406Y0236516D01*
X0330532Y0235517D02*
X0322468Y0235517D01*
X0322882Y0234519D02*
X0330118Y0234519D01*
X0329705Y0233520D02*
X0323295Y0233520D01*
X0323407Y0232522D02*
X0329593Y0232522D01*
X0329593Y0231523D02*
X0323407Y0231523D01*
X0323391Y0230525D02*
X0329609Y0230525D01*
X0330022Y0229526D02*
X0322978Y0229526D01*
X0322564Y0228528D02*
X0330436Y0228528D01*
X0331174Y0227529D02*
X0321826Y0227529D01*
X0320828Y0226531D02*
X0332172Y0226531D01*
X0334093Y0225532D02*
X0318907Y0225532D01*
X0321957Y0237514D02*
X0332404Y0237514D01*
X0334653Y0238513D02*
X0322955Y0238513D01*
X0323954Y0239511D02*
X0337334Y0239511D01*
X0338032Y0238513D02*
X0338332Y0238513D01*
X0336335Y0240510D02*
X0324952Y0240510D01*
X0325951Y0241508D02*
X0335669Y0241508D01*
X0335093Y0242507D02*
X0330715Y0242507D01*
X0332473Y0243505D02*
X0334516Y0243505D01*
X0334239Y0244504D02*
X0333472Y0244504D01*
X0333888Y0251493D02*
X0334078Y0251493D01*
X0334345Y0252492D02*
X0333076Y0252492D01*
X0332078Y0253490D02*
X0334745Y0253490D01*
X0336731Y0256486D02*
X0203557Y0256486D01*
X0201000Y0254800D02*
X0135000Y0254800D01*
X0130000Y0249800D01*
X0130000Y0234300D01*
X0136000Y0228300D01*
X0136000Y0228800D01*
X0129800Y0228528D02*
X0112200Y0228528D01*
X0112200Y0229526D02*
X0129800Y0229526D01*
X0129533Y0230525D02*
X0111789Y0230525D01*
X0111376Y0231523D02*
X0128534Y0231523D01*
X0127536Y0232522D02*
X0110546Y0232522D01*
X0109988Y0233520D02*
X0127076Y0233520D01*
X0127000Y0234519D02*
X0110987Y0234519D01*
X0111558Y0235517D02*
X0127000Y0235517D01*
X0127000Y0236516D02*
X0111972Y0236516D01*
X0112200Y0237514D02*
X0127000Y0237514D01*
X0127000Y0238513D02*
X0112200Y0238513D01*
X0112200Y0239511D02*
X0127000Y0239511D01*
X0127000Y0240510D02*
X0111796Y0240510D01*
X0111382Y0241508D02*
X0127000Y0241508D01*
X0127000Y0242507D02*
X0110561Y0242507D01*
X0109563Y0243505D02*
X0127000Y0243505D01*
X0127000Y0244504D02*
X0109558Y0244504D01*
X0110395Y0245502D02*
X0127000Y0245502D01*
X0127000Y0246501D02*
X0110883Y0246501D01*
X0111138Y0247499D02*
X0127000Y0247499D01*
X0130446Y0254489D02*
X0037300Y0254489D01*
X0037300Y0255487D02*
X0131445Y0255487D01*
X0132443Y0256486D02*
X0037300Y0256486D01*
X0037300Y0257484D02*
X0044098Y0257484D01*
X0040862Y0247499D02*
X0037300Y0247499D01*
X0037300Y0246501D02*
X0041117Y0246501D01*
X0041605Y0245502D02*
X0037300Y0245502D01*
X0037300Y0244504D02*
X0042442Y0244504D01*
X0042437Y0243505D02*
X0037300Y0243505D01*
X0037300Y0242507D02*
X0041439Y0242507D01*
X0040618Y0241508D02*
X0037300Y0241508D01*
X0037300Y0240510D02*
X0040204Y0240510D01*
X0039800Y0239511D02*
X0037300Y0239511D01*
X0037300Y0238513D02*
X0039800Y0238513D01*
X0039800Y0237514D02*
X0037300Y0237514D01*
X0037300Y0236516D02*
X0039549Y0236516D01*
X0038550Y0235517D02*
X0037300Y0235517D01*
X0037300Y0234519D02*
X0037552Y0234519D01*
X0046000Y0228300D02*
X0046000Y0205800D01*
X0075500Y0228300D02*
X0083000Y0220300D01*
X0251500Y0220300D01*
X0257000Y0214800D01*
X0257000Y0179800D01*
X0250000Y0172800D01*
X0248000Y0172800D01*
X0247500Y0172800D01*
X0247500Y0162800D02*
X0251500Y0162800D01*
X0260500Y0171800D01*
X0260500Y0215800D01*
X0253500Y0222800D01*
X0111000Y0222800D01*
X0106000Y0227800D01*
X0106000Y0228300D01*
X0111978Y0226531D02*
X0130022Y0226531D01*
X0129800Y0227529D02*
X0112200Y0227529D01*
X0095000Y0217300D02*
X0243000Y0217300D01*
X0247500Y0212800D01*
X0237500Y0212800D02*
X0247500Y0202800D01*
X0235500Y0197800D02*
X0230000Y0203300D01*
X0134500Y0203300D01*
X0129500Y0208300D01*
X0129500Y0210300D01*
X0154500Y0212800D02*
X0237500Y0212800D01*
X0235500Y0197800D02*
X0234000Y0197800D01*
X0263500Y0197574D02*
X0282500Y0197574D01*
X0282500Y0198572D02*
X0281627Y0198572D01*
X0277800Y0198572D02*
X0277200Y0198572D01*
X0277200Y0199571D02*
X0277800Y0199571D01*
X0277800Y0200569D02*
X0277200Y0200569D01*
X0277200Y0201568D02*
X0277800Y0201568D01*
X0277200Y0202566D02*
X0263500Y0202566D01*
X0263500Y0201568D02*
X0270374Y0201568D01*
X0270798Y0200569D02*
X0263500Y0200569D01*
X0263500Y0199571D02*
X0271607Y0199571D01*
X0273373Y0198572D02*
X0263500Y0198572D01*
X0263500Y0196575D02*
X0272317Y0196575D01*
X0271179Y0195577D02*
X0263500Y0195577D01*
X0263500Y0194578D02*
X0270568Y0194578D01*
X0270269Y0193580D02*
X0263500Y0193580D01*
X0263500Y0203565D02*
X0270266Y0203565D01*
X0270560Y0204563D02*
X0263500Y0204563D01*
X0263500Y0205562D02*
X0271168Y0205562D01*
X0272290Y0206560D02*
X0263500Y0206560D01*
X0263500Y0207559D02*
X0282500Y0207559D01*
X0282500Y0208557D02*
X0281581Y0208557D01*
X0277800Y0208557D02*
X0277200Y0208557D01*
X0277200Y0209556D02*
X0277800Y0209556D01*
X0277800Y0210554D02*
X0277200Y0210554D01*
X0277200Y0211553D02*
X0277800Y0211553D01*
X0277200Y0212551D02*
X0263500Y0212551D01*
X0263500Y0211553D02*
X0270379Y0211553D01*
X0270806Y0210554D02*
X0263500Y0210554D01*
X0263500Y0209556D02*
X0271622Y0209556D01*
X0273419Y0208557D02*
X0263500Y0208557D01*
X0263500Y0213550D02*
X0270264Y0213550D01*
X0270553Y0214548D02*
X0263500Y0214548D01*
X0263500Y0215547D02*
X0271157Y0215547D01*
X0272269Y0216545D02*
X0263438Y0216545D01*
X0277200Y0216545D02*
X0277800Y0216545D01*
X0277800Y0215547D02*
X0277200Y0215547D01*
X0277200Y0214548D02*
X0277800Y0214548D01*
X0277800Y0213550D02*
X0277200Y0213550D01*
X0277200Y0206560D02*
X0277800Y0206560D01*
X0277800Y0205562D02*
X0277200Y0205562D01*
X0277200Y0204563D02*
X0277800Y0204563D01*
X0277800Y0203565D02*
X0277200Y0203565D01*
X0277200Y0196575D02*
X0277800Y0196575D01*
X0277800Y0195577D02*
X0277200Y0195577D01*
X0277200Y0194578D02*
X0277800Y0194578D01*
X0277800Y0193580D02*
X0277200Y0193580D01*
X0277200Y0191583D02*
X0277800Y0191583D01*
X0277800Y0190584D02*
X0277200Y0190584D01*
X0277200Y0189586D02*
X0277800Y0189586D01*
X0277800Y0188587D02*
X0277200Y0188587D01*
X0281673Y0188587D02*
X0282500Y0188587D01*
X0293000Y0189586D02*
X0354200Y0189586D01*
X0354200Y0190584D02*
X0293000Y0190584D01*
X0293000Y0191583D02*
X0354200Y0191583D01*
X0354200Y0192581D02*
X0293000Y0192581D01*
X0293000Y0193580D02*
X0354200Y0193580D01*
X0354200Y0194578D02*
X0293000Y0194578D01*
X0293000Y0195577D02*
X0354200Y0195577D01*
X0354200Y0196575D02*
X0293000Y0196575D01*
X0293000Y0197574D02*
X0354200Y0197574D01*
X0354200Y0198572D02*
X0293000Y0198572D01*
X0293000Y0199571D02*
X0354200Y0199571D01*
X0354200Y0200569D02*
X0293000Y0200569D01*
X0293000Y0201568D02*
X0354200Y0201568D01*
X0354200Y0202566D02*
X0293000Y0202566D01*
X0293000Y0203565D02*
X0354200Y0203565D01*
X0354200Y0204563D02*
X0293000Y0204563D01*
X0293000Y0205562D02*
X0354200Y0205562D01*
X0354200Y0206560D02*
X0293000Y0206560D01*
X0293000Y0207559D02*
X0354200Y0207559D01*
X0354200Y0208557D02*
X0293904Y0208557D01*
X0294365Y0209556D02*
X0354200Y0209556D01*
X0354200Y0210554D02*
X0294700Y0210554D01*
X0294700Y0211553D02*
X0354200Y0211553D01*
X0354200Y0212551D02*
X0294569Y0212551D01*
X0294155Y0213550D02*
X0354200Y0213550D01*
X0354200Y0214548D02*
X0293398Y0214548D01*
X0292029Y0215547D02*
X0354200Y0215547D01*
X0354200Y0216545D02*
X0288500Y0216545D01*
X0290000Y0211300D02*
X0290000Y0175800D01*
X0294180Y0173609D02*
X0342700Y0173609D01*
X0342700Y0172611D02*
X0293458Y0172611D01*
X0294593Y0174608D02*
X0343020Y0174608D01*
X0342700Y0171612D02*
X0295747Y0171612D01*
X0292500Y0167583D02*
X0292500Y0163300D01*
X0301500Y0154300D01*
X0306460Y0154300D01*
X0306260Y0163040D02*
X0306260Y0164800D01*
X0292500Y0153017D02*
X0286293Y0148809D01*
X0286000Y0148102D02*
X0286000Y0139800D01*
X0282293Y0136093D02*
X0282249Y0136051D01*
X0282203Y0136013D01*
X0282154Y0135977D01*
X0282103Y0135944D01*
X0282051Y0135915D01*
X0281996Y0135888D01*
X0281941Y0135865D01*
X0281884Y0135845D01*
X0281825Y0135829D01*
X0281766Y0135816D01*
X0281707Y0135807D01*
X0281646Y0135802D01*
X0281586Y0135800D01*
X0270103Y0139660D02*
X0254897Y0139660D01*
X0255358Y0140659D02*
X0269642Y0140659D01*
X0269228Y0141657D02*
X0255771Y0141657D01*
X0255800Y0142656D02*
X0269200Y0142656D01*
X0269200Y0143654D02*
X0255800Y0143654D01*
X0255478Y0144653D02*
X0269522Y0144653D01*
X0269936Y0145651D02*
X0255064Y0145651D01*
X0254187Y0146650D02*
X0270813Y0146650D01*
X0286000Y0148102D02*
X0286002Y0148162D01*
X0286007Y0148223D01*
X0286016Y0148282D01*
X0286029Y0148341D01*
X0286045Y0148400D01*
X0286065Y0148457D01*
X0286088Y0148512D01*
X0286115Y0148567D01*
X0286144Y0148619D01*
X0286177Y0148670D01*
X0286213Y0148719D01*
X0286251Y0148765D01*
X0286293Y0148809D01*
X0292500Y0152300D02*
X0292500Y0153017D01*
X0299831Y0139800D02*
X0299831Y0134631D01*
X0307293Y0128676D02*
X0310800Y0128676D01*
X0310800Y0127678D02*
X0306295Y0127678D01*
X0305296Y0126679D02*
X0310877Y0126679D01*
X0311291Y0125681D02*
X0304298Y0125681D01*
X0303299Y0124682D02*
X0311971Y0124682D01*
X0313155Y0123684D02*
X0302800Y0123684D01*
X0302800Y0122685D02*
X0328432Y0122685D01*
X0327433Y0121687D02*
X0302800Y0121687D01*
X0302800Y0120688D02*
X0326599Y0120688D01*
X0326185Y0119690D02*
X0302800Y0119690D01*
X0302800Y0118691D02*
X0325779Y0118691D01*
X0325779Y0117693D02*
X0302800Y0117693D01*
X0302800Y0116694D02*
X0325779Y0116694D01*
X0326013Y0115696D02*
X0310846Y0115696D01*
X0312126Y0114697D02*
X0326427Y0114697D01*
X0327018Y0113699D02*
X0313124Y0113699D01*
X0313707Y0112700D02*
X0328016Y0112700D01*
X0329820Y0111702D02*
X0314121Y0111702D01*
X0303398Y0115696D02*
X0302800Y0115696D01*
X0315500Y0127800D02*
X0320250Y0127800D01*
X0312725Y0131672D02*
X0310289Y0131672D01*
X0309290Y0130673D02*
X0311727Y0130673D01*
X0311189Y0129675D02*
X0308292Y0129675D01*
X0338642Y0132670D02*
X0354200Y0132670D01*
X0354200Y0133669D02*
X0350571Y0133669D01*
X0344429Y0133669D02*
X0339487Y0133669D01*
X0339750Y0134668D02*
X0343430Y0134668D01*
X0342432Y0135666D02*
X0339750Y0135666D01*
X0339750Y0136665D02*
X0341700Y0136665D01*
X0346500Y0148800D02*
X0341000Y0154300D01*
X0334240Y0154300D01*
X0339299Y0157633D02*
X0343964Y0157633D01*
X0342966Y0158632D02*
X0338934Y0158632D01*
X0337592Y0159630D02*
X0341967Y0159630D01*
X0341700Y0160629D02*
X0338616Y0160629D01*
X0339207Y0161627D02*
X0341700Y0161627D01*
X0345000Y0165300D02*
X0347500Y0162300D01*
X0345000Y0165300D02*
X0334240Y0165300D01*
X0339299Y0168617D02*
X0344395Y0168617D01*
X0343396Y0169615D02*
X0338941Y0169615D01*
X0337632Y0170614D02*
X0342700Y0170614D01*
X0347200Y0172611D02*
X0347800Y0172611D01*
X0347800Y0173609D02*
X0347200Y0173609D01*
X0347200Y0174608D02*
X0347800Y0174608D01*
X0347800Y0175606D02*
X0347200Y0175606D01*
X0347200Y0176605D02*
X0347800Y0176605D01*
X0342367Y0179601D02*
X0354200Y0179601D01*
X0354200Y0180599D02*
X0342781Y0180599D01*
X0343093Y0181598D02*
X0354200Y0181598D01*
X0354200Y0182596D02*
X0343093Y0182596D01*
X0343093Y0183595D02*
X0354200Y0183595D01*
X0354200Y0184593D02*
X0342862Y0184593D01*
X0342448Y0185592D02*
X0354200Y0185592D01*
X0354200Y0186590D02*
X0341992Y0186590D01*
X0340994Y0187589D02*
X0354200Y0187589D01*
X0354200Y0188587D02*
X0339753Y0188587D01*
X0341797Y0178602D02*
X0354200Y0178602D01*
X0330888Y0159630D02*
X0330112Y0159630D01*
X0326760Y0154300D02*
X0326760Y0165300D01*
X0342908Y0156635D02*
X0344963Y0156635D01*
X0343906Y0155636D02*
X0354200Y0155636D01*
X0354200Y0154638D02*
X0344905Y0154638D01*
X0346500Y0148800D02*
X0347500Y0148800D01*
X0285500Y0180300D02*
X0285500Y0228300D01*
X0280118Y0241508D02*
X0260882Y0241508D01*
X0260061Y0242507D02*
X0280939Y0242507D01*
X0281937Y0243505D02*
X0259063Y0243505D01*
X0259058Y0244504D02*
X0281942Y0244504D01*
X0281105Y0245502D02*
X0259895Y0245502D01*
X0260383Y0246501D02*
X0280617Y0246501D01*
X0280362Y0247499D02*
X0260638Y0247499D01*
X0260575Y0249496D02*
X0280425Y0249496D01*
X0280782Y0250495D02*
X0260218Y0250495D01*
X0259607Y0251493D02*
X0281393Y0251493D01*
X0282423Y0252492D02*
X0258577Y0252492D01*
X0285000Y0252492D02*
X0286000Y0252492D01*
X0286000Y0251493D02*
X0285000Y0251493D01*
X0285000Y0250495D02*
X0286000Y0250495D01*
X0341279Y0236516D02*
X0342292Y0236516D01*
X0342153Y0235517D02*
X0354200Y0235517D01*
X0354200Y0234519D02*
X0342567Y0234519D01*
X0342980Y0233520D02*
X0354200Y0233520D01*
X0354200Y0232522D02*
X0343093Y0232522D01*
X0343093Y0231523D02*
X0354200Y0231523D01*
X0354200Y0230525D02*
X0343076Y0230525D01*
X0342663Y0229526D02*
X0354200Y0229526D01*
X0354200Y0228528D02*
X0342249Y0228528D01*
X0341511Y0227529D02*
X0354200Y0227529D01*
X0354200Y0226531D02*
X0340513Y0226531D01*
X0338592Y0225532D02*
X0354200Y0225532D01*
X0354200Y0236516D02*
X0349708Y0236516D01*
X0352003Y0237514D02*
X0354200Y0237514D01*
X0354200Y0238513D02*
X0353668Y0238513D01*
X0285500Y0180300D02*
X0278000Y0172800D01*
X0277500Y0172800D01*
X0242194Y0147648D02*
X0180700Y0147648D01*
X0180700Y0148647D02*
X0241117Y0148647D01*
X0184929Y0149645D02*
X0180654Y0149645D01*
X0180240Y0150644D02*
X0184016Y0150644D01*
X0183740Y0151642D02*
X0179826Y0151642D01*
X0178927Y0152641D02*
X0183740Y0152641D01*
X0183740Y0153639D02*
X0178607Y0153639D01*
X0179606Y0154638D02*
X0183740Y0154638D01*
X0183740Y0155636D02*
X0180107Y0155636D01*
X0180521Y0156635D02*
X0183740Y0156635D01*
X0183740Y0157633D02*
X0180700Y0157633D01*
X0180700Y0158632D02*
X0183740Y0158632D01*
X0183740Y0159630D02*
X0180660Y0159630D01*
X0180246Y0160629D02*
X0183740Y0160629D01*
X0183740Y0161627D02*
X0179833Y0161627D01*
X0178942Y0162626D02*
X0183740Y0162626D01*
X0183740Y0163624D02*
X0177847Y0163624D01*
X0178177Y0164623D02*
X0183740Y0164623D01*
X0183740Y0165621D02*
X0178971Y0165621D01*
X0179422Y0166620D02*
X0183740Y0166620D01*
X0183740Y0167618D02*
X0179657Y0167618D01*
X0180000Y0168300D02*
X0174500Y0168300D01*
X0175000Y0168617D02*
X0183740Y0168617D01*
X0174000Y0168617D02*
X0087426Y0168617D01*
X0091852Y0204563D02*
X0095469Y0204563D01*
X0094470Y0205562D02*
X0093530Y0205562D01*
X0089500Y0210300D02*
X0089500Y0211800D01*
X0095000Y0217300D01*
X0076000Y0250495D02*
X0075000Y0250495D01*
X0075000Y0251493D02*
X0076000Y0251493D01*
X0076000Y0252492D02*
X0075000Y0252492D01*
X0201575Y0249496D02*
X0202061Y0249496D01*
X0086289Y0125681D02*
X0075055Y0125681D01*
X0075623Y0124682D02*
X0085114Y0124682D01*
X0084191Y0123684D02*
X0082313Y0123684D01*
X0083468Y0122685D02*
X0083777Y0122685D01*
X0080000Y0122685D02*
X0079000Y0122685D01*
X0079000Y0121687D02*
X0080000Y0121687D01*
X0080000Y0120688D02*
X0079000Y0120688D01*
X0079500Y0119300D02*
X0079500Y0116800D01*
X0073000Y0110300D01*
X0071576Y0107708D02*
X0060075Y0107708D01*
X0059800Y0106709D02*
X0069406Y0106709D01*
X0067917Y0105711D02*
X0059800Y0105711D01*
X0059800Y0104712D02*
X0066919Y0104712D01*
X0066038Y0103714D02*
X0059800Y0103714D01*
X0059800Y0102715D02*
X0065461Y0102715D01*
X0064885Y0101717D02*
X0059800Y0101717D01*
X0059800Y0100718D02*
X0064545Y0100718D01*
X0064277Y0099720D02*
X0059800Y0099720D01*
X0059800Y0098721D02*
X0064010Y0098721D01*
X0064000Y0097723D02*
X0059800Y0097723D01*
X0059800Y0096724D02*
X0064000Y0096724D01*
X0064017Y0095726D02*
X0059800Y0095726D01*
X0059800Y0094727D02*
X0064284Y0094727D01*
X0064552Y0093729D02*
X0059800Y0093729D01*
X0059800Y0092730D02*
X0064900Y0092730D01*
X0065477Y0091732D02*
X0059800Y0091732D01*
X0059800Y0090733D02*
X0066053Y0090733D01*
X0066946Y0089734D02*
X0059800Y0089734D01*
X0059800Y0088736D02*
X0067945Y0088736D01*
X0069454Y0087737D02*
X0059800Y0087737D01*
X0059800Y0086739D02*
X0071678Y0086739D01*
X0078322Y0086739D02*
X0083589Y0086739D01*
X0083774Y0087737D02*
X0080546Y0087737D01*
X0082055Y0088736D02*
X0084068Y0088736D01*
X0084480Y0089734D02*
X0083054Y0089734D01*
X0083947Y0090733D02*
X0085028Y0090733D01*
X0084523Y0091732D02*
X0085742Y0091732D01*
X0085100Y0092730D02*
X0086666Y0092730D01*
X0085448Y0093729D02*
X0087922Y0093729D01*
X0089807Y0094727D02*
X0085715Y0094727D01*
X0085983Y0095726D02*
X0123173Y0095726D01*
X0123173Y0096724D02*
X0086000Y0096724D01*
X0086000Y0097723D02*
X0123173Y0097723D01*
X0123173Y0098721D02*
X0085990Y0098721D01*
X0085723Y0099720D02*
X0123173Y0099720D01*
X0123173Y0100718D02*
X0085455Y0100718D01*
X0085115Y0101717D02*
X0123173Y0101717D01*
X0123173Y0102715D02*
X0085711Y0102715D01*
X0086709Y0103714D02*
X0123173Y0103714D01*
X0123173Y0104712D02*
X0087708Y0104712D01*
X0088706Y0105711D02*
X0123173Y0105711D01*
X0123332Y0106709D02*
X0089705Y0106709D01*
X0080000Y0114697D02*
X0079000Y0114697D01*
X0079000Y0115696D02*
X0080000Y0115696D01*
X0080000Y0116694D02*
X0079000Y0116694D01*
X0079000Y0117693D02*
X0080000Y0117693D01*
X0080000Y0118691D02*
X0079000Y0118691D01*
X0075750Y0115696D02*
X0075531Y0115696D01*
X0074833Y0114697D02*
X0077079Y0114697D01*
X0069500Y0120300D02*
X0069000Y0120800D01*
X0075700Y0123684D02*
X0076687Y0123684D01*
X0079000Y0123684D02*
X0080000Y0123684D01*
X0094004Y0085740D02*
X0285198Y0085740D01*
X0284199Y0084742D02*
X0103490Y0084742D01*
X0103377Y0083743D02*
X0283201Y0083743D01*
X0282202Y0082745D02*
X0103149Y0082745D01*
X0102811Y0081746D02*
X0281204Y0081746D01*
X0280205Y0080748D02*
X0102350Y0080748D01*
X0101747Y0079749D02*
X0279207Y0079749D01*
X0278208Y0078751D02*
X0100971Y0078751D01*
X0099920Y0077752D02*
X0277210Y0077752D01*
X0276211Y0076754D02*
X0222716Y0076754D01*
X0218599Y0076754D02*
X0183216Y0076754D01*
X0179099Y0076754D02*
X0098498Y0076754D01*
X0096074Y0075755D02*
X0177265Y0075755D01*
X0176267Y0074757D02*
X0084935Y0074757D01*
X0084769Y0075755D02*
X0090934Y0075755D01*
X0093004Y0075755D02*
X0094004Y0075755D01*
X0094004Y0076754D02*
X0093004Y0076754D01*
X0093004Y0077752D02*
X0094004Y0077752D01*
X0094004Y0078751D02*
X0093004Y0078751D01*
X0093004Y0079749D02*
X0094004Y0079749D01*
X0094004Y0080748D02*
X0093004Y0080748D01*
X0093004Y0081746D02*
X0094004Y0081746D01*
X0094004Y0082745D02*
X0093004Y0082745D01*
X0093004Y0083743D02*
X0094004Y0083743D01*
X0094004Y0084742D02*
X0093004Y0084742D01*
X0087088Y0077752D02*
X0084107Y0077752D01*
X0084496Y0076754D02*
X0088510Y0076754D01*
X0086037Y0078751D02*
X0083583Y0078751D01*
X0082898Y0079749D02*
X0085261Y0079749D01*
X0084658Y0080748D02*
X0082009Y0080748D01*
X0080842Y0081746D02*
X0084197Y0081746D01*
X0083859Y0082745D02*
X0079089Y0082745D01*
X0075500Y0082745D02*
X0074500Y0082745D01*
X0074500Y0081746D02*
X0075500Y0081746D01*
X0075500Y0080748D02*
X0074500Y0080748D01*
X0074500Y0079749D02*
X0075500Y0079749D01*
X0075500Y0078751D02*
X0074500Y0078751D01*
X0074500Y0077752D02*
X0075500Y0077752D01*
X0075500Y0076754D02*
X0074500Y0076754D01*
X0074500Y0075755D02*
X0075500Y0075755D01*
X0075500Y0072760D02*
X0074500Y0072760D01*
X0074500Y0071761D02*
X0075500Y0071761D01*
X0075500Y0070763D02*
X0074500Y0070763D01*
X0074500Y0069764D02*
X0075500Y0069764D01*
X0075500Y0068766D02*
X0074500Y0068766D01*
X0074500Y0067767D02*
X0075500Y0067767D01*
X0075500Y0066769D02*
X0074500Y0066769D01*
X0074500Y0065770D02*
X0075500Y0065770D01*
X0075500Y0064772D02*
X0074500Y0064772D01*
X0074500Y0063773D02*
X0075500Y0063773D01*
X0076820Y0063773D02*
X0123486Y0063773D01*
X0123173Y0062775D02*
X0069692Y0062775D01*
X0068694Y0063773D02*
X0073180Y0063773D01*
X0070316Y0064772D02*
X0067695Y0064772D01*
X0066697Y0065770D02*
X0068798Y0065770D01*
X0067704Y0066769D02*
X0065698Y0066769D01*
X0064700Y0067767D02*
X0066873Y0067767D01*
X0066237Y0068766D02*
X0063701Y0068766D01*
X0062703Y0069764D02*
X0065755Y0069764D01*
X0065403Y0070763D02*
X0061704Y0070763D01*
X0060706Y0071761D02*
X0065166Y0071761D01*
X0070691Y0061776D02*
X0123173Y0061776D01*
X0123173Y0060778D02*
X0071689Y0060778D01*
X0072688Y0059779D02*
X0123173Y0059779D01*
X0123173Y0058781D02*
X0073686Y0058781D01*
X0079684Y0064772D02*
X0124575Y0064772D01*
X0149827Y0049794D02*
X0276919Y0049794D01*
X0277509Y0048796D02*
X0149827Y0048796D01*
X0149827Y0047797D02*
X0278508Y0047797D01*
X0266226Y0066769D02*
X0264778Y0066769D01*
X0263353Y0067767D02*
X0267225Y0067767D01*
X0289689Y0081746D02*
X0298212Y0081746D01*
X0296408Y0082745D02*
X0290688Y0082745D01*
X0291686Y0083743D02*
X0295472Y0083743D01*
X0295058Y0084742D02*
X0292685Y0084742D01*
X0293683Y0085740D02*
X0294800Y0085740D01*
X0294800Y0086739D02*
X0294682Y0086739D01*
X0290000Y0090733D02*
X0238256Y0090733D01*
X0238256Y0089734D02*
X0289192Y0089734D01*
X0288193Y0088736D02*
X0238256Y0088736D01*
X0238256Y0087737D02*
X0287195Y0087737D01*
X0286196Y0086739D02*
X0237820Y0086739D01*
X0238256Y0091732D02*
X0290000Y0091732D01*
X0290000Y0092730D02*
X0238256Y0092730D01*
X0238256Y0093729D02*
X0290000Y0093729D01*
X0290000Y0094727D02*
X0238256Y0094727D01*
X0329003Y0091732D02*
X0330509Y0091732D01*
X0350323Y0067767D02*
X0354200Y0067767D01*
X0354200Y0066769D02*
X0352053Y0066769D01*
X0353485Y0065770D02*
X0354200Y0065770D01*
D30*
X0299500Y0086300D03*
X0293000Y0127800D03*
X0315500Y0127800D03*
X0307500Y0173800D03*
X0290000Y0175800D03*
X0290000Y0211300D03*
X0235500Y0197800D03*
X0236000Y0187800D03*
X0214000Y0231800D03*
X0154500Y0212800D03*
X0233500Y0135800D03*
X0226000Y0101800D03*
D31*
X0283500Y0053300D02*
X0328000Y0097800D01*
X0335579Y0097800D01*
D32*
X0194100Y0139500D02*
X0187500Y0132900D01*
X0187500Y0117749D01*
X0181051Y0111300D01*
X0089063Y0111300D01*
X0075000Y0097237D01*
M02*
