G75*
%MOIN*%
%OFA0B0*%
%FSLAX25Y25*%
%IPPOS*%
%LPD*%
%AMOC8*
5,1,8,0,0,1.08239X$1,22.5*
%
%ADD10C,0.01600*%
%ADD11R,0.08200X0.08200*%
%ADD12C,0.08200*%
%ADD13C,0.08100*%
%ADD14C,0.00000*%
%ADD15C,0.12611*%
%ADD16OC8,0.07400*%
%ADD17C,0.06600*%
%ADD18C,0.09300*%
%ADD19C,0.10643*%
%ADD20C,0.17800*%
%ADD21C,0.05200*%
D10*
X0034000Y0043800D02*
X0034000Y0260800D01*
X0357500Y0260300D01*
X0357500Y0043800D01*
X0034000Y0043800D01*
D11*
X0069500Y0120300D03*
X0174500Y0178300D03*
X0069500Y0210300D03*
D12*
X0079500Y0209300D03*
X0089500Y0210300D03*
X0099500Y0209300D03*
X0109500Y0210300D03*
X0119500Y0209300D03*
X0129500Y0210300D03*
X0139500Y0209300D03*
X0136000Y0228300D03*
X0136000Y0238300D03*
X0136000Y0248300D03*
X0106000Y0248300D03*
X0106000Y0238300D03*
X0106000Y0228300D03*
X0075500Y0228300D03*
X0075500Y0238300D03*
X0075500Y0248300D03*
X0046000Y0248300D03*
X0046000Y0238300D03*
X0046000Y0228300D03*
X0166500Y0228300D03*
X0166500Y0238300D03*
X0166500Y0248300D03*
X0196500Y0248300D03*
X0196500Y0238300D03*
X0196500Y0228300D03*
X0225500Y0228300D03*
X0225500Y0238300D03*
X0225500Y0248300D03*
X0255500Y0248300D03*
X0255500Y0238300D03*
X0255500Y0228300D03*
X0285500Y0228300D03*
X0285500Y0238300D03*
X0285500Y0248300D03*
X0308500Y0248300D03*
X0318500Y0248300D03*
X0328500Y0248300D03*
X0174500Y0168300D03*
X0174500Y0158300D03*
X0174500Y0148300D03*
X0139500Y0119300D03*
X0129500Y0120300D03*
X0119500Y0119300D03*
X0109500Y0120300D03*
X0099500Y0119300D03*
X0089500Y0120300D03*
X0079500Y0119300D03*
X0047500Y0095300D03*
X0047500Y0085300D03*
D13*
X0181157Y0070950D02*
X0181157Y0063650D01*
X0200843Y0063650D02*
X0200843Y0070950D01*
X0220657Y0070950D02*
X0220657Y0063650D01*
X0240343Y0063650D02*
X0240343Y0070950D01*
X0331929Y0078115D02*
X0339229Y0078115D01*
X0339229Y0097800D02*
X0331929Y0097800D01*
X0331929Y0117485D02*
X0339229Y0117485D01*
D14*
X0339594Y0056300D02*
X0339596Y0056453D01*
X0339602Y0056607D01*
X0339612Y0056760D01*
X0339626Y0056912D01*
X0339644Y0057065D01*
X0339666Y0057216D01*
X0339691Y0057367D01*
X0339721Y0057518D01*
X0339755Y0057668D01*
X0339792Y0057816D01*
X0339833Y0057964D01*
X0339878Y0058110D01*
X0339927Y0058256D01*
X0339980Y0058400D01*
X0340036Y0058542D01*
X0340096Y0058683D01*
X0340160Y0058823D01*
X0340227Y0058961D01*
X0340298Y0059097D01*
X0340373Y0059231D01*
X0340450Y0059363D01*
X0340532Y0059493D01*
X0340616Y0059621D01*
X0340704Y0059747D01*
X0340795Y0059870D01*
X0340889Y0059991D01*
X0340987Y0060109D01*
X0341087Y0060225D01*
X0341191Y0060338D01*
X0341297Y0060449D01*
X0341406Y0060557D01*
X0341518Y0060662D01*
X0341632Y0060763D01*
X0341750Y0060862D01*
X0341869Y0060958D01*
X0341991Y0061051D01*
X0342116Y0061140D01*
X0342243Y0061227D01*
X0342372Y0061309D01*
X0342503Y0061389D01*
X0342636Y0061465D01*
X0342771Y0061538D01*
X0342908Y0061607D01*
X0343047Y0061672D01*
X0343187Y0061734D01*
X0343329Y0061792D01*
X0343472Y0061847D01*
X0343617Y0061898D01*
X0343763Y0061945D01*
X0343910Y0061988D01*
X0344058Y0062027D01*
X0344207Y0062063D01*
X0344357Y0062094D01*
X0344508Y0062122D01*
X0344659Y0062146D01*
X0344812Y0062166D01*
X0344964Y0062182D01*
X0345117Y0062194D01*
X0345270Y0062202D01*
X0345423Y0062206D01*
X0345577Y0062206D01*
X0345730Y0062202D01*
X0345883Y0062194D01*
X0346036Y0062182D01*
X0346188Y0062166D01*
X0346341Y0062146D01*
X0346492Y0062122D01*
X0346643Y0062094D01*
X0346793Y0062063D01*
X0346942Y0062027D01*
X0347090Y0061988D01*
X0347237Y0061945D01*
X0347383Y0061898D01*
X0347528Y0061847D01*
X0347671Y0061792D01*
X0347813Y0061734D01*
X0347953Y0061672D01*
X0348092Y0061607D01*
X0348229Y0061538D01*
X0348364Y0061465D01*
X0348497Y0061389D01*
X0348628Y0061309D01*
X0348757Y0061227D01*
X0348884Y0061140D01*
X0349009Y0061051D01*
X0349131Y0060958D01*
X0349250Y0060862D01*
X0349368Y0060763D01*
X0349482Y0060662D01*
X0349594Y0060557D01*
X0349703Y0060449D01*
X0349809Y0060338D01*
X0349913Y0060225D01*
X0350013Y0060109D01*
X0350111Y0059991D01*
X0350205Y0059870D01*
X0350296Y0059747D01*
X0350384Y0059621D01*
X0350468Y0059493D01*
X0350550Y0059363D01*
X0350627Y0059231D01*
X0350702Y0059097D01*
X0350773Y0058961D01*
X0350840Y0058823D01*
X0350904Y0058683D01*
X0350964Y0058542D01*
X0351020Y0058400D01*
X0351073Y0058256D01*
X0351122Y0058110D01*
X0351167Y0057964D01*
X0351208Y0057816D01*
X0351245Y0057668D01*
X0351279Y0057518D01*
X0351309Y0057367D01*
X0351334Y0057216D01*
X0351356Y0057065D01*
X0351374Y0056912D01*
X0351388Y0056760D01*
X0351398Y0056607D01*
X0351404Y0056453D01*
X0351406Y0056300D01*
X0351404Y0056147D01*
X0351398Y0055993D01*
X0351388Y0055840D01*
X0351374Y0055688D01*
X0351356Y0055535D01*
X0351334Y0055384D01*
X0351309Y0055233D01*
X0351279Y0055082D01*
X0351245Y0054932D01*
X0351208Y0054784D01*
X0351167Y0054636D01*
X0351122Y0054490D01*
X0351073Y0054344D01*
X0351020Y0054200D01*
X0350964Y0054058D01*
X0350904Y0053917D01*
X0350840Y0053777D01*
X0350773Y0053639D01*
X0350702Y0053503D01*
X0350627Y0053369D01*
X0350550Y0053237D01*
X0350468Y0053107D01*
X0350384Y0052979D01*
X0350296Y0052853D01*
X0350205Y0052730D01*
X0350111Y0052609D01*
X0350013Y0052491D01*
X0349913Y0052375D01*
X0349809Y0052262D01*
X0349703Y0052151D01*
X0349594Y0052043D01*
X0349482Y0051938D01*
X0349368Y0051837D01*
X0349250Y0051738D01*
X0349131Y0051642D01*
X0349009Y0051549D01*
X0348884Y0051460D01*
X0348757Y0051373D01*
X0348628Y0051291D01*
X0348497Y0051211D01*
X0348364Y0051135D01*
X0348229Y0051062D01*
X0348092Y0050993D01*
X0347953Y0050928D01*
X0347813Y0050866D01*
X0347671Y0050808D01*
X0347528Y0050753D01*
X0347383Y0050702D01*
X0347237Y0050655D01*
X0347090Y0050612D01*
X0346942Y0050573D01*
X0346793Y0050537D01*
X0346643Y0050506D01*
X0346492Y0050478D01*
X0346341Y0050454D01*
X0346188Y0050434D01*
X0346036Y0050418D01*
X0345883Y0050406D01*
X0345730Y0050398D01*
X0345577Y0050394D01*
X0345423Y0050394D01*
X0345270Y0050398D01*
X0345117Y0050406D01*
X0344964Y0050418D01*
X0344812Y0050434D01*
X0344659Y0050454D01*
X0344508Y0050478D01*
X0344357Y0050506D01*
X0344207Y0050537D01*
X0344058Y0050573D01*
X0343910Y0050612D01*
X0343763Y0050655D01*
X0343617Y0050702D01*
X0343472Y0050753D01*
X0343329Y0050808D01*
X0343187Y0050866D01*
X0343047Y0050928D01*
X0342908Y0050993D01*
X0342771Y0051062D01*
X0342636Y0051135D01*
X0342503Y0051211D01*
X0342372Y0051291D01*
X0342243Y0051373D01*
X0342116Y0051460D01*
X0341991Y0051549D01*
X0341869Y0051642D01*
X0341750Y0051738D01*
X0341632Y0051837D01*
X0341518Y0051938D01*
X0341406Y0052043D01*
X0341297Y0052151D01*
X0341191Y0052262D01*
X0341087Y0052375D01*
X0340987Y0052491D01*
X0340889Y0052609D01*
X0340795Y0052730D01*
X0340704Y0052853D01*
X0340616Y0052979D01*
X0340532Y0053107D01*
X0340450Y0053237D01*
X0340373Y0053369D01*
X0340298Y0053503D01*
X0340227Y0053639D01*
X0340160Y0053777D01*
X0340096Y0053917D01*
X0340036Y0054058D01*
X0339980Y0054200D01*
X0339927Y0054344D01*
X0339878Y0054490D01*
X0339833Y0054636D01*
X0339792Y0054784D01*
X0339755Y0054932D01*
X0339721Y0055082D01*
X0339691Y0055233D01*
X0339666Y0055384D01*
X0339644Y0055535D01*
X0339626Y0055688D01*
X0339612Y0055840D01*
X0339602Y0055993D01*
X0339596Y0056147D01*
X0339594Y0056300D01*
X0340094Y0248300D02*
X0340096Y0248453D01*
X0340102Y0248607D01*
X0340112Y0248760D01*
X0340126Y0248912D01*
X0340144Y0249065D01*
X0340166Y0249216D01*
X0340191Y0249367D01*
X0340221Y0249518D01*
X0340255Y0249668D01*
X0340292Y0249816D01*
X0340333Y0249964D01*
X0340378Y0250110D01*
X0340427Y0250256D01*
X0340480Y0250400D01*
X0340536Y0250542D01*
X0340596Y0250683D01*
X0340660Y0250823D01*
X0340727Y0250961D01*
X0340798Y0251097D01*
X0340873Y0251231D01*
X0340950Y0251363D01*
X0341032Y0251493D01*
X0341116Y0251621D01*
X0341204Y0251747D01*
X0341295Y0251870D01*
X0341389Y0251991D01*
X0341487Y0252109D01*
X0341587Y0252225D01*
X0341691Y0252338D01*
X0341797Y0252449D01*
X0341906Y0252557D01*
X0342018Y0252662D01*
X0342132Y0252763D01*
X0342250Y0252862D01*
X0342369Y0252958D01*
X0342491Y0253051D01*
X0342616Y0253140D01*
X0342743Y0253227D01*
X0342872Y0253309D01*
X0343003Y0253389D01*
X0343136Y0253465D01*
X0343271Y0253538D01*
X0343408Y0253607D01*
X0343547Y0253672D01*
X0343687Y0253734D01*
X0343829Y0253792D01*
X0343972Y0253847D01*
X0344117Y0253898D01*
X0344263Y0253945D01*
X0344410Y0253988D01*
X0344558Y0254027D01*
X0344707Y0254063D01*
X0344857Y0254094D01*
X0345008Y0254122D01*
X0345159Y0254146D01*
X0345312Y0254166D01*
X0345464Y0254182D01*
X0345617Y0254194D01*
X0345770Y0254202D01*
X0345923Y0254206D01*
X0346077Y0254206D01*
X0346230Y0254202D01*
X0346383Y0254194D01*
X0346536Y0254182D01*
X0346688Y0254166D01*
X0346841Y0254146D01*
X0346992Y0254122D01*
X0347143Y0254094D01*
X0347293Y0254063D01*
X0347442Y0254027D01*
X0347590Y0253988D01*
X0347737Y0253945D01*
X0347883Y0253898D01*
X0348028Y0253847D01*
X0348171Y0253792D01*
X0348313Y0253734D01*
X0348453Y0253672D01*
X0348592Y0253607D01*
X0348729Y0253538D01*
X0348864Y0253465D01*
X0348997Y0253389D01*
X0349128Y0253309D01*
X0349257Y0253227D01*
X0349384Y0253140D01*
X0349509Y0253051D01*
X0349631Y0252958D01*
X0349750Y0252862D01*
X0349868Y0252763D01*
X0349982Y0252662D01*
X0350094Y0252557D01*
X0350203Y0252449D01*
X0350309Y0252338D01*
X0350413Y0252225D01*
X0350513Y0252109D01*
X0350611Y0251991D01*
X0350705Y0251870D01*
X0350796Y0251747D01*
X0350884Y0251621D01*
X0350968Y0251493D01*
X0351050Y0251363D01*
X0351127Y0251231D01*
X0351202Y0251097D01*
X0351273Y0250961D01*
X0351340Y0250823D01*
X0351404Y0250683D01*
X0351464Y0250542D01*
X0351520Y0250400D01*
X0351573Y0250256D01*
X0351622Y0250110D01*
X0351667Y0249964D01*
X0351708Y0249816D01*
X0351745Y0249668D01*
X0351779Y0249518D01*
X0351809Y0249367D01*
X0351834Y0249216D01*
X0351856Y0249065D01*
X0351874Y0248912D01*
X0351888Y0248760D01*
X0351898Y0248607D01*
X0351904Y0248453D01*
X0351906Y0248300D01*
X0351904Y0248147D01*
X0351898Y0247993D01*
X0351888Y0247840D01*
X0351874Y0247688D01*
X0351856Y0247535D01*
X0351834Y0247384D01*
X0351809Y0247233D01*
X0351779Y0247082D01*
X0351745Y0246932D01*
X0351708Y0246784D01*
X0351667Y0246636D01*
X0351622Y0246490D01*
X0351573Y0246344D01*
X0351520Y0246200D01*
X0351464Y0246058D01*
X0351404Y0245917D01*
X0351340Y0245777D01*
X0351273Y0245639D01*
X0351202Y0245503D01*
X0351127Y0245369D01*
X0351050Y0245237D01*
X0350968Y0245107D01*
X0350884Y0244979D01*
X0350796Y0244853D01*
X0350705Y0244730D01*
X0350611Y0244609D01*
X0350513Y0244491D01*
X0350413Y0244375D01*
X0350309Y0244262D01*
X0350203Y0244151D01*
X0350094Y0244043D01*
X0349982Y0243938D01*
X0349868Y0243837D01*
X0349750Y0243738D01*
X0349631Y0243642D01*
X0349509Y0243549D01*
X0349384Y0243460D01*
X0349257Y0243373D01*
X0349128Y0243291D01*
X0348997Y0243211D01*
X0348864Y0243135D01*
X0348729Y0243062D01*
X0348592Y0242993D01*
X0348453Y0242928D01*
X0348313Y0242866D01*
X0348171Y0242808D01*
X0348028Y0242753D01*
X0347883Y0242702D01*
X0347737Y0242655D01*
X0347590Y0242612D01*
X0347442Y0242573D01*
X0347293Y0242537D01*
X0347143Y0242506D01*
X0346992Y0242478D01*
X0346841Y0242454D01*
X0346688Y0242434D01*
X0346536Y0242418D01*
X0346383Y0242406D01*
X0346230Y0242398D01*
X0346077Y0242394D01*
X0345923Y0242394D01*
X0345770Y0242398D01*
X0345617Y0242406D01*
X0345464Y0242418D01*
X0345312Y0242434D01*
X0345159Y0242454D01*
X0345008Y0242478D01*
X0344857Y0242506D01*
X0344707Y0242537D01*
X0344558Y0242573D01*
X0344410Y0242612D01*
X0344263Y0242655D01*
X0344117Y0242702D01*
X0343972Y0242753D01*
X0343829Y0242808D01*
X0343687Y0242866D01*
X0343547Y0242928D01*
X0343408Y0242993D01*
X0343271Y0243062D01*
X0343136Y0243135D01*
X0343003Y0243211D01*
X0342872Y0243291D01*
X0342743Y0243373D01*
X0342616Y0243460D01*
X0342491Y0243549D01*
X0342369Y0243642D01*
X0342250Y0243738D01*
X0342132Y0243837D01*
X0342018Y0243938D01*
X0341906Y0244043D01*
X0341797Y0244151D01*
X0341691Y0244262D01*
X0341587Y0244375D01*
X0341487Y0244491D01*
X0341389Y0244609D01*
X0341295Y0244730D01*
X0341204Y0244853D01*
X0341116Y0244979D01*
X0341032Y0245107D01*
X0340950Y0245237D01*
X0340873Y0245369D01*
X0340798Y0245503D01*
X0340727Y0245639D01*
X0340660Y0245777D01*
X0340596Y0245917D01*
X0340536Y0246058D01*
X0340480Y0246200D01*
X0340427Y0246344D01*
X0340378Y0246490D01*
X0340333Y0246636D01*
X0340292Y0246784D01*
X0340255Y0246932D01*
X0340221Y0247082D01*
X0340191Y0247233D01*
X0340166Y0247384D01*
X0340144Y0247535D01*
X0340126Y0247688D01*
X0340112Y0247840D01*
X0340102Y0247993D01*
X0340096Y0248147D01*
X0340094Y0248300D01*
X0040594Y0178300D02*
X0040596Y0178453D01*
X0040602Y0178607D01*
X0040612Y0178760D01*
X0040626Y0178912D01*
X0040644Y0179065D01*
X0040666Y0179216D01*
X0040691Y0179367D01*
X0040721Y0179518D01*
X0040755Y0179668D01*
X0040792Y0179816D01*
X0040833Y0179964D01*
X0040878Y0180110D01*
X0040927Y0180256D01*
X0040980Y0180400D01*
X0041036Y0180542D01*
X0041096Y0180683D01*
X0041160Y0180823D01*
X0041227Y0180961D01*
X0041298Y0181097D01*
X0041373Y0181231D01*
X0041450Y0181363D01*
X0041532Y0181493D01*
X0041616Y0181621D01*
X0041704Y0181747D01*
X0041795Y0181870D01*
X0041889Y0181991D01*
X0041987Y0182109D01*
X0042087Y0182225D01*
X0042191Y0182338D01*
X0042297Y0182449D01*
X0042406Y0182557D01*
X0042518Y0182662D01*
X0042632Y0182763D01*
X0042750Y0182862D01*
X0042869Y0182958D01*
X0042991Y0183051D01*
X0043116Y0183140D01*
X0043243Y0183227D01*
X0043372Y0183309D01*
X0043503Y0183389D01*
X0043636Y0183465D01*
X0043771Y0183538D01*
X0043908Y0183607D01*
X0044047Y0183672D01*
X0044187Y0183734D01*
X0044329Y0183792D01*
X0044472Y0183847D01*
X0044617Y0183898D01*
X0044763Y0183945D01*
X0044910Y0183988D01*
X0045058Y0184027D01*
X0045207Y0184063D01*
X0045357Y0184094D01*
X0045508Y0184122D01*
X0045659Y0184146D01*
X0045812Y0184166D01*
X0045964Y0184182D01*
X0046117Y0184194D01*
X0046270Y0184202D01*
X0046423Y0184206D01*
X0046577Y0184206D01*
X0046730Y0184202D01*
X0046883Y0184194D01*
X0047036Y0184182D01*
X0047188Y0184166D01*
X0047341Y0184146D01*
X0047492Y0184122D01*
X0047643Y0184094D01*
X0047793Y0184063D01*
X0047942Y0184027D01*
X0048090Y0183988D01*
X0048237Y0183945D01*
X0048383Y0183898D01*
X0048528Y0183847D01*
X0048671Y0183792D01*
X0048813Y0183734D01*
X0048953Y0183672D01*
X0049092Y0183607D01*
X0049229Y0183538D01*
X0049364Y0183465D01*
X0049497Y0183389D01*
X0049628Y0183309D01*
X0049757Y0183227D01*
X0049884Y0183140D01*
X0050009Y0183051D01*
X0050131Y0182958D01*
X0050250Y0182862D01*
X0050368Y0182763D01*
X0050482Y0182662D01*
X0050594Y0182557D01*
X0050703Y0182449D01*
X0050809Y0182338D01*
X0050913Y0182225D01*
X0051013Y0182109D01*
X0051111Y0181991D01*
X0051205Y0181870D01*
X0051296Y0181747D01*
X0051384Y0181621D01*
X0051468Y0181493D01*
X0051550Y0181363D01*
X0051627Y0181231D01*
X0051702Y0181097D01*
X0051773Y0180961D01*
X0051840Y0180823D01*
X0051904Y0180683D01*
X0051964Y0180542D01*
X0052020Y0180400D01*
X0052073Y0180256D01*
X0052122Y0180110D01*
X0052167Y0179964D01*
X0052208Y0179816D01*
X0052245Y0179668D01*
X0052279Y0179518D01*
X0052309Y0179367D01*
X0052334Y0179216D01*
X0052356Y0179065D01*
X0052374Y0178912D01*
X0052388Y0178760D01*
X0052398Y0178607D01*
X0052404Y0178453D01*
X0052406Y0178300D01*
X0052404Y0178147D01*
X0052398Y0177993D01*
X0052388Y0177840D01*
X0052374Y0177688D01*
X0052356Y0177535D01*
X0052334Y0177384D01*
X0052309Y0177233D01*
X0052279Y0177082D01*
X0052245Y0176932D01*
X0052208Y0176784D01*
X0052167Y0176636D01*
X0052122Y0176490D01*
X0052073Y0176344D01*
X0052020Y0176200D01*
X0051964Y0176058D01*
X0051904Y0175917D01*
X0051840Y0175777D01*
X0051773Y0175639D01*
X0051702Y0175503D01*
X0051627Y0175369D01*
X0051550Y0175237D01*
X0051468Y0175107D01*
X0051384Y0174979D01*
X0051296Y0174853D01*
X0051205Y0174730D01*
X0051111Y0174609D01*
X0051013Y0174491D01*
X0050913Y0174375D01*
X0050809Y0174262D01*
X0050703Y0174151D01*
X0050594Y0174043D01*
X0050482Y0173938D01*
X0050368Y0173837D01*
X0050250Y0173738D01*
X0050131Y0173642D01*
X0050009Y0173549D01*
X0049884Y0173460D01*
X0049757Y0173373D01*
X0049628Y0173291D01*
X0049497Y0173211D01*
X0049364Y0173135D01*
X0049229Y0173062D01*
X0049092Y0172993D01*
X0048953Y0172928D01*
X0048813Y0172866D01*
X0048671Y0172808D01*
X0048528Y0172753D01*
X0048383Y0172702D01*
X0048237Y0172655D01*
X0048090Y0172612D01*
X0047942Y0172573D01*
X0047793Y0172537D01*
X0047643Y0172506D01*
X0047492Y0172478D01*
X0047341Y0172454D01*
X0047188Y0172434D01*
X0047036Y0172418D01*
X0046883Y0172406D01*
X0046730Y0172398D01*
X0046577Y0172394D01*
X0046423Y0172394D01*
X0046270Y0172398D01*
X0046117Y0172406D01*
X0045964Y0172418D01*
X0045812Y0172434D01*
X0045659Y0172454D01*
X0045508Y0172478D01*
X0045357Y0172506D01*
X0045207Y0172537D01*
X0045058Y0172573D01*
X0044910Y0172612D01*
X0044763Y0172655D01*
X0044617Y0172702D01*
X0044472Y0172753D01*
X0044329Y0172808D01*
X0044187Y0172866D01*
X0044047Y0172928D01*
X0043908Y0172993D01*
X0043771Y0173062D01*
X0043636Y0173135D01*
X0043503Y0173211D01*
X0043372Y0173291D01*
X0043243Y0173373D01*
X0043116Y0173460D01*
X0042991Y0173549D01*
X0042869Y0173642D01*
X0042750Y0173738D01*
X0042632Y0173837D01*
X0042518Y0173938D01*
X0042406Y0174043D01*
X0042297Y0174151D01*
X0042191Y0174262D01*
X0042087Y0174375D01*
X0041987Y0174491D01*
X0041889Y0174609D01*
X0041795Y0174730D01*
X0041704Y0174853D01*
X0041616Y0174979D01*
X0041532Y0175107D01*
X0041450Y0175237D01*
X0041373Y0175369D01*
X0041298Y0175503D01*
X0041227Y0175639D01*
X0041160Y0175777D01*
X0041096Y0175917D01*
X0041036Y0176058D01*
X0040980Y0176200D01*
X0040927Y0176344D01*
X0040878Y0176490D01*
X0040833Y0176636D01*
X0040792Y0176784D01*
X0040755Y0176932D01*
X0040721Y0177082D01*
X0040691Y0177233D01*
X0040666Y0177384D01*
X0040644Y0177535D01*
X0040626Y0177688D01*
X0040612Y0177840D01*
X0040602Y0177993D01*
X0040596Y0178147D01*
X0040594Y0178300D01*
X0040094Y0056300D02*
X0040096Y0056453D01*
X0040102Y0056607D01*
X0040112Y0056760D01*
X0040126Y0056912D01*
X0040144Y0057065D01*
X0040166Y0057216D01*
X0040191Y0057367D01*
X0040221Y0057518D01*
X0040255Y0057668D01*
X0040292Y0057816D01*
X0040333Y0057964D01*
X0040378Y0058110D01*
X0040427Y0058256D01*
X0040480Y0058400D01*
X0040536Y0058542D01*
X0040596Y0058683D01*
X0040660Y0058823D01*
X0040727Y0058961D01*
X0040798Y0059097D01*
X0040873Y0059231D01*
X0040950Y0059363D01*
X0041032Y0059493D01*
X0041116Y0059621D01*
X0041204Y0059747D01*
X0041295Y0059870D01*
X0041389Y0059991D01*
X0041487Y0060109D01*
X0041587Y0060225D01*
X0041691Y0060338D01*
X0041797Y0060449D01*
X0041906Y0060557D01*
X0042018Y0060662D01*
X0042132Y0060763D01*
X0042250Y0060862D01*
X0042369Y0060958D01*
X0042491Y0061051D01*
X0042616Y0061140D01*
X0042743Y0061227D01*
X0042872Y0061309D01*
X0043003Y0061389D01*
X0043136Y0061465D01*
X0043271Y0061538D01*
X0043408Y0061607D01*
X0043547Y0061672D01*
X0043687Y0061734D01*
X0043829Y0061792D01*
X0043972Y0061847D01*
X0044117Y0061898D01*
X0044263Y0061945D01*
X0044410Y0061988D01*
X0044558Y0062027D01*
X0044707Y0062063D01*
X0044857Y0062094D01*
X0045008Y0062122D01*
X0045159Y0062146D01*
X0045312Y0062166D01*
X0045464Y0062182D01*
X0045617Y0062194D01*
X0045770Y0062202D01*
X0045923Y0062206D01*
X0046077Y0062206D01*
X0046230Y0062202D01*
X0046383Y0062194D01*
X0046536Y0062182D01*
X0046688Y0062166D01*
X0046841Y0062146D01*
X0046992Y0062122D01*
X0047143Y0062094D01*
X0047293Y0062063D01*
X0047442Y0062027D01*
X0047590Y0061988D01*
X0047737Y0061945D01*
X0047883Y0061898D01*
X0048028Y0061847D01*
X0048171Y0061792D01*
X0048313Y0061734D01*
X0048453Y0061672D01*
X0048592Y0061607D01*
X0048729Y0061538D01*
X0048864Y0061465D01*
X0048997Y0061389D01*
X0049128Y0061309D01*
X0049257Y0061227D01*
X0049384Y0061140D01*
X0049509Y0061051D01*
X0049631Y0060958D01*
X0049750Y0060862D01*
X0049868Y0060763D01*
X0049982Y0060662D01*
X0050094Y0060557D01*
X0050203Y0060449D01*
X0050309Y0060338D01*
X0050413Y0060225D01*
X0050513Y0060109D01*
X0050611Y0059991D01*
X0050705Y0059870D01*
X0050796Y0059747D01*
X0050884Y0059621D01*
X0050968Y0059493D01*
X0051050Y0059363D01*
X0051127Y0059231D01*
X0051202Y0059097D01*
X0051273Y0058961D01*
X0051340Y0058823D01*
X0051404Y0058683D01*
X0051464Y0058542D01*
X0051520Y0058400D01*
X0051573Y0058256D01*
X0051622Y0058110D01*
X0051667Y0057964D01*
X0051708Y0057816D01*
X0051745Y0057668D01*
X0051779Y0057518D01*
X0051809Y0057367D01*
X0051834Y0057216D01*
X0051856Y0057065D01*
X0051874Y0056912D01*
X0051888Y0056760D01*
X0051898Y0056607D01*
X0051904Y0056453D01*
X0051906Y0056300D01*
X0051904Y0056147D01*
X0051898Y0055993D01*
X0051888Y0055840D01*
X0051874Y0055688D01*
X0051856Y0055535D01*
X0051834Y0055384D01*
X0051809Y0055233D01*
X0051779Y0055082D01*
X0051745Y0054932D01*
X0051708Y0054784D01*
X0051667Y0054636D01*
X0051622Y0054490D01*
X0051573Y0054344D01*
X0051520Y0054200D01*
X0051464Y0054058D01*
X0051404Y0053917D01*
X0051340Y0053777D01*
X0051273Y0053639D01*
X0051202Y0053503D01*
X0051127Y0053369D01*
X0051050Y0053237D01*
X0050968Y0053107D01*
X0050884Y0052979D01*
X0050796Y0052853D01*
X0050705Y0052730D01*
X0050611Y0052609D01*
X0050513Y0052491D01*
X0050413Y0052375D01*
X0050309Y0052262D01*
X0050203Y0052151D01*
X0050094Y0052043D01*
X0049982Y0051938D01*
X0049868Y0051837D01*
X0049750Y0051738D01*
X0049631Y0051642D01*
X0049509Y0051549D01*
X0049384Y0051460D01*
X0049257Y0051373D01*
X0049128Y0051291D01*
X0048997Y0051211D01*
X0048864Y0051135D01*
X0048729Y0051062D01*
X0048592Y0050993D01*
X0048453Y0050928D01*
X0048313Y0050866D01*
X0048171Y0050808D01*
X0048028Y0050753D01*
X0047883Y0050702D01*
X0047737Y0050655D01*
X0047590Y0050612D01*
X0047442Y0050573D01*
X0047293Y0050537D01*
X0047143Y0050506D01*
X0046992Y0050478D01*
X0046841Y0050454D01*
X0046688Y0050434D01*
X0046536Y0050418D01*
X0046383Y0050406D01*
X0046230Y0050398D01*
X0046077Y0050394D01*
X0045923Y0050394D01*
X0045770Y0050398D01*
X0045617Y0050406D01*
X0045464Y0050418D01*
X0045312Y0050434D01*
X0045159Y0050454D01*
X0045008Y0050478D01*
X0044857Y0050506D01*
X0044707Y0050537D01*
X0044558Y0050573D01*
X0044410Y0050612D01*
X0044263Y0050655D01*
X0044117Y0050702D01*
X0043972Y0050753D01*
X0043829Y0050808D01*
X0043687Y0050866D01*
X0043547Y0050928D01*
X0043408Y0050993D01*
X0043271Y0051062D01*
X0043136Y0051135D01*
X0043003Y0051211D01*
X0042872Y0051291D01*
X0042743Y0051373D01*
X0042616Y0051460D01*
X0042491Y0051549D01*
X0042369Y0051642D01*
X0042250Y0051738D01*
X0042132Y0051837D01*
X0042018Y0051938D01*
X0041906Y0052043D01*
X0041797Y0052151D01*
X0041691Y0052262D01*
X0041587Y0052375D01*
X0041487Y0052491D01*
X0041389Y0052609D01*
X0041295Y0052730D01*
X0041204Y0052853D01*
X0041116Y0052979D01*
X0041032Y0053107D01*
X0040950Y0053237D01*
X0040873Y0053369D01*
X0040798Y0053503D01*
X0040727Y0053639D01*
X0040660Y0053777D01*
X0040596Y0053917D01*
X0040536Y0054058D01*
X0040480Y0054200D01*
X0040427Y0054344D01*
X0040378Y0054490D01*
X0040333Y0054636D01*
X0040292Y0054784D01*
X0040255Y0054932D01*
X0040221Y0055082D01*
X0040191Y0055233D01*
X0040166Y0055384D01*
X0040144Y0055535D01*
X0040126Y0055688D01*
X0040112Y0055840D01*
X0040102Y0055993D01*
X0040096Y0056147D01*
X0040094Y0056300D01*
D15*
X0046000Y0056300D03*
X0046500Y0178300D03*
X0345500Y0056300D03*
X0346000Y0248300D03*
D16*
X0347500Y0172300D03*
X0347500Y0162300D03*
X0347500Y0148800D03*
X0347500Y0138800D03*
D17*
X0280400Y0142800D02*
X0274600Y0142800D01*
X0274600Y0152800D02*
X0280400Y0152800D01*
X0280400Y0162800D02*
X0274600Y0162800D01*
X0274600Y0172800D02*
X0280400Y0172800D01*
X0280400Y0182800D02*
X0274600Y0182800D01*
X0274600Y0192800D02*
X0280400Y0192800D01*
X0280400Y0202800D02*
X0274600Y0202800D01*
X0274600Y0212800D02*
X0280400Y0212800D01*
X0250400Y0212800D02*
X0244600Y0212800D01*
X0244600Y0202800D02*
X0250400Y0202800D01*
X0250400Y0192800D02*
X0244600Y0192800D01*
X0244600Y0182800D02*
X0250400Y0182800D01*
X0250400Y0172800D02*
X0244600Y0172800D01*
X0244600Y0162800D02*
X0250400Y0162800D01*
X0250400Y0152800D02*
X0244600Y0152800D01*
X0244600Y0142800D02*
X0250400Y0142800D01*
D18*
X0316657Y0182694D03*
X0336343Y0182694D03*
X0336343Y0231906D03*
X0316657Y0231906D03*
D19*
X0307122Y0109206D03*
X0259091Y0109206D03*
X0259878Y0061174D03*
X0283500Y0053300D03*
X0307122Y0061174D03*
D20*
X0093504Y0085426D03*
X0075000Y0097237D03*
X0075000Y0073615D03*
D21*
X0226000Y0101800D03*
X0233500Y0135800D03*
X0293000Y0127800D03*
X0315500Y0127800D03*
X0299500Y0086300D03*
X0307500Y0173800D03*
X0290000Y0175800D03*
X0290000Y0211300D03*
X0235500Y0197800D03*
X0236000Y0187800D03*
X0214000Y0231800D03*
X0154500Y0212800D03*
M02*
